<svg width="171" height="171" fill="none" xmlns="http://www.w3.org/2000/svg"><path d="M17.804 114.145c-.257-.574-.426-1.247-.64-1.844a77.187 77.187 0 0 1-2.13-6.716 74.041 74.041 0 0 1-2.112-10.86A74.29 74.29 0 0 1 15.3 65.484a74.332 74.332 0 0 1 7.236-16.929 70.943 70.943 0 0 1 5.212-7.751 70.68 70.68 0 0 1 6.19-6.995 74.923 74.923 0 0 1 2.64-2.544 73.223 73.223 0 0 1 8.642-6.791 73.28 73.28 0 0 1 8.461-4.887 73.273 73.273 0 0 1 11.37-4.45 73.255 73.255 0 0 1 2.354-.658c2.736-.74 5.6-1.187 8.406-1.572 16.654-2.28 32.648 1.18 47.173 9.534-.082.162-.159.33-.25.486-.421.039-.686.25-.953.571-.178.215-.328.457-.48.69 1.059.812 2.242 1.433 3.354 2.167a53.739 53.739 0 0 1 4.941 3.723c11.58 9.826 19.734 21.832 23.961 36.477.919 3.185 1.684 6.378 2.119 9.668a76.502 76.502 0 0 1 .66 7.735 74.462 74.462 0 0 1-.003 5.176 74.35 74.35 0 0 1-.358 5.164 73.874 73.874 0 0 1-.312 2.57c-.332 2.232-.859 4.422-1.286 6.635.575.394 1.057.872 1.19 1.58.277 1.477.099 3.926.098 5.477.029 3.562.03 7.125.004 10.688l.028 19.339c-.008 2.109.058 4.24-.006 6.347-.013.419-.05 1.246-.3 1.578-.23.305-.649.453-1.01.492-.899.097-1.857.029-2.761.024l-5.523-.047-17.636.019c-2.36.02-4.796-.16-7.144.025-1.756 1.255-3.794 2.226-5.75 3.124-4.78 2.196-9.712 3.961-14.868 5.05a72.855 72.855 0 0 1-2.457.492c-.41.075-.822.146-1.235.213a64.839 64.839 0 0 1-2.48.362c-.414.053-.829.102-1.244.147a65.273 65.273 0 0 1-2.496.23 74.65 74.65 0 0 1-3.755.178 65.433 65.433 0 0 1-2.506.007 74.8 74.8 0 0 1-2.504-.08 74.539 74.539 0 0 1-2.5-.17 74.314 74.314 0 0 1-2.493-.258c-.415-.05-.83-.104-1.243-.162a64.699 64.699 0 0 1-2.476-.389 73.527 73.527 0 0 1-3.684-.748 72.2 72.2 0 0 1-4.84-1.3 70.727 70.727 0 0 1-3.563-1.197c-3.967-1.455-7.675-3.148-11.223-5.46-.54.001-1.084.025-1.617-.07-1.186-.103-2.464-.014-3.658-.014-2.336 0-21.73.196-22.213-.062-.61-.326-.007-3.057.087-3.7.129-.878.433-2.031.32-2.899-.154-1.193-.804-2.526-1.213-3.662l-1.693-4.797c-.698-1.928-1.324-3.879-2.01-5.811a519.042 519.042 0 0 1-3.492-9.96c1.004-1.371 2.229-2.614 3.294-3.944z" fill="#000"/><path d="M17.804 114.145c-.257-.574-.426-1.247-.64-1.844a77.187 77.187 0 0 1-2.13-6.716 74.041 74.041 0 0 1-2.112-10.86A74.29 74.29 0 0 1 15.3 65.484a74.332 74.332 0 0 1 7.236-16.929 70.943 70.943 0 0 1 5.212-7.751 70.68 70.68 0 0 1 6.19-6.995 74.923 74.923 0 0 1 2.64-2.544 73.223 73.223 0 0 1 8.642-6.791 73.28 73.28 0 0 1 8.461-4.887 73.273 73.273 0 0 1 11.37-4.45 73.255 73.255 0 0 1 2.354-.658c2.736-.74 5.6-1.187 8.406-1.572 16.654-2.28 32.648 1.18 47.173 9.534-.082.162-.159.33-.25.486-.421.039-.686.25-.953.571-.178.215-.328.457-.48.69 1.059.812 2.242 1.433 3.354 2.167a53.739 53.739 0 0 1 4.941 3.723c11.58 9.826 19.734 21.832 23.961 36.477.919 3.185 1.684 6.378 2.119 9.668a76.502 76.502 0 0 1 .66 7.735 74.462 74.462 0 0 1-.003 5.176 74.35 74.35 0 0 1-.358 5.164 73.874 73.874 0 0 1-.312 2.57c-.332 2.232-.859 4.422-1.286 6.635-.515-.109-1.02-.096-1.541-.067-.727-.13-1.538-.077-2.277-.085l-4.225-.032-6.179-.024c-1.224-.003-2.483-.06-3.702.036-.262-2.515-.775-4.694-2.834-6.367-2.375-1.93-5.148-1.604-8.012-1.624-1.272-.01-2.608-.099-3.871.038-1.722.187-3.006.937-4.273 2.077l-6.968-30.03a830.469 830.469 0 0 0-2.133-9.078c-.302-1.28-.499-2.66-.899-3.907-.036-.114-.065-.297-.167-.367-.217-.148-.564-.128-.815-.122-1.797.043-3.616.227-5.413.335l-11.165.669-28.315 1.617-20.136 1.168-5.514.329c-1.245.07-2.518.085-3.751.275-.25 1.24-.358 2.52-.517 3.776l-.82 6.44-2.933 22.871a345.292 345.292 0 0 0-.703 5.216c-.135 1.062-.213 2.17-.455 3.214-1.22.379-2.826.694-3.948 1.219.14.922.49 1.843.767 2.733l1.327 4.248c.25.805.654 1.743.637 2.588-.026 1.206-.458 2.439-.67 3.625-.197-1.417-1.082-4.712-1.742-5.959l-.125-.057c-1.05.63-4.142 4.707-5.2 5.887z" fill="#4075D7"/><path d="M32.776 58.98c5.015-.21 10.028-.602 15.04-.883l40.294-2.32c6.065-.35 12.13-.776 18.198-1.059-.081 1.387-.322 2.786-.471 4.168l-.922 8.76-2.203 21.411c-.486 4.662-1.087 9.33-1.456 14.002-1.45-.002-4.371-.353-5.43.697-.392.387-.634.881-.752 1.415-.216.981-.11 4.357-.05 5.504l.011.112c-.018 1.438-.213 4.707-.007 5.947.076.452.247.923.561 1.266.206.225.468.387.739.522l.009 19.228-.005 5.312c-.003 1.011-.049 2.053.033 3.061.055.789.185 1.386.513 2.109l-54.713.015c-.062-.784-.274-4.805-.023-5.341.09-.193.25-.419.229-.635-.112-1.106-.73-2.343-1.093-3.39a248.61 248.61 0 0 1-1.226-3.734l-7.701-23.16-2.628-8.038c-.43-1.344-.761-2.9-1.371-4.164-.082-.169-.145-.289-.293-.41-.174.041-.254.069-.433.03-.088-1.095.245-2.423.396-3.523l.969-7.092 2.543-20.052c.409-3.253.894-6.497 1.242-9.757z" fill="#FEFEFE"/><path d="M68.654 70.174a11.98 11.98 0 0 1 2.33.177c2.207.404 4.338 1.933 5.594 3.775a9.505 9.505 0 0 1 1.615 4.87c.089 1.94-.774 5.389-1.119 7.468-.656 3.96-1.193 7.953-1.946 11.894l-13.05-.003c-3.254.018-6.51.014-9.764-.014.1-1.133.385-2.292.59-3.413.383-2.125.78-4.247 1.191-6.367l.93-4.873c.267-1.413.484-2.86.974-4.216a14.17 14.17 0 0 1 2.743-4.594c2.661-2.928 5.963-4.533 9.912-4.704z" fill="#000"/><path d="M71.95 71.22c.082.162-.52 1.19-.646 1.457-1.181 2.478-2.306 5.073-2.985 7.74-1.112 4.374-1.283 9.236 1.087 13.226 1.92-.11 3.857-.219 5.781-.204-.171 1.396-.444 2.792-.668 4.182-4.488.162-9.013.067-13.505.058l-7.861-.006c.2-1.35.454-2.688.763-4.017.876-.052 1.765-.021 2.643-.02 1.928-7.1 5.723-10.828 10.206-16.235l3.017-3.59c.714-.864 1.389-1.788 2.167-2.591z" fill="#FEFEFE"/><path d="M127.175 125.604c2.696-.903 5.444-1.653 8.17-2.461 2.077-.615 4.134-1.297 6.217-1.89l5.171-1.506c1.018-.3 2.067-.566 3.061-.932.456-.168 1.133-.412 1.408-.825.253-.379.377-.834.438-1.281.1-.738.036-1.532.034-2.277l-.003-3.839c0-1.329-.252-4.704.416-5.741.227-.352.573-.566.979-.643-.178.456-.235.844-.249 1.327-.078 2.704-.016 5.428-.015 8.135l.075 19.631.002 10.144c-.001 1.49-.164 3.31.037 4.754.141.15.062.103.225.16a903.133 903.133 0 0 0-21.587-.029l-33.438-.052c-.95-.572-1.26-1.218-1.75-2.156-.082-1.008-.036-2.05-.034-3.061l.005-5.312-.009-19.227c5.866 1.902 11.79 3.643 17.681 5.469l4.009 1.202c.973.291 1.999.538 2.903 1.011.208.771.635 1.394 1.342 1.791a2.656 2.656 0 0 0 2.067.207 2.55 2.55 0 0 0 .755-.383c.562.035 1.108.032 1.545-.375.521-.484.54-1.182.545-1.841z" fill="#FDCC33"/><path d="M102.02 103.103c1.349.025 12.779.211 13.106.012l.07-.448c.014.266-.021.404.147.617.225.041.415.027.64.005.649-.011 1.298-.017 1.947-.019l.803.007 10.874-.017c1.998.001 4.012-.048 6.007.041.295.077.536.057.838.03 1.219-.096 2.478-.039 3.701-.036l6.18.024 4.225.032c.738.008 1.55-.046 2.277.085-.729.384-1.385.713-1.663 1.548-.446 1.344-.193 7.382-.18 9.182.006.8.092 1.691-.062 2.476-.091.468-.28 1.024-.727 1.264-.967.52-4.139 1.263-5.424 1.65l-11.79 3.538c-1.927.574-3.919 1.072-5.819 1.721-.003-1.345.004-2.689.02-4.034.011-.941.112-1.992-.057-2.916-.056-.305-.158-.562-.374-.787-.362-.378-.914-.568-1.428-.584.242.446.389.835.452 1.34.128 1.049.218 7.904-.034 8.799-.125.442-.404.815-.664 1.187a2.586 2.586 0 0 1-.755.383 2.656 2.656 0 0 1-2.067-.207c-.708-.397-1.134-1.02-1.342-1.792-.904-.472-1.931-.719-2.903-1.01l-4.009-1.202c-5.891-1.826-11.815-3.567-17.681-5.469-.27-.135-.533-.298-.739-.523-.314-.342-.485-.814-.56-1.266-.207-1.24-.012-4.509.006-5.947-.003-.037-.008-.074-.01-.112-.06-1.147-.167-4.522.05-5.504.117-.533.36-1.028.75-1.415 1.06-1.049 3.98-.698 5.432-.697l.763.044z" fill="#FDCC33"/><path d="m120.9 125.365.016-4.662c.004-.993-.058-2.065.107-3.044.072-.426.195-.821.486-1.15.491-.553 1.173-.715 1.882-.752.87-.046 1.305.162 1.94.737.242.446.39.835.452 1.34.129 1.048.218 7.904-.034 8.799-.125.442-.404.815-.663 1.187a2.579 2.579 0 0 1-.756.383 2.657 2.657 0 0 1-2.067-.207c-.707-.397-1.134-1.02-1.342-1.792l-.021-.839z" fill="#FEFEFE"/><path d="M95.035 110.787c.537 1.067.306 3.802.669 5.108.03.559-.024 1.165.428 1.572.108.096.107.093.21.17 1.231.726 5.457 1.814 7.027 2.293l14.001 4.3c1.144.347 2.367.92 3.529 1.135l.022.839c-.904-.472-1.931-.719-2.903-1.01l-4.009-1.202c-5.891-1.826-11.815-3.568-17.681-5.469-.27-.135-.533-.298-.739-.523-.314-.343-.485-.814-.56-1.266-.207-1.24-.012-4.509.006-5.947z" fill="#000"/><path d="M95.703 115.895c.018-.036.037-.071.053-.107.204-.447.291-8.022.31-9.11.079.836.035 1.668.045 2.506l.094 4.466c.021.903.343 3.24.137 3.987-.103-.077-.102-.074-.21-.17-.453-.407-.399-1.013-.429-1.572z" fill="#FEFEFE"/><path d="M48.381 148.994c4.667-.1 9.35-.032 14.02-.032l26.83.017 21.347.006c3.562.006 7.182-.108 10.738.04-1.756 1.255-3.795 2.225-5.75 3.124-4.78 2.196-9.712 3.961-14.868 5.049-.408.09-.817.175-1.227.257a64.48 64.48 0 0 1-2.465.449 64.716 64.716 0 0 1-2.48.362c-.415.053-.83.102-1.245.147a65.191 65.191 0 0 1-2.495.23 74.602 74.602 0 0 1-2.502.14 65.462 65.462 0 0 1-2.506.052 65.432 65.432 0 0 1-2.506-.036 74.737 74.737 0 0 1-3.752-.221 74.414 74.414 0 0 1-2.493-.258 64.926 64.926 0 0 1-2.482-.346 73.519 73.519 0 0 1-2.469-.433 72.917 72.917 0 0 1-7.291-1.82c-.4-.122-.798-.248-1.195-.378a81.52 81.52 0 0 1-1.188-.399 80.638 80.638 0 0 1-1.18-.42c-3.968-1.455-7.676-3.148-11.224-5.461-.54.002-1.084.026-1.617-.069z" fill="#4075D7"/><path d="M106.942 55.605c.681 2.341 1.177 4.77 1.711 7.148.601 2.7 1.231 5.394 1.891 8.08a1260.662 1260.662 0 0 1 4.322 18.71c.64 2.82 1.399 5.624 1.956 8.461-1.017 1.618-1.502 2.734-1.625 4.663l-.071.448c-.326.198-11.757.013-13.105-.013.056-1.699.31-3.423.478-5.116l1.067-10.393 3.376-31.988z" fill="#FEFEFE"/><path d="M117.669 98.209c2.765-2.3 4.219-2.131 7.663-2.138 1.383-.002 2.81-.067 4.188.057 1.739.156 3.367.96 4.488 2.308 1.233 1.484 1.474 3 1.605 4.865-1.995-.089-4.009-.04-6.007-.041l-10.874.017c-.284-1.701-.685-3.386-1.063-5.068z" fill="#4075D7"/><path d="M153.065 104.209c.467-.108.867-.148 1.301.099.327.186.52.511.607.869.249 1.027.077 2.463.077 3.538l.011 7.285-.009 19.107c.004 3.867.076 7.746.005 11.612-.007.419-.006.872-.116 1.279-.193.233-.369.317-.665.353-.372.044-.764.018-1.137.009-.163-.057-.083-.01-.225-.16-.2-1.445-.038-3.265-.037-4.754l-.002-10.144-.075-19.631c-.001-2.707-.063-5.431.016-8.136.014-.482.07-.87.249-1.326zM115.982 103.289c-.021-1.541.182-2.952 1.074-4.249.384 1.381.744 2.799.873 4.23-.649.002-1.298.008-1.947.019z" fill="#FEFEFE"/><path d="M22.801 109.344c.246.718.437 1.461.65 2.19.307 1.129.553 2.422 1.015 3.489l7.428 21.572c.94 2.646 1.805 5.311 2.85 7.92a194.015 194.015 0 0 1-5.548 2.475c-1.092.473-2.211 1.02-3.358 1.339l-6.45-18.354c-.454-1.345-.92-2.685-1.4-4.021-.265-.737-.613-1.51-.798-2.269-.388-1.348-.96-2.667-1.39-4.007-.079-.494-.346-1.049-.514-1.527 2.568-2.88 4.952-5.923 7.515-8.807z" fill="#FDCC33"/><path d="M22.801 109.344c.246.718.437 1.461.65 2.19.307 1.129.553 2.422 1.015 3.489a347.1 347.1 0 0 0-4.91 5.889c-.746.9-1.482 2.009-2.366 2.773-.388-1.348-.96-2.667-1.39-4.007-.079-.494-.346-1.049-.514-1.527 2.568-2.88 4.952-5.923 7.515-8.807z" fill="#FEFEFE"/><path d="M22.801 109.344c.246.718.437 1.461.65 2.19a191.547 191.547 0 0 0-4.436 4.739c-1.039 1.146-2.047 2.389-3.214 3.405-.08-.494-.347-1.049-.515-1.527 2.568-2.88 4.952-5.923 7.515-8.807z" fill="#FDCC33"/><path d="M23.568 101.558c1.442-.43 2.875-.89 4.298-1.38.334 1.236.681 2.457 1.12 3.661l1.336 4.063c.746 2.567 1.683 5.076 2.514 7.616a1095.95 1095.95 0 0 0 5.608 16.969l1.996 5.948c.41 1.224.87 2.457 1.18 3.71a371.53 371.53 0 0 1-3.822 1.426c-.507-1.178-.891-2.416-1.31-3.628l-1.828-5.242-5.608-16.306c-.895-2.642-1.73-5.31-2.667-7.937a226.079 226.079 0 0 1-1.268-4.127c-.457-1.599-1.038-3.189-1.55-4.773z" fill="#FEFEFE"/><path d="M23.568 101.558c1.442-.43 2.875-.89 4.298-1.38.334 1.236.681 2.457 1.12 3.661-1.265.852-2.525 1.768-3.869 2.492-.457-1.599-1.038-3.189-1.55-4.773z" fill="#FEFEFE"/><path d="M25.119 106.331c1.343-.724 2.603-1.64 3.869-2.492l1.336 4.063-3.938 2.556a227.663 227.663 0 0 1-1.267-4.127z" fill="#FDCC33"/><path d="M26.39 112.93c.181.167.251.454.334.683 1.302 3.591 2.467 7.248 3.694 10.867a1097.99 1097.99 0 0 0 5.21 14.984c.508 1.436.856 3.137 1.554 4.478.132.253.224.329.502.405.595.161 2.783 3.188 3.287 3.849-2.812.114-5.634.073-8.448.106-1.528.03-3.055.026-4.582-.01 1.208-.58 2.479-1.051 3.708-1.587 1.322-.578 2.613-1.23 3.913-1.855-2.391-6.236-4.456-12.619-6.611-18.94-1.215-3.562-2.645-7.102-3.705-10.709.447-.729.729-1.528 1.144-2.271z" fill="#FEFEFE"/><path d="M41.325 143.042c.183.435.022 3.757.015 4.431l-1.265-1.55a30.861 30.861 0 0 1-1.496-1.884c.918-.327 1.833-.659 2.746-.997zM23.488 143.755c.427.824.77 1.935.984 2.838.107.451.278 1.289.022 1.703l-.176.029-1.38-.035c.167-1.513.35-3.025.55-4.535z" fill="#FEFEFE"/><path d="M122.983 22.441c1.813.777 4.665 3.047 6.325 4.333a79.47 79.47 0 0 1 2.962 2.413 80.72 80.72 0 0 1 1.905 1.69 75.025 75.025 0 0 1 6.201 6.399 79.653 79.653 0 0 1 1.629 1.958 79.817 79.817 0 0 1 1.562 2.011 74.475 74.475 0 0 1 3.603 5.249 68.385 68.385 0 0 1 1.946 3.288 69.952 69.952 0 0 1 1.778 3.382 79.566 79.566 0 0 1 1.089 2.301 70.978 70.978 0 0 1 1.011 2.338c.162.392.321.786.476 1.181a73.585 73.585 0 0 1 3.489 11.112 74.92 74.92 0 0 1 1.073 5.728 73.935 73.935 0 0 1 .617 5.795c.073 1.078.324 2.493.115 3.54-.13.156-.161.195-.347.267-.18-.112-.225-.195-.275-.404-.159-.66-.066-1.452-.082-2.134-.016-.674-.085-1.352-.14-2.024a76.222 76.222 0 0 0-1.328-9.22c-4-18.533-14.991-35.911-30.769-46.622-1.024-.695-2.115-1.336-3.09-2.095.091-.156.168-.324.25-.486z" fill="#000"/></svg>