<svg width="177" height="177" fill="none" xmlns="http://www.w3.org/2000/svg"><g clip-path="url(#a)"><path d="M59.523 149.611a8.083 8.083 0 0 1-.716-.622c-1.01-.984-1.503-2.015-1.519-3.439-.071-6.482.043-12.981.07-19.464l.012-25.215-.037-14.257c-.005-1.862-.178-4.633.032-6.409.113-.96.571-1.745 1.245-2.423.532-.536 1.266-.99 2.026-1.087 1.784-.227 3.727-.092 5.529-.093l10.302.003 34.208.036c5.752.145 11.538.015 17.293.013l13.065-.013c2.003 0 4.015.047 6.017.01l4.497-.007c1.086-.004 2.291-.12 3.355.115.813.18 1.623.596 2.213 1.188.545.546.987 1.38 1.089 2.143.102.767.048 1.605.051 2.378l.007 4.476.013 15.075.033 25.034a648.7 648.7 0 0 1-.028 14.43c-.013 1.258.047 2.52.013 3.777-.037 1.41-.361 2.761-1.427 3.765a9.087 9.087 0 0 1-.65.541c1.267.003 10.181-.12 10.774.186.238 1.106.102 4.621-.494 5.552a3.706 3.706 0 0 1-.515.61l11.02.01v.708l-116.661.038-34.452.148c-3.606-.014-7.243.101-10.845-.029-.588-.021-1.107-.1-1.607-.432-.677-.45-1.17-1.11-1.302-1.925-.15-.938-.064-1.994-.062-2.943l.009-5.286c-.002-3.003.005-30.296-.044-30.397-.105-.217-.322-.123-.378-.466-.06-.356-.04-3.014.057-3.184.045-.079.11-.144.164-.217.063-.085.178-.224.207-.324.067-.234-.197-3.028-.204-3.518-.004-.36.187-.696.139-1.047-.045-.322-.288-.586-.32-.917-.08-.828-.127-2.007.04-2.815.058-.285.293-.273.32-.575.097-1.085-.221-2.032.628-2.937a1.967 1.967 0 0 1 1.06-.594c1.268-.246 2.835-.085 4.138-.084 2.65.008 5.302.002 7.952-.018l7.287-.008 7.664.017c1.28 0 2.686-.121 3.945.074.389.06.69.174 1.02.39.475.312.89.835.973 1.412.204 1.397.043 3.029.056 4.452.026 3.119.132 6.253.082 9.37-.023 1.42-.198 2.819-.194 4.249.076 8.053.103 16.105.082 24.157l.008 7.03c.005 1.323.073 2.682-.024 4.001-.054.72-.418 1.207-.844 1.759 1.321.118 2.682.054 4.007.018-.256-.33-.477-.67-.605-1.072-.41-1.287-.277-3.95-.143-5.32 1.276-.063 2.572-.016 3.85-.015l6.519-.013z" fill="#080717"/><path d="M61.94 88.256c4.183-.142 8.413-.023 12.6-.027l27.375.022 33.526-.008c5.809-.002 11.646-.134 17.451.003.407.01.689.058 1.062.224.782.35 1.288.822 1.568 1.649.461 1.36.207 5.521.208 7.177l-.001 11.18-.047 22.668c-.01 2.992.061 5.993.004 8.984-.009.479-.034.981-.273 1.408-.349.624-.978.891-1.637 1.068-4.706.117-9.445-.005-14.154-.005l-27.333.049-33.874-.016c-5.418-.015-10.86.117-16.275-.038-.354-.01-.699-.05-1.024-.201-.529-.246-.923-.745-1.097-1.298-.305-.968-.1-4.743-.095-5.998l.033-11.94.015-22.165c.003-3.282-.113-6.596-.013-9.872.019-.607.064-1.282.383-1.812.37-.615.924-.888 1.597-1.052z" fill="#fff"/><path d="M65.567 93.716c3.597-.092 7.21-.032 10.81-.036l17.153.024c-.01 4.419-.184 8.978.034 13.382-9.325.105-18.662.024-27.989.027-.073-1.838-.02-3.7-.023-5.541-.005-2.617-.047-5.24.015-7.856z" fill="#080717"/><path d="m75.817 102.111 11.742-.036c.942-.003 3.204-.17 4.012.018.248.057.36.149.488.363l-.068.185c-.173.122-.32.191-.53.216-.706.085-1.496.029-2.212.031l-4.464-.006c-3.54-.025-7.08-.027-10.621-.004l-3.226.024c-.656.009-1.372.079-2.023.001-.326-.039-.511-.125-.718-.381l.038-.18c.437-.382 6.6-.225 7.582-.231zM68.272 98.012c3.61-.138 7.267-.026 10.88-.032 2.728-.004 5.797-.148 8.489-.004a.573.573 0 0 1 .308.114c.132.216.113.324.093.566-1.634.186-19.157.157-19.599-.028-.19-.234-.158-.321-.17-.616z" fill="#fff"/><path d="M76.384 116.633a10.88 10.88 0 0 1 1.533-.047 10.885 10.885 0 0 1 1.524.179 10.643 10.643 0 0 1 .993.243c.164.048.326.101.487.158a10.091 10.091 0 0 1 1.406.613 10.77 10.77 0 0 1 1.3.814 10.756 10.756 0 0 1 1.522 1.364 10.878 10.878 0 0 1 .654.788 10.812 10.812 0 0 1 .827 1.292 10.942 10.942 0 0 1 .442.922 10.582 10.582 0 0 1 .603 1.953 10.253 10.253 0 0 1 .21 2.033 10.51 10.51 0 0 1-.302 2.535 10.6 10.6 0 0 1-.475 1.459 10.165 10.165 0 0 1-.433.926 10.403 10.403 0 0 1-1.813 2.465 10.455 10.455 0 0 1-4.337 2.62 10.558 10.558 0 0 1-2.003.405 10.828 10.828 0 0 1-1.53.043 10.837 10.837 0 0 1-1.017-.097 10.755 10.755 0 0 1-1.495-.331 10.268 10.268 0 0 1-2.333-1.024 10.572 10.572 0 0 1-1.255-.876 10.68 10.68 0 0 1-1.113-1.052 9.907 9.907 0 0 1-.65-.786 10.326 10.326 0 0 1-.825-1.29 10.8 10.8 0 0 1-.44-.921 10.768 10.768 0 0 1-.488-1.452 10.432 10.432 0 0 1 .654-6.981 10.222 10.222 0 0 1 .748-1.336 10.407 10.407 0 0 1 2.855-2.887 10.587 10.587 0 0 1 2.269-1.158 10.392 10.392 0 0 1 2.482-.574z" fill="#080717"/><path d="M76.224 117.318a9.554 9.554 0 0 1 1.912-.054 9.507 9.507 0 0 1 1.42.205 10.544 10.544 0 0 1 .925.252 10.338 10.338 0 0 1 .894.342 9.824 9.824 0 0 1 2.054 1.22 9.884 9.884 0 0 1 1.982 2.067 9.152 9.152 0 0 1 .515.807 9.789 9.789 0 0 1 1.04 2.667 9.533 9.533 0 0 1 .217 1.42 9.618 9.618 0 0 1-.04 1.912 9.551 9.551 0 0 1-.274 1.409 9.986 9.986 0 0 1-.478 1.354 10.056 10.056 0 0 1-.672 1.269 10.016 10.016 0 0 1-.85 1.156 9.79 9.79 0 0 1-3.424 2.561 9.934 9.934 0 0 1-1.814.608 10.677 10.677 0 0 1-.943.167 9.519 9.519 0 0 1-1.434.077 9.56 9.56 0 0 1-.956-.067 9.487 9.487 0 0 1-1.41-.274 10.39 10.39 0 0 1-.91-.297 10.143 10.143 0 0 1-.878-.385 9.546 9.546 0 0 1-1.992-1.319 10.43 10.43 0 0 1-.696-.658 9.198 9.198 0 0 1-.629-.723 9.591 9.591 0 0 1-1.237-2.045 9.457 9.457 0 0 1-.348-.892 9.87 9.87 0 0 1-.426-1.865 9.753 9.753 0 0 1 1.965-7.208 8.998 8.998 0 0 1 .623-.728 10.21 10.21 0 0 1 .691-.663 9.155 9.155 0 0 1 1.15-.86 10.629 10.629 0 0 1 .832-.475 9.832 9.832 0 0 1 3.19-.98z" fill="#fff"/><path d="M74.847 122.597c.14.013.242.018.372.077.638.287 5.738 3.594 6.163 4.045.189.2.308.357.293.634-.591.789-1.936 1.33-2.777 1.843-.586.365-3.56 2.399-4.03 2.303-.252-.312-.347-.649-.412-1.041-.133-.805-.07-1.692-.076-2.508-.01-1.305-.04-2.615-.02-3.919.011-.71-.034-.925.487-1.434z" fill="#FDCC33"/><path d="M139.132 91.17c.35 0 .722.02 1.029.209.284.175.358.418.425.725.032.148.059.374.118.508.183.42 6.762 6.647 7.674 7.531.598-.004.962.021 1.45.403.204.159.39.375.39.65-.001.291-.211.584-.418.774a1.492 1.492 0 0 1-1.101.398.861.861 0 0 1-.639-.322c-.28-.35-.211-.89-.149-1.295l.018-.112c-.748-1.024-2.108-2.058-3.053-2.96-1.539-1.467-3.029-2.995-4.552-4.48l-.066.028-.111.044c-.434.174-.715.235-1.166.07l-.077-.03c-.55.46-1.016 1.056-1.501 1.585l-2.702 2.947-5.695 6.339c-.663.731-1.398 1.411-2.047 2.148-.458.522-.306 1.324-.766 1.79-.215.218-.631.36-.935.351a.693.693 0 0 1-.548-.254c-.343-.381-.388-.81-.343-1.295-.748-.72-1.448-1.494-2.184-2.228-1.679-1.676-3.375-3.332-5.013-5.047-.246.06-.444.114-.665.245-.581 1.167-1.271 4.102-1.682 5.478-.339 1.136-.825 2.304-1.053 3.459.082.195.183.408.216.617.038.23-.043.46-.174.647a1.07 1.07 0 0 1-.24.251 1.022 1.022 0 0 1-.198.121 1.103 1.103 0 0 1-.333.1 1.055 1.055 0 0 1-.852-.245c-.304-.27-.392-.744-.616-1.079-.528-.79-1.545-1.697-2.326-2.239l-.098-.067c-.48.163-1.082-.016-1.481.21-.866.488-1.665 1.551-2.363 2.278l-4.479 4.604c-.608.626-1.2 1.394-1.858 1.953a1.248 1.248 0 0 1-.563.271l-.136-.092c-.028-.678 1.253-1.729 1.739-2.241a446.715 446.715 0 0 1 5.408-5.519c.403-.409 1.652-1.528 1.877-1.941.193-.353.011-.836.33-1.209a.956.956 0 0 1 .621-.31c.37-.043.759.068 1.024.337.305.309.118.777.347 1.099.561.788 1.793 1.634 2.543 2.274.298-.144.594-.111.891-.259.591-.819 2.369-7.277 2.887-8.821-.181-.234-.324-.438-.369-.734-.052-.335.041-.713.276-.964.22-.235.551-.341.868-.326.557.027.819.288 1.175.687l-.128.987c.717.832 6.452 6.724 6.987 7.007.04.021.203.042.224.043.848.065 1.095.051 1.673-.532 2.266-2.286 4.342-4.776 6.512-7.153 1.553-1.701 3.761-3.86 5.062-5.681.172-.24.255-.372.249-.677a2.321 2.321 0 0 1 .04-.52c.156-.232.304-.336.541-.483l.086-.052z" fill="#080717"/><path d="M116.495 98.222a.648.648 0 0 1 .089-.034.568.568 0 0 1 .142-.019.515.515 0 0 1 .23.06.431.431 0 0 1 .079.054.482.482 0 0 1 .121.147l.021.043a.683.683 0 0 1 .028.09.38.38 0 0 1 .011.096l-.001.047-.006.048a.75.75 0 0 1-.026.092.615.615 0 0 1-.043.086.35.35 0 0 1-.058.075.536.536 0 0 1-.112.09.493.493 0 0 1-.611-.085.417.417 0 0 1-.078-.107.453.453 0 0 1-.058-.19.489.489 0 0 1 .116-.37.49.49 0 0 1 .156-.123zM124.989 106.856c.291.032.614.029.851.216.084.271.024.366-.053.635-.077.02-.178.05-.256.055-.239.017-.306-.017-.486-.152-.113-.264-.081-.477-.056-.754zM148.724 100.798a.645.645 0 0 1 .062-.021.72.72 0 0 1 .064-.012.729.729 0 0 1 .066-.003.458.458 0 0 1 .299.115c.017.015.032.03.047.046a.64.64 0 0 1 .071.11c.01.019.018.04.024.061a.496.496 0 0 1 .019.194.658.658 0 0 1-.012.064.46.46 0 0 1-.236.3.417.417 0 0 1-.166.052l-.043.004-.044-.001-.044-.005a.315.315 0 0 1-.042-.009l-.042-.013a.282.282 0 0 1-.079-.037l-.037-.023-.034-.027-.032-.03-.029-.033a.81.81 0 0 1-.048-.073.287.287 0 0 1-.018-.04l-.016-.041a.65.65 0 0 1-.011-.042l-.007-.043a.325.325 0 0 1-.003-.044l.001-.044a.63.63 0 0 1 .014-.086.338.338 0 0 1 .013-.042l.016-.04a.372.372 0 0 1 .044-.075l.027-.035a.453.453 0 0 1 .031-.031c.01-.011.021-.02.032-.029l.036-.026.038-.022c.012-.007.026-.013.039-.019zM108.166 105.648a.445.445 0 0 1 .226-.088c.02-.003.041-.003.061-.003a.6.6 0 0 1 .121.02.407.407 0 0 1 .112.051.441.441 0 0 1 .132.126.415.415 0 0 1 .056.109.436.436 0 0 1 .018.243.566.566 0 0 1-.015.059.407.407 0 0 1-.093.158c-.013.016-.028.03-.043.044a.56.56 0 0 1-.049.036c-.013.008-.025.016-.039.023a.287.287 0 0 1-.04.018.3.3 0 0 1-.042.015c-.014.004-.028.008-.043.01l-.043.007a.677.677 0 0 1-.089 0 .67.67 0 0 1-.087-.017.352.352 0 0 1-.042-.015.352.352 0 0 1-.078-.041c-.012-.008-.024-.016-.036-.026a.456.456 0 0 1-.033-.029l-.031-.032-.027-.035a.48.48 0 0 1-.059-.119l-.012-.042a.67.67 0 0 1-.011-.088l.001-.044a.688.688 0 0 1 .014-.088.345.345 0 0 1 .014-.042.372.372 0 0 1 .038-.08c.008-.012.016-.025.025-.036.009-.012.018-.024.028-.034l.031-.032.035-.028zM139.241 91.95a.39.39 0 0 1 .076-.044.53.53 0 0 1 .126-.035.465.465 0 0 1 .255.043.406.406 0 0 1 .138.106.463.463 0 0 1 .072.11.57.57 0 0 1 .028.083.319.319 0 0 1 .008.043.32.32 0 0 1 .004.043v.044a.629.629 0 0 1-.014.086.612.612 0 0 1-.03.082 1.43 1.43 0 0 1-.045.075.5.5 0 0 1-.028.034l-.031.03-.034.028a.492.492 0 0 1-.16.075.452.452 0 0 1-.471-.174.366.366 0 0 1-.031-.05.366.366 0 0 1-.042-.11.385.385 0 0 1-.011-.118c0-.02.002-.04.006-.06a.382.382 0 0 1 .034-.112.507.507 0 0 1 .104-.142.535.535 0 0 1 .046-.038zM112.756 109.176a.339.339 0 0 1 .055-.013.346.346 0 0 1 .169.006c.019.005.037.01.054.018a.355.355 0 0 1 .14.095.383.383 0 0 1 .088.144.494.494 0 0 1 .023.111.543.543 0 0 1-.026.167.49.49 0 0 1-.055.099.31.31 0 0 1-.037.043c-.013.014-.028.026-.043.038a.388.388 0 0 1-.099.054.36.36 0 0 1-.11.025l-.037.002a.459.459 0 0 1-.037-.002l-.036-.005-.036-.009a.242.242 0 0 1-.035-.012.24.24 0 0 1-.033-.015.52.52 0 0 1-.063-.038l-.028-.024a.319.319 0 0 1-.05-.054.39.39 0 0 1-.021-.03l-.018-.032a.24.24 0 0 1-.015-.033.242.242 0 0 1-.012-.035.237.237 0 0 1-.009-.036.435.435 0 0 1-.008-.073l.001-.036a.42.42 0 0 1 .012-.073l.011-.035a.488.488 0 0 1 .051-.097.325.325 0 0 1 .023-.029l.025-.027c.009-.008.018-.017.028-.024a.315.315 0 0 1 .029-.022l.032-.019a.342.342 0 0 1 .067-.029z" fill="#fff"/><path d="m148.907 135.921-.003-22.107c-.003-.999-.137-6.82-.001-7.288.062-.211.117-.234.294-.329l.164.106c.125.275.162.533.174.834.054 1.344-.002 2.709.004 4.055l.035 9.45-.026 9.479c-.004 2.151.047 4.319-.047 6.468-1.428.122-2.928.026-4.364.025l-7.884.016-27.723.019c-1.27-.001-8.215.15-8.996-.109-.108-.274-.14-.538-.156-.831-.053-.969 0-1.957 0-2.929l.013-6.281c.01-1.124.007-2.247-.01-3.371-.014-.773-.085-1.588-.027-2.358.021-.276.015-.43.199-.634.211-.024.206-.023.383.094.241.676.092 13.495.094 15.715 1.749.05 3.507.018 5.257.022 1.93.098 3.882.055 5.814.048 1.501-.006 3.024.04 4.521-.047l2.048-.005 1.022.005 9.478-.001 1.061.002c2.953-.001 5.934.086 8.883-.021.463-.052.851-.078 1.315.001 2.826-.03 5.652-.039 8.478-.028z" fill="#080717"/><path d="m139.115 135.948.028-23.104.004-7.015c0-.882-.095-1.795-.039-2.672.021-.321.057-.653.277-.903.106-.122.173-.107.322-.14.215.083.319.13.43.343.134.256.148.598.159.881.032.862-.038 1.738-.039 2.602l.025 6.301-.014 19.743c-.002.591-.127 3.359-.012 3.75.025.088.097.17.173.215-.464-.08-.852-.053-1.314-.001zM129.171 135.967c-.056-4.33.021-8.66.019-12.991l.003-6.123c-.002-.716-.07-1.437-.053-2.151.006-.246.031-.601.18-.809.079-.111.167-.17.301-.174.178-.005.258.05.406.135.143.195.208.347.232.591.053.537-.02 1.124-.02 1.668l-.001 4.577-.006 15.279-1.061-.002zM118.672 135.963c.041-4.341.051-8.682.03-13.023l-.014-4.339c-.006-.754-.071-1.534-.021-2.286.024-.357.089-.695.274-1.005l.31-.079c.305.27.43.666.462 1.066.044.562-.021 1.152-.024 1.718l-.001 3.674c.001 4.755-.076 9.525.005 14.279l-1.021-.005zM108.44 135.949l.017-13.284c.007-1.816-.081-3.678.005-5.488.014-.298.043-.562.153-.841.181-.149.209-.193.438-.218.245.169.312.388.362.668.243 1.357.039 3.3.046 4.709l-.05 14.454c2.237-.006 5.029-.165 7.213.018-1.497.088-3.02.042-4.522.047-1.931.008-3.884.051-5.813-.047a44.076 44.076 0 0 1 2.151-.018zM15.55 128.624c5.26-.165 10.566-.042 15.828-.052l7.451-.002c1.325.001 2.68-.055 4.002.028.352.023.752.049 1.04.268.161.368.197.758.21 1.156.056 1.731.004 3.482.003 5.214l.01 10.341.034 5.315c.007.939.12 2.052-.073 2.966l-.329.206c-1.505.057-3.031-.001-4.537-.009l-8.69-.035c-5.07-.008-10.322.163-15.37.008-.16-5.022-.016-10.09-.032-15.116l-.01-6.473c.004-1.03-.064-2.139.052-3.161.04-.34.164-.45.412-.654z" fill="#FDCC33"/><path d="M41.693 149.989c-4.574.104-9.161.055-13.737.067-2.963.008-5.983.139-8.941.004-.346-.015-.765-.046-1.082-.186-.135-.059-.163-.084-.206-.228-.193-.645-.005-3.372-.006-4.217-.006-3.671-.199-7.372-.01-11.039.012-.249.018-.502.155-.717.253-.157.467-.201.766-.216 1.719-.084 3.476-.017 5.198-.016 3.199-.006 6.398.005 9.596.035l5.025.037c1.046.007 2.123-.036 3.16.1.402.506.18 5.908.177 6.846.167.183.275.319.276.586a.6.6 0 0 1-.168.422c-.214.606-.124 7.164-.203 8.522z" fill="#fff"/><path d="M33.063 136.097a53.765 53.765 0 0 1 2.373 3.375c.544.83 1.044 1.711 1.682 2.473.62-.811 1.99-3.364 2.835-3.658.652.272 1.392 1.581 1.835 2.172.167.182.275.319.276.586a.6.6 0 0 1-.168.422c-.721-.733-1.35-1.596-1.998-2.396-.965 1.324-1.826 2.762-2.883 4.013-.655-.821-1.183-1.84-1.758-2.725-.715-1.1-1.51-2.148-2.296-3.198-1.775 2.144-3.473 4.349-5.25 6.491-1.434-1.034-2.68-2.297-4.137-3.312-.852.681-4.81 4.625-5.471 4.673-.091-.144-.101-.104-.091-.251a.637.637 0 0 1 .177-.428c.459-.475 1.053-.884 1.543-1.342 1.28-1.197 2.524-2.435 3.826-3.607 1.17 1.168 2.764 2.379 4.088 3.383l3.173-3.959c.72-.907 1.42-1.898 2.244-2.712zM20.313 136.379c.282-.008.555-.041.82.07.16.238.1.577.087.855-.277.011-.641.076-.875-.086-.134-.254-.058-.563-.032-.839zM23.392 136.419c.184-.007.368-.008.552-.008.214.144.24.168.347.402-.04.215-.046.346-.205.509-.138.007-.325.033-.459.003-.227-.05-.268-.12-.384-.299a1.59 1.59 0 0 1 .149-.607zM35.343 146.083c.27-.011.5-.027.762.058.158.278.107.555.104.869-.272.009-.548.052-.797-.076-.138-.281-.082-.543-.069-.851zM38.454 146.138c.273-.013.504-.029.77.05.152.273.108.547.11.855-.265.013-.523.053-.772-.057-.176-.244-.116-.56-.108-.848z" fill="#080717"/><path d="M32.116 143.038c.268-.01.544-.054.789.074.147.236.096.523.087.791-.273.008-.534.042-.787-.076-.166-.237-.106-.515-.09-.789z" fill="#080717"/><path d="m78.427 150.25 87.929.01c.006 1.335.347 3.934-.619 4.925-.308.316-.775.626-1.219.698-.915.148-1.937.079-2.865.08l-5.227.006-18.708.008-57.76-.023-18.857-.003-5.963.021c-1.221.006-2.46.061-3.68-.021-.44-.03-.75-.152-1.06-.478-.97-1.022-.625-3.797-.62-5.173l28.65-.05z" fill="#C3D1E2"/><path d="M24.212 121.163c-.337-.042-.793-.614-1.006-.891-1.2-1.566-1.751-3.812-1.474-5.755.287-2.017 1.504-3.845 3.121-5.055 1.613-1.206 3.59-1.676 5.58-1.389 1.96.283 3.887 1.367 5.08 2.959 1.212 1.621 1.748 3.833 1.45 5.83-.179 1.201-1.061 3.462-2.086 4.183-.037.026-.08.04-.12.06-.674-1.241-1.484-2.311-2.793-2.935-1.395-.664-3.126-.757-4.576-.216-1.486.553-2.535 1.798-3.176 3.209z" fill="#fff"/><path d="M29.07 111.42a2.021 2.021 0 0 1 .22-.026 2.047 2.047 0 0 1 .222-.004 2.048 2.048 0 0 1 .33.034l.109.022a3.843 3.843 0 0 1 .213.06 3.588 3.588 0 0 1 .206.081l.1.047a3.267 3.267 0 0 1 .193.11 1.896 1.896 0 0 1 .181.128 2.772 2.772 0 0 1 .168.145 1.799 1.799 0 0 1 .152.16 2.295 2.295 0 0 1 .545 1.308 2.171 2.171 0 0 1-.008.443 2.268 2.268 0 0 1-1.838 1.967 2.472 2.472 0 0 1-.297.036 2.488 2.488 0 0 1-.595-.047 1.831 1.831 0 0 1-.146-.036 1.799 1.799 0 0 1-.282-.1 2.23 2.23 0 0 1-.512-.306 2.479 2.479 0 0 1-.322-.312 2.29 2.29 0 0 1-.446-2.109 2.29 2.29 0 0 1 .849-1.201 2.094 2.094 0 0 1 .253-.159 3.024 3.024 0 0 1 .272-.124c.047-.018.094-.034.142-.048.047-.015.096-.028.144-.039.049-.012.098-.022.147-.03z" fill="#080717"/><path d="m29.238 112.027.08-.008c.026-.002.053-.003.08-.003a1.064 1.064 0 0 1 .16.004l.079.008.079.012a2.009 2.009 0 0 1 .232.059l.075.027a1.85 1.85 0 0 1 .285.144c.023.015.045.029.066.045a1.727 1.727 0 0 1 .241.209 1.583 1.583 0 0 1 .31.463 1.887 1.887 0 0 1 .08.225 1.851 1.851 0 0 1 .056.314 1.86 1.86 0 0 1-.008.32 1.863 1.863 0 0 1-.046.235 1.83 1.83 0 0 1-.114.298 1.456 1.456 0 0 1-.123.206c-.015.021-.03.043-.047.064a1.513 1.513 0 0 1-.219.232 3.714 3.714 0 0 1-.126.099l-.066.045a1.745 1.745 0 0 1-.21.114l-.074.031-.075.027-.076.024a2.078 2.078 0 0 1-.078.019c-.026.006-.052.012-.078.016a2.13 2.13 0 0 1-.16.021c-.026.002-.053.004-.08.004l-.08.001c-.027 0-.053-.002-.08-.003a2.144 2.144 0 0 1-.24-.035 1.064 1.064 0 0 1-.154-.042 1.882 1.882 0 0 1-.15-.057 1.86 1.86 0 0 1-.214-.113 1.76 1.76 0 0 1-.194-.143 1.661 1.661 0 0 1-.17-.169 1.53 1.53 0 0 1-.29-.48 1.923 1.923 0 0 1-.07-.231 1.838 1.838 0 0 1-.04-.319 1.778 1.778 0 0 1 .023-.32 1.471 1.471 0 0 1 .059-.234 1.582 1.582 0 0 1 .172-.363l.044-.067.048-.064a1.62 1.62 0 0 1 .557-.454 1.946 1.946 0 0 1 .147-.065 1.109 1.109 0 0 1 .153-.05 2.02 2.02 0 0 1 .157-.035l.08-.011zM24.816 121.431c.576-1.318 1.332-2.274 2.719-2.817 1.27-.497 2.808-.504 4.058.055 1.256.563 1.862 1.536 2.523 2.68l.068.283a.71.71 0 0 1-.274.404c-1.56 1.19-3.46 1.561-5.366 1.323-1.047-.13-3.073-.638-3.701-1.535-.109-.154-.054-.215-.027-.393zM26.616 99.684c2.013-.058 4.066-.093 6.077.005.128.053.269.108.382.19.197.144.287.351.34.582-.055.238-.1.284-.266.469-.898.344-6.063.437-6.955.099-.256-.098-.42-.217-.529-.478a.706.706 0 0 1 .112-.41c.192-.33.495-.392.84-.457z" fill="#fff"/><path d="M144.361 71.632a371.185 371.185 0 0 0-7.595-.06c-1.188-.003-2.577.141-3.735-.072a1.809 1.809 0 0 1-.772-.342 1.818 1.818 0 0 1-.213-.188c-.297-.313-.331-1.086-.361-1.515-.082-1.14-.032-2.318-.035-3.462l-.009-6.486-.005-5.821c-.003-1.217-.06-2.466.035-3.678.047-.597.204-.947.668-1.34.353-.299.761-.313 1.204-.344 1.418-.099 2.871-.03 4.294-.028l7.962.014 9.728.005c1.713-.002 3.446-.061 5.156.005.526.307 1.205.702 1.354 1.345.182.787.073 1.82.071 2.628l-.006 4.655.027 8.34c.005 1.431.088 2.918-.004 4.345-.024.366-.105.727-.307 1.04-.336.52-.768.732-1.361.841-1.198.221-2.528.122-3.746.117-2.373-.008-4.756-.068-7.129-.032-.816 1.695-1.984 3.531-2.768 5.238-.898-1.616-1.512-3.619-2.453-5.205z" fill="#FDCC33"/><path d="M145.666 51.993a8.148 8.148 0 0 1 1.226-.073 8.52 8.52 0 0 1 1.222.108 8.404 8.404 0 0 1 1.961.573 8.897 8.897 0 0 1 .735.361 8.561 8.561 0 0 1 1.027.672 7.89 7.89 0 0 1 .917.816 8.293 8.293 0 0 1 1.017 1.28 7.996 7.996 0 0 1 .588 1.078 7.497 7.497 0 0 1 .301.761c.044.13.085.26.123.391a8.919 8.919 0 0 1 .249 1.202 7.946 7.946 0 0 1 .067.816 9.318 9.318 0 0 1-.014.819 7.953 7.953 0 0 1-.094.813 7.853 7.853 0 0 1-.173.8 8.843 8.843 0 0 1-.251.78 8.51 8.51 0 0 1-1.192 2.139 7.73 7.73 0 0 1-.531.623 8.13 8.13 0 0 1-1.231 1.076 8.121 8.121 0 0 1-1.049.637 8.905 8.905 0 0 1-.747.337 8.436 8.436 0 0 1-1.573.445 8.582 8.582 0 0 1-1.219.127 8.538 8.538 0 0 1-1.222-.053 8.195 8.195 0 0 1-1.593-.348 8.98 8.98 0 0 1-.763-.289 8.167 8.167 0 0 1-1.423-.794 8.385 8.385 0 0 1-1.518-1.356 8.532 8.532 0 0 1-.507-.64 7.881 7.881 0 0 1-.442-.686 8.282 8.282 0 0 1-.978-2.67 9.128 9.128 0 0 1-.107-.81 9.231 9.231 0 0 1-.026-.815 7.92 7.92 0 0 1 .109-1.218 9.084 9.084 0 0 1 .172-.798c.036-.132.074-.262.115-.392a8.59 8.59 0 0 1 .648-1.496 8.045 8.045 0 0 1 .926-1.341 8.247 8.247 0 0 1 1.495-1.382 8.789 8.789 0 0 1 .685-.443 8.284 8.284 0 0 1 2.667-.986 8.39 8.39 0 0 1 .403-.064z" fill="#fff"/><path d="M145.024 57.432c1.775.897 3.539 2.065 5.169 3.206-.579.366-1.175.71-1.763 1.064-1.116.663-2.24 1.312-3.372 1.947l-.034-6.217z" fill="#080717"/><path d="M0 155.98c1.301-.003 8.757-.179 9.38.063.139.179.124.175.106.403-.18.169-.326.166-.573.183-.873.061-1.796-.019-2.673-.022-2.077-.006-4.164-.007-6.24.057v-.684z" fill="#fff"/><path d="M61.14 20.485a26.723 26.723 0 0 1 15.023 3.79 26.64 26.64 0 0 1 6.048 4.975 26.98 26.98 0 0 1 2.413 3.098 26.743 26.743 0 0 1 4.2 10.915 26.886 26.886 0 0 1 .287 3.916 26.603 26.603 0 0 1-.803 6.484 26.76 26.76 0 0 1-3.698 8.342 26.71 26.71 0 1 1-23.47-41.52z" fill="#080717"/><path d="m60.55 21.042.267-.011c.024.198-1.968 1.902-2.21 2.145-3.813 3.844-7.766 9.538-9.18 14.826-.829.34-1.71.56-2.545.894-3.892 1.556-7.535 3.748-10.109 7.123l-.101.136-.096.005c-.007-.033-.015-.066-.02-.099-.076-.654.133-1.517.232-2.18.712-4.752 2.78-9.64 5.833-13.352 4.596-5.59 10.746-8.786 17.93-9.487zM64.177 21.075c.81-.033 1.717.123 2.518.251 4.636.745 9.13 3.023 12.648 6.112 5.57 4.89 8.504 11.484 8.957 18.826-.105-.084-.066-.04-.146-.155-2.992-4.237-7.99-6.725-12.804-8.33a39.273 39.273 0 0 0-2.533-5.816 39.274 39.274 0 0 0-3.441-5.33 38.964 38.964 0 0 0-5.199-5.558zM60.184 36.767c.675-.062 1.367-.039 2.045-.043l-.027 11.596-11.6-.007-2.222-.004c-.01-3.365.691-6.548 1.596-9.771 3.389-1.034 6.684-1.507 10.208-1.771zM53.854 48.96c2.795-.008 5.59.002 8.384.029l-.034 11.454c-1.745-.014-3.467-.152-5.204-.314-2.395-.304-4.812-.709-7.12-1.431-1.066-3.18-1.48-6.366-1.524-9.709 1.827-.057 3.67-.022 5.498-.029zM62.89 36.722c4.062.008 7.959.62 11.884 1.649 1.415 2.998 1.796 6.67 1.816 9.95l-13.716.008c-.1-3.857.023-7.747.015-11.607zM62.897 49c4.55-.093 9.133-.058 13.685-.003a31.634 31.634 0 0 1-1.738 9.757c-.425.186-.957.278-1.41.395-3.4.882-7.042 1.24-10.548 1.268L62.897 49zM36.642 50.947c.611.316 1.805 1.989 2.373 2.54 2.746 2.66 6.536 4.597 10.189 5.68 1.6 4.71 4.48 9.31 8.473 12.353.83.632 1.725 1.147 2.626 1.668-4.7-.096-10.36-2.639-13.997-5.49-5.215-4.089-8.85-10.152-9.664-16.75zM88.048 51.166c.043.048.052.147.05.206-.016.683-.288 1.47-.463 2.132a25.803 25.803 0 0 1-.959 2.987 26.194 26.194 0 0 1-2.514 4.873 25.971 25.971 0 0 1-2.395 3.103c-4.133 4.662-10.652 8.217-16.927 8.61l-.049-.022c.03-.161.603-.434.767-.536a16.566 16.566 0 0 0 2.923-2.281c3.186-3.07 5.296-6.813 6.909-10.89 4.789-1.424 9.808-3.967 12.658-8.182z" fill="#fff"/><path d="M62.046 20.995c.302.486.182 13.244.183 15.05-4.08-.012-7.823.593-11.76 1.622l-.16-.025c-.006-.057-.02-.113-.018-.17.02-.447.758-1.9.973-2.387 2.555-5.804 6.076-9.925 10.782-14.09zM62.866 21.023l.126.067c.906.5 1.794 1.462 2.52 2.195 3.667 3.698 7.575 9.276 9.016 14.333-3.857-1.02-7.641-1.574-11.639-1.583.01-5.003-.09-10.01-.023-15.012zM50.081 59.495c4.015.985 8 1.565 12.138 1.61-.007 3.985-.087 7.989.045 11.97-.737-.116-1.471-.427-2.13-.77-4.538-2.371-8.507-7.983-10.053-12.81zM74.469 59.662c.015.114.034.159-.006.269-.278.771-.678 1.514-1.038 2.25-2.303 4.715-5.724 8.714-10.54 10.938-.174-.615-.036-2.548-.035-3.282l.006-8.735c3.983-.128 7.717-.64 11.613-1.44zM75.674 38.623c.86.227 1.7.613 2.512.973 4.103 1.815 8.572 4.327 10.27 8.731a956.042 956.042 0 0 0-11.17-.01c-.014-3.399-.643-6.457-1.612-9.694zM49.002 38.905l.053.053c.054.374-.698 3.02-.822 3.665-.364 1.895-.503 3.767-.58 5.694l-11.158-.008-.062-.094c.014-.322.107-.557.256-.842.488-.934 1.262-1.784 2-2.523 2.862-2.863 6.483-4.724 10.313-5.945zM77.326 49c3.682-.022 7.376-.097 11.055-.004-.932 2.563-2.875 4.436-5.105 5.923-2.348 1.568-4.992 2.727-7.647 3.656.974-3.278 1.5-6.156 1.697-9.576zM42.084 48.96c1.856-.023 3.712-.017 5.567.019.04 3.414.556 6.171 1.388 9.466-1.322-.443-2.605-1.044-3.868-1.63-2.68-1.35-4.929-2.946-6.974-5.16-.51-.55-1.656-1.735-1.624-2.525.4-.343 4.697-.17 5.511-.17zM34.87 84.224l.337-.011c.149-.005.315-.023.462.007.207.041.335.19.435.364l-.049.15a1.178 1.178 0 0 1-.541.173c-1.03.099-2.142.016-3.18.017l-6.426.003c-.399.02-.815.1-1.15-.164-.143-.112-.098-.062-.125-.257.188-.184.39-.223.644-.252.956-.107 2.008-.008 2.975-.01l6.618-.02zM24.79 80.567c1.226-.02 10.883-.138 11.286.183.03.231.016.262-.082.476-2.19.074-4.4.02-6.591.02-1.38-.001-2.829.094-4.197-.022-.22-.019-.376-.025-.547-.18-.019-.225.025-.273.13-.477zM31.06 87.936c1.29-.014 3.728-.197 4.874.03.139.138.14.145.167.34l-.146.155c-.788.305-4.95.13-6.183.14-1.081 0-4.485.284-5.22-.314l.203-.262c1.302-.25 4.799-.071 6.305-.089z" fill="#fff"/></g><defs><clipPath id="a"><rect width="177" height="177" rx="8" fill="#fff"/></clipPath></defs></svg>