<svg width="174" height="175" fill="none" xmlns="http://www.w3.org/2000/svg"><path d="M87.683 78.966a3.07 3.07 0 0 1 .34-.199c.68-.36 2.659-1.48 3.334-1.275l.23-.036c.146.125.144.126.163.31.168 1.668-.444 4.304-1.562 5.59-.244.282-.525.531-.806.776l.015 1.105c1.27.88 2.63 1.147 4.134 1.384.778.058 1.572.097 2.34.232 2.233.799 3.708 3.885 4.668 5.922.465.986.894 1.989 1.339 2.983.251.55.605 1.16.739 1.746.186.794.749 2.525 1.23 3.134l.092.046c.718 1.477 1.51 3.588 1.534 5.22 1.835-.073 3.685-.035 5.522-.037l9.398-.022c2.932 3.151 5.71 6.465 8.545 9.704 1.042 1.19 2.034 2.453 3.138 3.583-.209.173-.331.178-.591.205-.506.106-1.02.194-1.508.368-.398.462-5.604 1.655-6.64 2.042.06 1.732.3 4.038.087 5.713l-.126.118c-.099.376-.096.725-.096 1.11.79.085 2.56.151 3.215.353-.029.237.026.242.157.433 2.2 3.202 4.572 6.301 6.851 9.448l14.943 20.816-118.67.009c3.582-5.908 7.456-11.64 11.2-17.447 1.067-1.657 2.31-3.251 3.3-4.947-4.833.889-11.38.34-16.173-.731-.589.7-1.274 1.337-1.915 1.99l-3.648 3.704-9.644 9.906-4.401 4.529c-.547.565-1.043 1.214-1.62 1.745-.13.121-.212.184-.394.211-.096-.096-.097-.059-.097-.184a.696.696 0 0 1 .143-.441c.452-.582 1.112-1.11 1.635-1.636a259.182 259.182 0 0 0 4.146-4.245c-.981-2.794-1.944-5.581-2.662-8.456-1.878-7.511-6.767-27.409-2.666-34.117.533-.871 1.342-1.66 2.368-1.881 1.132-.244 2.013.238 2.938.812 1.222-3.82 3.885-6.682 7.266-8.74-1.451-1.075-3.28-2.19-4.319-3.697-.383-.556-.766-1.32-.613-2.014.228-1.033 1.409-2.163 1.96-3.088 2-3.35 2.937-7.162 6.487-9.333a7.997 7.997 0 0 1 6.075-.983c.648.214 1.427.444 1.993.833.835.057 1.497.224 2.274.531.82.444 1.386.941 2.03 1.615 1.27 1.728 1.848 3.562 1.508 5.711-.255 1.608-.743 2.118-1.265 3.473-.668 1.738-.473 4.194-2.178 5.41-.737.527-1.616.523-2.472.356-.206-.041-.411-.086-.616-.133-.237 1.11-.48 2.22-.665 3.342a45.307 45.307 0 0 1 2.5 3.713 45.065 45.065 0 0 1 2.115 3.944 44.466 44.466 0 0 1 1.713 4.135 45.055 45.055 0 0 1 1.292 4.285c.35 1.367.597 2.75.88 4.131 1.486-.406 2.935-.634 4.461-.809 1.144-1.101 2.14-2.365 3.187-3.559l6.257-7.158c1.36-1.557 2.705-3.184 4.195-4.617 4.517.001 9.063-.138 13.575-.003-.102-.35-.218-.716-.222-1.083-.017-1.543 1.137-4.797 1.69-6.358l.006.14c.46-.639 2.979-6.752 2.962-7.236l.053-.149c.434-1.146 1.672-3.168 2.614-3.967.293-.25.674-.406 1.02-.567a3.78 3.78 0 0 1 .928-.081c2.535-.216 3.998-.37 6.376-1.34l.055-1.606a10.165 10.165 0 0 1-1.305-2.729c-.097-.325-.246-.745-.075-1.066.432-.262 1.102-.192 1.595-.3.681-.15 1.45-.62 2.138-.596z" fill="#4075D7"/><path d="M19.474 99.82c-1.451-1.076-3.28-2.19-4.319-3.697-.383-.558-.766-1.321-.613-2.015.228-1.033 1.409-2.163 1.96-3.088 2-3.35 2.937-7.162 6.487-9.333a7.998 7.998 0 0 1 6.075-.983c.648.214 1.427.444 1.993.833.835.057 1.497.224 2.274.531.82.444 1.386.941 2.03 1.615 1.27 1.728 1.848 3.562 1.508 5.711-.255 1.608-.743 2.118-1.265 3.473-.668 1.737-.473 4.193-2.178 5.41-.737.527-1.616.523-2.472.355-.206-.04-.411-.085-.616-.133-.237 1.112-.48 2.221-.665 3.343a45.307 45.307 0 0 1 2.5 3.713 44.957 44.957 0 0 1 3.023 5.99 44.544 44.544 0 0 1 2.097 6.374c.35 1.367.597 2.75.88 4.131 1.486-.406 2.935-.634 4.461-.809 1.144-1.101 2.14-2.365 3.187-3.559l6.257-7.158c1.36-1.557 2.705-3.184 4.195-4.617 4.517.001 9.063-.138 13.575-.003 1.284.335 2.552.388 3.842.617-.444.014-.899.007-1.34.055-.911-.031-1.812-.162-2.723-.189-2.293-.07-4.603-.01-6.897-.006-2.123.003-4.26-.055-6.382.014-2.675 2.866-5.15 5.935-7.743 8.878l-3.567 3.989c-.554.628-1.177 1.253-1.66 1.935 2.312-.024 4.618.069 6.873.642 1.686.428 2.226.937 4.126 1.075 1.262.2 2.845.339 3.68 1.434.22.289.344.654.475.99.75-2.531 1.965-4.987 3.048-7.392.77-1.707 1.474-3.439 2.234-5.148 1.535-.022 3.122-.11 4.653.005-1.75 3.411-3.383 6.886-5.088 10.32-.59 1.19-1.075 2.489-1.753 3.626-.186.311-.386.56-.657.798-2.38.552-6.586.176-9.274.372.273.314.546.612.853.895 1.82.016 5.974.371 7.279 1.659.169.167.32.381.34.624.03.377-.262.7-.52.936-1.35 1.232-3.595 2.008-5.353 2.367-.78.159-1.587.232-2.347.475-1.007.321-1.958.859-2.944 1.247-1.56.614-3.161.942-4.805 1.23-4.833.889-11.38.341-16.173-.73-.589.7-1.274 1.337-1.915 1.99l-3.648 3.704-9.644 9.906-4.401 4.529c-.547.565-1.043 1.214-1.62 1.745-.13.121-.212.184-.394.211-.096-.096-.097-.059-.097-.184a.696.696 0 0 1 .143-.441c.452-.582 1.112-1.11 1.635-1.636a259.182 259.182 0 0 0 4.146-4.245c-.981-2.794-1.944-5.581-2.662-8.456-1.878-7.511-6.767-27.409-2.666-34.117.533-.871 1.342-1.66 2.368-1.881 1.132-.244 2.013.238 2.938.812 1.222-3.82 3.885-6.682 7.266-8.74z" fill="#090817"/><path d="M19.76 100.169c.642.041 3.884 2.283 4.59 2.78 1.194.841 2.832 2.015 3.67 3.235 1.92 2.787 4.045 12.71 4.65 16.128.324 1.829.504 3.675.822 5.501 1.491-.688 2.966-1.205 4.584-1.521 4.74-.927 9.806-.226 13.861 2.48l-.026 5.435c-1.524.748-3.005 1.448-4.636 1.938-5.198 1.564-11.353 1.415-16.667.485-1.432-.25-2.838-.622-4.246-.979-1.94-4.975-3.343-10.132-4.467-15.348a449.85 449.85 0 0 1-.862-4.763c-.114-.686-.143-1.416-.3-2.089-.052-.221-.1-.393-.249-.571l-.113.029c-.035.093-.047.113-.067.203-.192.843.173 2.151.312 3.007.926 5.676 2.308 11.432 4.22 16.86.358 1.015.703 2.179 1.25 3.108l1.362.353c-1.123 1.51-3.059 3.194-4.438 4.599-1.844 1.879-3.623 3.962-5.61 5.685-2.974-9.285-7.3-26.149-5.358-35.636.996-4.861 3.621-8.217 7.718-10.919z" fill="#fff"/><path d="M31.645 105.719c.598.629 1.067 1.775 1.466 2.553 2.695 5.254 4.773 11.555 4.88 17.502-1.091.225-2.148.546-3.196.92l-.95.361c-.694-5.215-1.639-10.384-3.155-15.433-.525-1.747-1.268-3.409-1.814-5.144l1.172.279c.742-.18 1.113-.465 1.597-1.038z" fill="#fff"/><path d="M32.727 85.198c.49.257.926 1.015 1.177 1.5 1.392 2.688 1.443 6.16.536 9.01-.288.905-.743 1.906-1.642 2.343-1.002.487-2.342.078-3.232-.48-.327-.205-.62-.513-.982-.647l-.13.074-.023.166c.244.528.922.872 1.39 1.185-.24 1.228-.471 2.457-.694 3.688.62.889 1.792 1.842 2.125 2.873.095.292-.026.412-.153.665-.274.316-.56.509-.921.717l-1.727-.452c-1.09-1.128-2.264-2.117-3.471-3.115.412-1.337 1.615-4.201 2.314-5.394.335-.571.769-1.103 1.22-1.586.993-1.061 2.122-2 2.966-3.194 1.59-2.251 1.704-4.72 1.247-7.353zM43.606 121.727c2.5-.098 6.337-.037 8.445 1.338-.035.882.017 4.027-.44 4.541-.184.058-.26.083-.455.033-.522-.135-1.064-.465-1.558-.686-.529-.237-1.077-.425-1.623-.615-3.172-.981-6.208-1.069-9.474-.63a89.02 89.02 0 0 0-.27-3.132c1.74-.593 3.55-.784 5.375-.849zM64.194 113.314c1.16-.022 2.319-.025 3.478-.009-2.19 4.162-4.2 8.409-6.235 12.648-.169.343-.338.706-.66.932a.93.93 0 0 1-.768.163c-.535-.127-.788-.621-1.034-1.062.364-1.876 1.338-3.775 2.102-5.523a550.12 550.12 0 0 0 3.117-7.149zM52.49 129.385c1.507.011 3.003.118 4.481.426.673.14 2.185.425 2.509 1.114.064.137.07.259.036.401-.15.623-1.026.995-1.535 1.282-1.71.838-3.646 1.302-5.519 1.62.06-1.609.022-3.232.027-4.843zM52.525 123.198c1.416.144 3.59.177 4.792 1.018.676.472.55 1.471.998 2.089.181.25.69.549.735.821l-.235.029-6.58.102c.273-1.324.26-2.712.29-4.059z" fill="#fff"/><path d="M87.683 78.966c.105-.074.226-.139.34-.199.68-.36 2.658-1.48 3.334-1.275l.229-.036c.146.125.145.126.164.31.168 1.668-.444 4.304-1.562 5.59a8.06 8.06 0 0 1-.806.776l.015 1.105c1.27.88 2.63 1.147 4.134 1.384.778.058 1.572.097 2.34.232 2.233.799 3.708 3.885 4.668 5.922.464.986.893 1.989 1.339 2.983.251.55.605 1.16.739 1.746.185.794.749 2.525 1.23 3.134l.092.046c.718 1.477 1.509 3.588 1.534 5.22 1.835-.073 3.684-.035 5.522-.037l9.398-.022c2.932 3.151 5.709 6.465 8.545 9.704 1.041 1.19 2.033 2.453 3.138 3.583-.209.173-.331.178-.591.205-1.757-2.321-3.802-4.473-5.727-6.656-1.845-2.093-3.621-4.267-5.543-6.29-2.588-.101-5.187-.059-7.776-.057l-15.605.096c-1.415.006-2.842.049-4.255.003-.84-.027-1.674-.168-2.514-.214-1.385-.077-2.816-.057-4.204-.034-.92.015-1.834.127-2.752.169-2.67.116-5.34.189-8.012.219-.71.232-1.993.072-2.747.003.441-.048.896-.041 1.34-.055-1.29-.229-2.559-.282-3.842-.617-.102-.35-.218-.716-.222-1.083-.017-1.543 1.137-4.797 1.69-6.358l.006.14c.46-.639 2.979-6.752 2.962-7.236l.053-.149c.434-1.146 1.672-3.168 2.613-3.967.294-.25.675-.406 1.022-.567a3.78 3.78 0 0 1 .926-.081c2.536-.216 3.998-.37 6.377-1.34l.054-1.606a10.177 10.177 0 0 1-1.304-2.729c-.098-.325-.246-.745-.075-1.066.432-.262 1.102-.192 1.595-.3.681-.15 1.45-.62 2.138-.596z" fill="#090817"/><path d="M77.972 86.683a3.78 3.78 0 0 1 .926-.08c1.032.218 2.118.122 3.165.078.08 1.54.08 3.093.223 4.628.131 1.423 1.333 9.781 1.772 10.518l.126.056.391-.035c.068.152.12.282.13.451.033.595-.11 1.206-.144 1.801-.031.586.07 1.17-.066 1.747-.672.672-8.338.123-9.398.726-.71.232-1.993.072-2.747.003.441-.048.896-.041 1.34-.055-1.29-.229-2.559-.282-3.842-.617-.102-.35-.218-.716-.222-1.084-.017-1.542 1.137-4.796 1.69-6.357l.006.14c.46-.639 2.979-6.752 2.962-7.237l.053-.148c.434-1.146 1.672-3.168 2.613-3.967.294-.25.675-.406 1.022-.568z" fill="#15598A"/><path d="M76.772 98.734c.254.34.086 2.198.028 2.672-.211.129-.679-.002-.934-.033l-.133-.029c-.066-.415.823-2.125 1.04-2.61z" fill="#fff"/><path d="M93.533 86.621c.778.058 1.572.097 2.34.232 2.233.799 3.708 3.885 4.668 5.922.464.986.894 1.989 1.339 2.983.251.55.605 1.16.739 1.746.186.794.749 2.525 1.23 3.134l.092.046c.718 1.477 1.51 3.588 1.534 5.22-.358.177-.836.186-1.232.209-1.369.078-12.375.251-12.806-.152-.574-.535-.35-1.875-.365-2.61-.289-.161-.593-.293-.892-.432.248-2.264.87-4.512 1.3-6.747a50.028 50.028 0 0 0 .914-9.475c.363.04.698.069 1.064.04l.075-.116z" fill="#15598A"/><path d="M96.062 96.593c.633.584 2.183 4.383 2.648 5.443-.382.08-.767.123-1.154.171-.877.107-1.75.18-2.632.237.307-1.956.725-3.914 1.138-5.851zM90.126 86.25c.646.237 1.282.47 1.952.632a46.454 46.454 0 0 1-.578 7.583 46.679 46.679 0 0 1-.467 2.494c-.41 1.923-1.067 3.928-1.251 5.881-1.317-.247-3.583-.402-4.697-.98-.161-.084-.34-.057-.51-.012l-.391.035c-.122-1.706-.524-3.456-.8-5.15-.538-3.29-.982-6.66-.968-10 .486-.124.973-.243 1.457-.373.3 1.099 2.449 6.721 3.173 7.171.02.013.045.02.068.03.748-1.014 2.62-5.917 3.012-7.31zM87.684 78.966c.105-.074.226-.139.34-.199.68-.36 2.658-1.48 3.334-1.275-.038 2.086-.244 4.434-1.864 5.96-.484.454-1.103.742-1.776.704a3.019 3.019 0 0 1-1.174-.322 3.036 3.036 0 0 1-.955-.755c-.53-.625-1.182-1.93-1.146-2.779.15-.182.385-.204.604-.254.948-.213 1.822-.54 2.637-1.08z" fill="#fff"/><path d="M85.84 83.929c1.656 1.277 2.247.347 2.983.685.188.257.124.633.117.938.25.161.51.309.767.461-.577 1.826-1.333 3.715-2.134 5.453l-.547 1.178c-1.073-2.034-2.116-4.237-2.732-6.456.306-.12.707-.238.963-.447.259-.21.346-.522.39-.839.047-.332.117-.648.194-.973zM85.091 102.618c1.656.163 4.154.389 5.633 1.143-.016.348.026 1.182-.173 1.452-.905 0-5.196.2-5.74-.243-.04-.763.164-1.596.28-2.352zM75.099 106.573c2.671-.03 5.342-.103 8.011-.219.919-.042 1.833-.154 2.753-.169 1.388-.023 2.819-.043 4.204.034.84.046 1.674.187 2.514.214 1.413.046 2.84.003 4.255-.003l15.604-.096c2.59-.002 5.189-.044 7.777.057 1.922 2.023 3.698 4.197 5.543 6.29 1.925 2.183 3.97 4.335 5.727 6.656-.506.106-1.021.194-1.508.368-1.74.272-3.515.782-5.234 1.178-1.627-.582-3.161-1.606-4.741-2.33-.771-.838-1.362-1.942-1.956-2.91-1.076-1.752-2.109-3.553-3.286-5.238-17.566.163-35.133.203-52.7.118-1.216 2.036-2.506 4.022-3.737 6.047-1.294 2.128-2.525 4.296-3.946 6.344-1.9-.138-2.44-.647-4.127-1.075-2.254-.573-4.56-.666-6.873-.642.484-.682 1.106-1.307 1.66-1.935l3.568-3.989c2.592-2.943 5.068-6.012 7.743-8.878 2.121-.069 4.258-.011 6.382-.014 2.294-.004 4.604-.064 6.896.006.911.027 1.813.158 2.724.189.754.069 2.037.229 2.747-.003z" fill="#fff"/><path d="M106.332 112.918c1.388-.113 2.83-.041 4.227-.065 1.649 2.556 2.616 5.504 4.176 8.1.386-.437.702-.916 1.134-1.314 1.218-1.121 2.587-1.153 4.134-1.086 1.58.724 3.114 1.748 4.741 2.33 1.719-.396 3.494-.906 5.234-1.178-.398.462-5.605 1.655-6.641 2.042.06 1.732.3 4.038.087 5.713l-.126.119c-1.553-.425-3.276-.283-4.87-.278l-5.235.013c-.847-1.532-1.538-3.173-2.29-4.756l-4.571-9.64z" fill="#090817"/><path d="m107.135 113.378 3.14-.009c.527.916.971 1.902 1.444 2.846.866 1.71 1.719 3.427 2.56 5.149-.274.106-.489.184-.7.392-.156.579.507 1.006.699 1.563l.031.095c.516.286.994.608 1.539.844-.238.226-.513.398-.759.612-.186.161-.291.227-.316.477.432.627 3.259.83 4.107.993.567.137 1.114.304 1.666.493-2.309.018-4.618.024-6.927.019-.96-1.461-1.618-3.261-2.366-4.849l-4.118-8.625z" fill="#fff"/><path d="m122.777 121.961.092.021c.236.618.195 4.119.224 5.029-2.228-.412-4.273-1.269-6.547-1.508l-1.136-.178c.427-.395.848-.769 1.185-1.246-.41-.189-.817-.383-1.222-.583.891-.126 1.751-.393 2.63-.58 1.586-.339 3.182-.639 4.774-.955zM118.272 118.978c2.039-.157 4.049 1.143 5.724 2.198-1.679.462-3.399.784-5.115 1.072l-1.53.224c-.219-.111-.445-.235-.685-.297-.492-.126-1.863-.15-2.293.121-.039.206.006.124-.111.258a1.742 1.742 0 0 1-.138-.637c.23-.134.494-.207.745-.294.954-1.383 1.696-2.235 3.403-2.645z" fill="#fff"/><path d="M114.846 122.557c.563-.045 1.225-.124 1.768.054l.036.116c-.217.162-.4.217-.655.283-.206.082-.451.202-.676.205-.266.004-.438-.026-.631-.215.015-.218.038-.258.158-.443zM39.792 98.347c-.209-8.881-.04-17.802-.03-26.687V25.748c0-.458.067-.895.398-1.229.198-.053.185-.062.362.037.124.18.149.321.163.533.141 2.09.023 4.251.02 6.347l-.007 11.817c1.758.014 3.516.011 5.274-.007l-.004 15.034c2.65.008 5.312.054 7.961.008-.005-1.597-.168-3.84.038-5.37.059-1.95.013-3.912.01-5.865l.01-10.104c.006-1.938-.055-3.903.06-5.838l65.663.012c.172 1.836.06 3.754.06 5.6 0 4.535-.136 9.11.01 13.639.112 1.327.049 2.7.047 4.032l-.013 6.756c2.84.045 5.689-.035 8.531-.036.076-5.439-.053-10.884.056-16.322 1.397 0 2.795.011 4.191-.005-.163 16.97-.157 33.94.018 50.91-7.047.062-14.094.085-21.142.068-3.191 0-6.4.07-9.588-.007-.446-.994-.875-1.997-1.339-2.983-.96-2.037-2.435-5.123-4.668-5.922-.768-.135-1.562-.174-2.34-.232-1.504-.237-2.864-.504-4.134-1.384l-.015-1.105c.28-.245.562-.494.806-.775 1.118-1.287 1.73-3.922 1.562-5.59-.019-.185-.018-.186-.164-.311l-.23.036c-.675-.204-2.653.915-3.333 1.275-.114.06-.235.125-.34.2-.687-.025-1.457.445-2.138.595-.493.108-1.163.038-1.595.3-.171.32-.022.74.075 1.067a10.167 10.167 0 0 0 1.305 2.729l-.055 1.605c-2.379.97-3.84 1.124-6.377 1.34a3.78 3.78 0 0 0-.926.08c-.347.162-.728.319-1.022.568-.941.8-2.179 2.82-2.613 3.968l-.053.148c.017.484-2.502 6.597-2.962 7.237l-.006-.141c-1.049-.34-9.957-.118-11.66-.114l-19.866-.002z" fill="#fff"/><path d="M56.153 33.2c13.101-.153 26.22-.052 39.322-.038l14.386.001c2.586 0 5.201-.08 7.783.029l.012 46.197-15.255.01c-2.616.003-5.28.12-7.89-.009-.023-.098-.045-.196-.074-.292-.208-.68-.569-1.327-.89-1.957-.703-1.377-1.417-2.901-2.87-3.631-1.177-.591-2.542-.539-3.765-.13-1.813.606-3.69 2.063-4.76 3.641-.474.7-.846 1.497-1.225 2.25-.26.133-.62.106-.91.116l-23.866.074.002-46.262z" fill="#fff"/><path d="m106.074 39.483 1.659-.014-.044 17.851c.005 3.917.132 7.86.02 11.774l-.142.106-1.9-.019.026-18.021.012-8.825c.003-.695-.052-1.394-.038-2.086.005-.256.003-.486.125-.717l.282-.049zM94.73 49.303l2.113.01c-.003 1.946.136 19.413-.093 19.786l-2.01-.005-.01-19.79zM83.874 55.947l1.978-.013c.073 4.336.004 8.682-.017 13.019l-1.983.002c.03-4.336.038-8.672.022-13.008z" fill="#FDCC33"/><path d="M96.68 38.722c.142.022.238.052.372.103l.028.155c-.61.932-1.578 1.773-2.345 2.59-2.148 2.29-4.344 4.543-6.526 6.8-3.484-2.31-7-4.568-10.55-6.773-1.162 1.061-2.227 2.285-3.324 3.417a806.232 806.232 0 0 1-6.715 6.876l-.255-.122-.052-.17c.28-.653 9.065-9.436 10.24-10.723 1.762 1.184 3.575 2.285 5.36 3.432 1.738 1.117 3.448 2.282 5.219 3.345a618.142 618.142 0 0 0 8.547-8.93z" fill="#090817"/><path d="M73.153 60.18c.695.02 1.392.02 2.087.03l-.038 8.96-2.051-.016.002-8.974zM62.613 65.59l1.847.004c-.074 1.24-.057 2.484-.06 3.725-.553.099-1.22.03-1.787.029V65.59z" fill="#FDCC33"/><path d="M39.792 98.347c-.209-8.881-.04-17.802-.03-26.687V25.748c0-.458.067-.895.398-1.229.198-.053.185-.062.362.037.124.18.149.321.163.533.141 2.09.023 4.251.02 6.347l-.007 11.817c1.758.014 3.516.011 5.274-.007l-.004 15.034c2.65.008 5.312.054 7.961.008-.005-1.597-.168-3.84.038-5.37.15 2.868.04 5.78.05 8.654l.02 19.859 15.063.025 4.695.007c.784 0 1.603-.048 2.381.018 1.275.11 2.595.037 3.876.014-.802 1.64-1.438 3.476-2.078 5.189-.347.16-.728.318-1.022.567-.941.8-2.179 2.82-2.613 3.968l-.053.148c.017.484-2.502 6.597-2.962 7.237l-.006-.141c-1.049-.34-9.957-.118-11.66-.114l-19.866-.002z" fill="#C3D1E2"/><path d="M39.792 98.347c-.209-8.881-.04-17.802-.03-26.687V25.748c0-.458.067-.895.398-1.229.198-.053.185-.062.362.037.124.18.149.321.163.533.141 2.09.023 4.251.02 6.347l-.007 11.817-.092 37.203.002 10.98c0 1.929-.129 3.986.077 5.897l.066.153c.882.163 1.992.036 2.9.037l7.083-.015 13.24.008c2.58.004 5.185.082 7.76-.041l.699-1.715c.466-1.485 1.16-3 1.853-4.393.017.484-2.502 6.597-2.962 7.237l-.006-.141c-1.049-.34-9.957-.118-11.66-.114l-19.866-.002z" fill="#090817"/><path d="m40.722 95.853 17.325-.07c4.791-.005 9.595.098 14.384-.023l-.698 1.714c-2.575.124-5.18.046-7.76.042l-13.24-.008-7.084.015c-.908 0-2.018.126-2.9-.037l-.065-.153c.06-.486.035-.99.038-1.48zM50.04 61.575a44.278 44.278 0 0 1 3.895-.004c.002.62.153 3.194-.104 3.581-1.275.05-2.558.023-3.835.022.01-.853-.214-2.894.043-3.599zM50.047 68.1c1.29-.066 2.585-.048 3.876-.047a127.02 127.02 0 0 1-.013 3.492c-1.317.02-2.635.008-3.951.01.004-.802-.172-2.787.088-3.455zM50.044 74.442c1.294-.016 2.59.003 3.885.006l.004 3.475c-1.296.002-2.593-.024-3.89-.036l.001-3.445z" fill="#fff"/><path d="M128.4 44.792c1.397 0 2.794.011 4.191-.005-.163 16.97-.158 33.94.018 50.91-7.047.062-14.095.085-21.142.068-3.191 0-6.4.07-9.588-.007-.446-.994-.875-1.997-1.34-2.983-.96-2.037-2.434-5.123-4.667-5.922-.214-1.812-.397-3.652-.769-5.44l24.609-.007.011-20.47c.008-3.509-.121-7.075.056-10.574.112 1.326.048 2.7.047 4.032l-.014 6.756c2.841.045 5.69-.035 8.532-.036.075-5.439-.053-10.884.056-16.322z" fill="#C3D1E2"/><path d="m121.201 77.485 2.81.015.004 2.293c-.886.03-1.78.01-2.667.015-.132-.775-.136-1.54-.147-2.323zM122.341 71.231c.251-.016.527-.02.775.02.33.055.642.278.831.548.194.277.254.61.185.94-.114.54-.409.796-.849 1.095-.276.026-.58.073-.855.019-.316-.063-.618-.298-.795-.562a1.256 1.256 0 0 1-.158-1.054c.14-.506.434-.743.866-1.006zM122.51 65.268c.075.006.149.013.224.023.46.06.885.186 1.168.582.202.282.244.604.169.938-.128.573-.508.854-.97 1.167-.216.02-.464.058-.677.01-.343-.079-.66-.37-.815-.677a1.464 1.464 0 0 1-.051-1.156c.178-.493.493-.681.952-.887z" fill="#fff"/><path d="M80.017 79.387c.29-.01.65.017.91-.115.379-.754.75-1.551 1.225-2.25 1.07-1.579 2.947-3.036 4.76-3.642 1.223-.409 2.588-.461 3.765.13 1.453.73 2.167 2.254 2.87 3.631.321.63.682 1.278.89 1.957.03.096.051.194.074.292.028.206.026.397.149.57.05.298.11.582.194.874.798.266 3.474.053 4.484.052l13.413.01c2.032.003 4.465-.162 6.453.031-2.152.166-4.392.05-6.552.047l-12.101-.007-3.598.007c-.652 0-1.345-.05-1.992.028l-.05.156c.06.087.117.181.192.256.372 1.787.556 3.627.77 5.44-.77-.136-1.563-.175-2.341-.233-1.504-.237-2.864-.504-4.134-1.384l-.015-1.105c.281-.245.562-.494.806-.775 1.118-1.287 1.73-3.923 1.562-5.591-.019-.184-.018-.185-.164-.31l-.23.035c-.675-.204-2.652.916-3.333 1.276-.114.06-.235.125-.34.199-.687-.024-1.457.446-2.138.595-.493.109-1.163.039-1.595.301-.171.32-.022.74.075 1.066a10.18 10.18 0 0 0 1.305 2.73l-.055 1.605c-2.379.97-3.84 1.124-6.377 1.34a3.78 3.78 0 0 0-.926.08c.64-1.712 1.276-3.548 2.078-5.188-1.28.023-2.6.096-3.876-.015 1.155-.082 2.63.118 3.722-.071.19-.033.25-.097.392-.218l-.024-.142c-.501-.202-2.913-.065-3.674-.079 1.254-.136 2.59-.06 3.854-.067l.353-.948.1-.339-.072-.131c-.269-.076-.532-.084-.81-.098z" fill="#FDCC33"/><path d="m54.047 31.111 65.663.011c.172 1.836.059 3.755.06 5.6 0 4.535-.136 9.11.01 13.64-.177 3.499-.048 7.065-.056 10.573l-.011 20.471-24.609.008c-.076-.075-.132-.17-.193-.256l.051-.156c.647-.078 1.34-.028 1.992-.028l3.598-.007 12.1.007c2.16.003 4.401.119 6.553-.047l-.002-49.28-64.657-.018.01 49.328c7.34.055 14.698.106 22.036.013.76.014 3.172-.123 3.674.08l.024.14c-.142.122-.203.186-.393.219-1.09.189-2.567-.01-3.721.071-.778-.066-1.597-.017-2.381-.018l-4.695-.007-15.063-.024-.02-19.859c-.01-2.874.1-5.786-.05-8.654.059-1.951.013-3.912.01-5.865l.01-10.104c.005-1.938-.055-3.904.06-5.838z" fill="#090817"/><path d="M55.638 32.706c2.65-.1 5.323-.038 7.975-.041l16.628.02c12.636 0 25.285-.152 37.921-.025.077 5.28.007 10.57.005 15.85l.011 31.455-23.517-.006c-.124-.172-.12-.363-.15-.569 2.61.13 5.274.012 7.89.009l15.256-.01-.013-46.197c-2.581-.11-5.196-.03-7.782-.029H95.475c-13.102-.015-26.22-.116-39.322.037l-.002 46.26 23.866-.072c.277.013.54.02.81.097l.072.131-.1.339c-8.394-.11-16.804.014-25.199.034-.104-3.445-.037-6.912-.033-10.36l.028-18.85V38.85c0-2.01-.14-4.145.043-6.143z" fill="#090817"/><path d="M156.007 102.495c2.081 2.551 3.581 5.002 4.806 8.059.663-1.176 1.418-2.37 2.818-2.738.738-.195 1.479-.019 2.121.376 1.433.882 2.18 2.799 2.52 4.369 1.759 8.118-1.878 23.378-4.169 31.49-.898 3.179-1.889 6.836-3.451 9.742.655.811 2.245 2.421 2.567 3.31l-.052.168c-.19.035-.261.053-.43-.081-.409-.324-1.264-1.568-1.649-2.033l-4.444-5.294a842.007 842.007 0 0 0-12.053-14.227c-1.418-1.656-2.757-3.385-4.203-5.013-.139-.136-.237-.228-.435-.258-1.955-.302-4.29-.33-6.302-.511-2.418-.216-4.815-.597-7.233-.813-.655-.202-2.425-.268-3.215-.353 0-.385-.003-.734.096-1.11l.126-.118c.213-1.675-.027-3.981-.087-5.713 1.036-.387 6.242-1.58 6.64-2.042.488-.174 1.002-.262 1.508-.368.26-.027.382-.032.591-.205.709-.258 1.5-.406 2.233-.591.923-1.829 2.1-3.594 3.209-5.318 1.91-2.968 4.274-6.621 6.645-9.214.773.049 1.59.385 2.387.467 3.287.337 6.497-.611 9.456-1.981z" fill="#15598A"/><path d="M160.812 110.554c.663-1.176 1.418-2.37 2.818-2.738.738-.195 1.479-.019 2.121.376 1.433.882 2.18 2.799 2.521 4.37 1.758 8.117-1.879 23.377-4.17 31.489-.897 3.179-1.889 6.836-3.451 9.742.655.811 2.245 2.421 2.567 3.31l-.052.169c-.189.035-.261.052-.43-.082-.409-.324-1.264-1.568-1.649-2.033l-4.443-5.294a846.76 846.76 0 0 0-12.054-14.227c-1.418-1.656-2.757-3.385-4.203-5.013.26.059.334.127.529.311 1.457 1.386 2.689 3.088 4.022 4.596 3.457 3.914 6.821 7.89 10.207 11.865 4.455-9.365 7.722-19.714 6.907-30.196-.115-1.488-.444-2.958-.778-4.409-.153-.664-.397-1.403-.451-2.076l-.011-.16zM144.94 82.205l.108-.015c2.449-.37 5.175-3.245 7.657-1.363.705.534 1.063 1.316 1.28 2.15 1.494.506 2.856 1.21 3.603 2.687.744 1.473.481 3.24-.048 4.736a14.525 14.525 0 0 1-1.177 2.542c-.495.83-1.152 1.66-1.448 2.587-.184.576-.226 1.243-.236 1.845-.004.233-.032.694.059.905.131.306.484.433.593.8.315 1.052.144 2.468.677 3.415-2.959 1.37-6.169 2.319-9.456 1.982-.797-.082-1.614-.418-2.388-.467-.016-.036-.035-.071-.049-.108-.081-.216-.108-.302.001-.512.391-.757 1.392-1.94 2.078-2.438.204-.148.472-.22.71-.295.029-.806.001-1.613-.016-2.419-.812.179-1.669.388-2.504.375-.699-.012-1.309-.233-1.791-.752-1.752-1.89-1.105-8.033-1.047-10.565-.461-.073-.923-.146-1.32-.408-.393-.258-.702-.61-.788-1.084-.118-.656.186-1.375.562-1.898.775-1.078 1.936-1.483 3.187-1.677.583-.033 1.169-.023 1.753-.023z" fill="#090817"/><path d="M148.928 84.904c.092.296-.516 3.983-.34 5.183.081.547.274 1.06.601 1.507.887 1.215 3.76 3.096 5.08 4.061-.095.976-.067 1.962-.065 2.941-2.31 1.21-4.204 1.831-6.792 2.119.012-1.079-.029-2.063-.244-3.123-.932.235-2.032.572-2.995.488-.551-.048-.997-.24-1.352-.672-1.448-1.758-.925-7.834-.742-10.177 2.382-.448 4.616-1.42 6.849-2.327z" fill="#fff"/><path d="m154.576 98.988.077.027c.448.579.607 2.371.747 3.128-3.57 1.358-5.752 2.349-9.683 1.674-.353-.065-.701-.161-1.049-.247.536-.752 1.123-1.551 1.777-2.203 3.188-.416 5.211-.788 8.131-2.379z" fill="#fff"/><path d="M33.485 28.744c.74-.403 1.454-.823 2.164-1.278.123 4.342.06 8.701.04 13.045l-.03 17.14.13 16.529c.008 2.616.058 5.256-.05 7.87-.024.572-.082 1.13-.378 1.633-.644-.674-1.21-1.171-2.03-1.615.162-.167.154-.198.165-.439.053-1.22-.019-2.474-.018-3.698l.013-8.332.015-10.785c.013-2.18.084-4.356.047-6.536-.105-6.223-.013-12.447-.06-18.67-.013-1.618.047-3.248-.008-4.864zM31.144 30.552c.148 4.182.024 8.41.03 12.598l.012 22.972-.006 10.193c-.003 1.687.162 3.567-.12 5.222-.567-.39-1.345-.619-1.994-.833.23-.984.087-2.392.107-3.442.055-4.024.071-8.048.05-12.073l.05-19.58c.015-4.462.107-8.982-.122-13.437.632-.564 1.277-1.165 1.993-1.62z" fill="#F8F7FE"/><path d="M133.259 28.88c.346.233.686.454.989.743-.098 2.196-.056 4.404-.058 6.603l-.007 10.436.044 33.877.003 11.823c0 1.945.149 4.035-.051 5.967-2.906.122-5.849.015-8.759.01l-13.354.036c-2.994.002-5.999-.063-8.991.021.291.758.615 1.516.867 2.287l-.093-.045c-.48-.609-1.044-2.34-1.229-3.135l30.677.015c.129-6.622.018-13.263.012-19.887L133.311 47l-.027-11.926c-.008-2.063-.083-4.131-.025-6.193z" fill="#090817"/><path d="M143.179 36.125c.683.555 1.294 1.188 1.918 1.807l-.149 32.04c-.022 2.637-.015 5.274.019 7.91.011 1.405.143 2.933-.029 4.323-.584 0-1.17-.01-1.754.023.182-.654.022-3.22.018-4.037l-.014-9.228.036-22.572c-.002-3.425.032-6.842-.045-10.266z" fill="#F8F7FE"/></svg>