<svg width="304" height="304" fill="none" xmlns="http://www.w3.org/2000/svg"><path d="M147.098 107.549a409.87 409.87 0 0 1-.018-4.436c.033-5.947 2.074-11.358 6.368-15.56 2.88-2.818 6.845-4.935 10.808-5.693 3.256-.622 6.819-.342 10.132-.34l14.906-.017 34.996.006c7.005-.002 14.023-.097 21.027-.008 7.05.089 11.361 3.026 16.109 7.933 1.772 3.296 3.338 5.857 3.891 9.675.394 2.723.224 5.568.223 8.315l.01 13.035.026 21.21c.004 3.807.148 7.674-.041 11.473a11.376 11.376 0 0 1-.492 2.788c-1.001 3.268-3.141 6.164-6.186 7.781-1.861.989-3.738 1.324-5.806 1.545.726 10.03 1.571 20.051 2.533 30.061.125 1.715.187 3.435.187 5.154-3.492-3.189-6.708-6.865-9.986-10.281-3.443-3.586-7.035-7.045-10.427-10.676l-6.447-6.771c-1.175-1.233-2.415-2.836-3.817-3.795l-3.02-3.272a3024.71 3024.71 0 0 1-31.879.129c-.008 3.863-.145 7.774.009 11.631-.034 4.823-.04 9.646-.017 14.469.005 3.763.323 7.764-.552 11.444a20.93 20.93 0 0 1-5.028 9.414c-2.923 3.164-6.624 5.358-10.85 6.266-2.906.624-5.942.48-8.898.479l-10.121.004-35.022-.004c-7.062-.033-14.221-.287-21.277.025-3.665 3.542-7.479 8.035-10.928 11.864a1892.448 1892.448 0 0 1-16.295 17.882c-1.931 2.106-3.73 4.457-5.751 6.455-.329.325-.635.633-1.113.637-.19-.309-.247-.393-.247-.764.002-1.539.24-3.133.35-4.673l.693-9.992c.5-7.298.728-14.66 1.53-21.929-3.771-.111-7.388-1.574-10.055-4.252-2.153-2.162-3.753-5.047-4.323-8.057-.419-2.216-.231-4.701-.23-6.953l.009-10.608-.053-38.788.034-14.094c.023-8.945-.462-15.515 6.447-22.331 2.951-2.911 6.81-5.088 10.886-5.902 3.67-.732 7.646-.458 11.376-.471 5.985-.033 11.97-.033 17.955-.003l48.374-.005zM257.27 87.256c-2.752-2.256-5.689-3.74-9.238-4.25-3.794-.544-8.251-.192-12.132-.187l-21.961-.017c-10.788-.091-21.577-.09-32.366.006l-9.621-.018c-2.046-.006-4.134-.1-6.171.11-5.11.53-10.017 3.629-13.192 7.583-4.23 5.267-4.309 10.701-4.161 17.11l13.116-.032c9.07-.015 15.489-.41 22.445 6.549 6.974 6.977 6.329 13.375 6.291 22.421-.383 9.293.078 18.662-.041 27.964l32.312-.313c1.557 1.708 3.259 3.335 4.753 5.093l27.129 28.088c-.068-1.091-.056-2.276-.348-3.329-.14-2.769-.475-5.562-.711-8.326-.62-7.281-1.323-14.582-1.767-21.876.727-.011 1.456-.018 2.181-.062a10.822 10.822 0 0 0 7.528-3.809c1.287-1.499 2.348-3.505 2.663-5.468.447-2.79.241-5.879.245-8.706l.006-14.838-.015-19.648c-.004-3.694.175-7.499-.137-11.175-.431-5.084-2.939-9.605-6.808-12.87zm-90.725 21.486-65.794.048-18.684-.002c-3.846.002-7.988-.296-11.78.38a20.164 20.164 0 0 0-10.836 5.681c-2.741 2.758-4.858 6.149-5.645 9.989-.762 3.721-.505 7.747-.507 11.534l-.008 14.264.034 52.834c.037 4.086 1.293 7.704 4.28 10.597 2.929 2.837 6.338 3.548 10.285 3.629-.254 6.151-.8 12.296-1.214 18.438-.4 5.958-.666 11.944-1.217 17.889 1.187-1.541 2.502-2.998 3.836-4.413 7.696-8.376 15.222-16.907 23.004-25.202 1.482-1.58 3.907-4.766 5.547-5.869.46-.309 1.178-.3 1.715-.32 6.438-.244 12.956-.026 19.403-.029l34.364-.073 10.944.045c3.083.02 6.347.241 9.375-.415a19.023 19.023 0 0 0 9.944-5.762 20.219 20.219 0 0 0 4.975-9.87c.658-3.555.379-7.445.384-11.055l.001-17.446.037-29.691c.011-5.286.206-10.647-.006-15.926-.222-5.521-2.811-10.252-6.851-13.939-4.485-4.092-9.642-5.392-15.586-5.316z" fill="#000"/><path d="M148.428 107.593c-.148-6.409-.069-11.843 4.161-17.11 3.175-3.954 8.082-7.052 13.192-7.583 2.037-.21 4.125-.116 6.171-.11l9.621.018a1869.34 1869.34 0 0 1 32.366-.006l21.961.016c3.881-.004 8.338-.356 12.132.189 3.549.51 6.486 1.993 9.238 4.249-.077-.004-.155-.007-.232-.012-1.535-.116-4.01-1.635-6.154-1.85-2.694-.272-5.451-.171-8.155-.17l-12.283.005-8.903.004c-1.484 0-3.086-.135-4.553.045a4.597 4.597 0 0 0-2.374.993c-.998.811-1.534 1.744-1.624 3.028-.09 1.285.259 2.548 1.142 3.509 1.27 1.38 3.072 1.64 4.847 1.663 5.731.072 11.493-.006 17.227-.02 3.294-.007 6.974-.387 10.18.353 2.723.629 5.362 2.043 7.325 4.04 2.5 2.543 4.196 6.14 4.123 9.751-.066 3.265-1.374 5.689-3.713 7.904-2.414 2.288-5.378 3.964-8.175 5.732a102.402 102.402 0 0 0-5.64 3.823c-1.523-.024-7.59-.491-8.428.601-.226.294-.26.631-.166.981.101.38.392.648.746.791.974.392 2.529.082 3.599.108-4.234 3.176-8.826 6.007-13.27 8.88-3.899 2.52-7.743 5.141-11.618 7.7l-13.662 9.03c-2.405 1.585-4.678 3.325-7.242 4.658.043-4.781.06-9.562.049-14.343 0-2.631.098-5.303-.036-7.929.038-9.046.683-15.444-6.291-22.421-6.956-6.959-13.375-6.564-22.445-6.549l-13.116.032zm48.806-9.94-1.348 21.112c-.23 3.578-.572 7.19-.667 10.77 3.459.151 6.937-.055 10.389.136a727.701 727.701 0 0 0-7.933 18.811c3.173-3.666 6.477-7.199 9.701-10.819 3.237-3.569 6.674-6.988 9.772-10.679-2.522-.333-5.076-.314-7.586-.716.668-2.898 2.075-5.81 3.159-8.585l4.877-12.662c.925-2.415 1.95-4.834 2.747-7.294-7.703-.088-15.407-.113-23.111-.074zm35.208 11.777c-.412.455-.711.805-.646 1.46.031.312.263.651.545.798.852.445 19.052.336 20.984.135.321-.267.565-.398.642-.851a1.271 1.271 0 0 0-.294-1.07c-.295-.323-.73-.426-1.147-.469-2.902-.298-6.073-.048-9.005-.038-3.672.012-7.42-.158-11.079.035z" fill="#FEFEFE"/><path d="M257.27 87.256c3.869 3.265 6.377 7.785 6.808 12.869.312 3.677.133 7.482.137 11.176l.015 19.648-.006 14.838c-.004 2.827.202 5.916-.245 8.706-.315 1.963-1.376 3.969-2.663 5.468a10.822 10.822 0 0 1-7.528 3.809c-.725.044-1.454.051-2.181.062.444 7.294 1.147 14.595 1.767 21.876.236 2.764.571 5.557.711 8.326-2.963-3.058-6.152-5.925-9.26-8.834l-9.585-9.144c-1.262-1.208-2.544-2.408-3.754-3.669-.888-.927-1.793-2.209-2.809-2.952-.371-.271-.938-.185-1.373-.16-1.494-1.758-3.196-3.385-4.753-5.093l-32.312.313c.119-9.302-.342-18.671.041-27.964.134 2.626.036 5.298.036 7.929.011 4.781-.006 9.562-.049 14.343 2.564-1.333 4.837-3.073 7.242-4.658l13.662-9.03c3.875-2.559 7.719-5.18 11.618-7.7 4.444-2.873 9.036-5.704 13.27-8.88 2.918-.152 16.1.497 17.492-.387.211-.133.224-.409.223-.644a1.243 1.243 0 0 0-.443-.937c-.926-.775-11.133-.495-13.023-.513a102.402 102.402 0 0 1 5.64-3.823c2.797-1.768 5.761-3.444 8.175-5.732 2.339-2.216 3.647-4.639 3.713-7.904.073-3.611-1.623-7.208-4.123-9.752-1.963-1.997-4.602-3.41-7.325-4.039-3.206-.74-6.886-.36-10.18-.352-5.734.013-11.496.091-17.227.019-1.775-.023-3.577-.283-4.847-1.663-.883-.96-1.232-2.224-1.142-3.509.09-1.284.626-2.217 1.624-3.028a4.597 4.597 0 0 1 2.374-.993c1.467-.18 3.069-.044 4.553-.045l8.903-.004 12.283-.006c2.704 0 5.461-.1 8.155.17 2.144.216 4.619 1.735 6.154 1.85.077.006.155.009.232.013zm-25.525 55.112c-.257.416-.477.842-.299 1.349.101.288.419.602.709.699 1.041.349 19.457.199 21.071.013.276-.327.547-.627.556-1.087.009-.414-.16-.528-.427-.797-1.378-.457-18.947-.351-21.61-.177z" fill="#4075D7"/><path d="M261.426 89.434c3.674 1.982 6.46 6.73 7.608 10.608.477 1.609.715 3.237.802 4.911.158 3.039.069 6.125.074 9.17l-.047 20.091.139 16.282c-.002 2.482.123 5.048-.11 7.515a11.741 11.741 0 0 1-1.358 4.467c-1.326 2.429-3.716 4.356-6.385 5.112-1.19.338-2.327.359-3.556.395a822.564 822.564 0 0 0 2.19 22.046c.389 3.596.687 7.207 1.149 10.795-1.968-1.976-4.139-3.729-6.129-5.678-.203.119-.147.046-.219.169a1280.877 1280.877 0 0 1-2.533-30.061c2.068-.221 3.945-.556 5.806-1.545 3.045-1.617 5.185-4.513 6.186-7.781.28-.917.444-1.829.492-2.788.189-3.799.045-7.666.042-11.473l-.027-21.21-.01-13.035c.001-2.748.171-5.592-.223-8.315-.553-3.818-2.119-6.379-3.891-9.675z" fill="#4075D7"/><path d="M195.219 129.535c.095-3.58.437-7.192.667-10.77l1.348-21.112c7.704-.039 15.408-.014 23.111.074-.797 2.46-1.822 4.879-2.747 7.294l-4.877 12.662c-1.084 2.775-2.491 5.687-3.159 8.585 2.51.402 5.064.383 7.586.716-3.098 3.691-6.535 7.11-9.772 10.679-3.224 3.62-6.528 7.153-9.701 10.819a727.701 727.701 0 0 1 7.933-18.811c-3.452-.191-6.93.015-10.389-.136z" fill="#000"/><path d="M67.89 217.696c-3.947-.081-7.356-.792-10.286-3.629-2.986-2.893-4.242-6.511-4.28-10.597l-.032-52.834.007-14.264c.002-3.787-.255-7.813.507-11.534.787-3.84 2.904-7.231 5.645-9.989a20.164 20.164 0 0 1 10.836-5.681c3.792-.676 7.934-.378 11.78-.38l18.684.002 65.794-.048c5.944-.076 11.101 1.224 15.586 5.316 4.04 3.687 6.629 8.418 6.851 13.939.212 5.279.018 10.64.006 15.926l-.037 29.691-.001 17.446c-.005 3.61.274 7.5-.384 11.055a20.219 20.219 0 0 1-4.975 9.87 19.023 19.023 0 0 1-9.944 5.762c-3.027.656-6.292.435-9.375.415l-10.944-.045-34.364.073c-6.447.003-12.965-.215-19.403.029-.537.02-1.255.011-1.715.32-1.64 1.103-4.064 4.289-5.547 5.869-7.782 8.295-15.308 16.826-23.004 25.202-1.334 1.415-2.65 2.872-3.836 4.413.551-5.945.816-11.931 1.217-17.889.414-6.142.96-12.287 1.214-18.438zm56.057-89.848c-2.494.547-4.785 1.875-6.18 4.072-.252.397-.475.83-.657 1.262-2.457-1.04-4.65-1.58-7.249-.536a7.528 7.528 0 0 0-4.205 4.136c-.466 1.155-.566 2.367-.646 3.595-3.857.566-7.075 1.668-9.51 4.907-1.942 2.584-2.766 6.144-2.29 9.331.498 3.342 2.225 6.367 4.962 8.367 2.302 1.683 5.051 2.435 7.881 1.968 1.325-.218 2.553-.675 3.733-1.313 1.716 2.777 3.568 4.859 6.864 5.631 2.591.607 5.406.127 7.695-1.211.996-.65 1.741-1.312 2.475-2.266 1.794 1.964 3.946 3.171 6.644 3.318 2.237.122 4.515-.658 6.145-2.207 1.197-1.138 1.84-2.49 2.45-3.999 2.628.727 5.347.86 7.802-.524a10.206 10.206 0 0 0 4.747-6.072 10.311 10.311 0 0 0-1.059-7.945c-1.306-2.217-3.388-3.857-5.902-4.474-.846-.207-1.739-.25-2.606-.299.135-2.435-.172-4.607-1.912-6.48-1.356-1.46-3.211-2.255-5.197-2.291-.946-.018-1.885.125-2.816.28-1.17-2.964-2.693-5.28-5.726-6.575-1.755-.748-3.562-.86-5.443-.675zm-16.354 41.043a4.329 4.329 0 1 0 1.342 8.553 4.329 4.329 0 0 0-1.342-8.553zm-6.522 8.173a2.851 2.851 0 0 0-1.73 4.657 2.854 2.854 0 1 0 1.73-4.657zm-8.63 9.415c-.148.198-.232.358-.262.607-.2 1.658-.052 3.491-.052 5.166 0 2.377-.11 4.81.03 7.18 1.194.04 7.826.313 8.494-.183l.16-.248-.128-.238c-2.099-.525-5.375-.082-7.63-.113-.011-.963-.269-4.654.176-5.296l.153-.037c1.035.003 6.244.231 6.772-.177l.062-.322c-1.05-.633-5.736-.331-7.184-.343-.008-1.692-.038-3.389-.008-5.081 1.525 0 6.577.366 7.768-.34l-.01-.271c-.541-.421-7.03-.155-8.341-.304zm62.143.013c-1.774.476-3.082 1.224-4.007 2.889-1.027 1.85-1.156 4.252-.503 6.249.499 1.527 1.49 2.771 2.958 3.46 1.653.776 3.693.801 5.397.171 1.202-.444 2.313-1.257 2.827-2.463.104-.246.146-.477.184-.74l-.217-.236c-.257.005-.305-.056-.492.141-.318.335-.485.851-.715 1.254-.696 1.218-2.358 1.553-3.636 1.622l-.261.011c-1.554-.066-2.978-.302-4.098-1.501-1.167-1.249-1.545-3.179-1.457-4.844.083-1.586.697-3.136 1.93-4.176 1.186-1 2.817-1.366 4.338-1.165 1.174.155 2.237.737 2.956 1.686.385.507.582 1.202 1.132 1.517l.341-.115c.118-.361.088-.535-.092-.879-.717-1.371-1.823-2.323-3.335-2.715-1.071-.278-2.158-.252-3.25-.166zm-89.299.114c-.176 1.621-.286 11.355-.016 12.757.283.236.254.178.595.176.52-.831.225-4.671.244-5.905 1.724-.062 5.8.29 7.171-.32l.116-.226c-.222-.179-.378-.304-.642-.42a428.244 428.244 0 0 0-6.61-.015v-5.072l.165-.014c2.335-.184 5.397.433 7.588-.328l.098-.198c-.394-.428-1.242-.411-1.789-.436-2.292-.104-4.624-.011-6.92.001zm13.264-.021c.01 4.264-.06 8.541.053 12.802 1.4.014 7.685.277 8.61-.076l.072-.212c-.268-.289-.532-.426-.925-.457-2.258-.179-4.666.035-6.94.003-.01-1.001-.28-4.497.147-5.208l.136-.046c1.697.012 5.157.344 6.577-.272l.098-.13c-.087-.173-.082-.272-.28-.342-.9-.319-5.5-.085-6.7-.092-.05-1.699-.08-3.385-.034-5.084 1.74-.042 6.164.265 7.527-.405l.087-.202c-.975-.593-6.973-.276-8.428-.279zm27.508-.001c-.298 4.2-.136 8.634-.076 12.848 2.918.06 6.706.676 8.996-1.521l.134-.132c1.292-1.681 1.875-3.472 1.601-5.611-.221-1.727-.974-3.339-2.385-4.406-2.243-1.698-5.624-1.22-8.27-1.178zm15.685.03c-.498 1.42-.169 10.635-.161 12.852 2.424.005 7.366.665 9.127-1.136.271-.277.502-.623.668-.971.279-1.102.37-2.002-.253-3.005-.421-.677-1.007-1.143-1.643-1.605.768-1.458 2.596-1.422 1.842-3.766-.28-.873-.84-1.468-1.667-1.854-2.172-1.015-5.527-.428-7.913-.515zm18.65-.117c-.891 1.543-1.53 3.279-2.235 4.914l-3.428 7.944c.228.265.232.258.579.32.935-.601 1.732-3.355 2.198-4.433l3.599-.013 2.896.018c.62 1.141 1.337 3.685 2.248 4.408l.174.031c.217-.251.269-.453.226-.784-.079-.612-5.289-11.734-5.864-12.278l-.393-.127zm26.003.033c-.106.121-.237.223-.316.363-.265.466-.155 9.876-.074 11.056.041.597.132 1.156.308 1.729l.129.04c.83-1.483.445-3.745.471-5.404l2.245-1.827c.893 1.119 5.807 6.818 6.822 6.91.236.021.175.016.352-.13-.166-.956-1.749-2.217-2.453-2.916a288.294 288.294 0 0 1-4.064-4.356c1.494-1.296 5.135-3.528 5.986-5.069l-.044-.257c-.953-.089-7.4 5.408-8.837 6.484-.005-.875.149-6.156-.289-6.494-.071-.055-.157-.086-.236-.129z" fill="#FEFEFE"/><path d="M253.325 111.823c-1.932.201-20.132.31-20.984-.135a1.093 1.093 0 0 1-.545-.798c-.065-.655.235-1.005.646-1.46 3.659-.193 7.407-.023 11.079-.035 2.932-.01 6.103-.26 9.005.038.417.043.852.146 1.147.469.262.288.359.689.294 1.07-.077.453-.32.584-.642.851zM236.059 128.535c-1.07-.026-2.625.285-3.6-.108-.353-.143-.644-.411-.745-.791-.094-.35-.06-.687.166-.981.838-1.092 6.904-.625 8.428-.601 1.89.018 12.097-.262 13.023.513.277.233.439.575.443.937.001.235-.012.511-.223.645-1.392.883-14.574.234-17.492.386zM117.11 133.182c.182-.432.405-.865.657-1.262 1.395-2.197 3.686-3.525 6.18-4.072 1.881-.185 3.688-.073 5.443.675 3.033 1.295 4.556 3.611 5.726 6.575.931-.155 1.87-.298 2.816-.28 1.986.036 3.841.831 5.197 2.291 1.74 1.873 2.047 4.045 1.912 6.48.867.048 1.76.092 2.606.299 2.514.617 4.596 2.257 5.902 4.474a10.311 10.311 0 0 1 1.059 7.945 10.206 10.206 0 0 1-4.747 6.072c-2.455 1.384-5.175 1.251-7.802.524-.61 1.509-1.253 2.861-2.45 3.999-1.63 1.549-3.908 2.329-6.145 2.207-2.698-.147-4.85-1.354-6.644-3.318-.734.954-1.479 1.616-2.475 2.266-2.289 1.338-5.104 1.818-7.695 1.211-3.296-.772-5.149-2.854-6.864-5.631-1.18.638-2.408 1.095-3.733 1.313-2.83.467-5.579-.285-7.88-1.968-2.738-2-4.465-5.025-4.963-8.367-.476-3.187.348-6.747 2.29-9.331 2.435-3.239 5.653-4.341 9.51-4.907.079-1.228.18-2.44.646-3.595a7.528 7.528 0 0 1 4.205-4.136c2.599-1.044 4.792-.504 7.249.536zm7.68-4.135c-2.231.36-4.268 1.169-5.665 3.058-.581.788-.885 1.523-1.133 2.46-.062.232-.13.462-.194.693-2-1.321-3.747-2.273-6.235-1.749-1.684.354-3.205 1.231-4.159 2.691-.879 1.344-1.053 2.748-1.066 4.307-.001.206.036.72-.03.895-.086.232-.216.218-.417.265-.843.199-1.757.101-2.617.242-2.943.481-5.665 2.382-7.262 4.879-1.602 2.506-2.05 5.748-1.4 8.633a10.991 10.991 0 0 0 4.929 6.987 9.35 9.35 0 0 0 7.332 1.125c.885-.225 1.658-.596 2.47-1.001-3.254.232-5.701.235-8.508-1.649-2.143-1.913-3.508-4.219-3.651-7.139-.13-2.625.693-5.3 2.477-7.259 1.965-2.158 4.471-2.976 7.312-3.234.024-2.426.238-4.387 2.076-6.179a6.347 6.347 0 0 1 4.587-1.765c1.716.05 3.205.863 4.668 1.674 1.387-2.5 3.068-4.517 5.9-5.378 1.829-.556 3.851-.472 5.552.438 2.323 1.244 3.233 3.706 3.822 4.033l.213-.163c.136-1.052-.717-2.584-1.341-3.42-1.433-1.92-3.588-3.099-5.945-3.403-.576-.075-1.134-.069-1.715-.041zm11.408 7.103c-.798.292-1.895.535-2.309 1.349-.218.429-.026 1.062.054 1.515 1.379-1.039 2.708-1.617 4.486-1.357 1.552.226 3.104 1.113 4.001 2.416.246.358.466.767.634 1.168.262.948.289 1.753.399 2.722l.225-.023c.43-.752.351-2.468.099-3.315-.49-1.641-1.553-3.046-3.087-3.834-1.421-.731-2.947-.776-4.502-.641zm8.361 8.597c-.189.358-.426.678-.353 1.097.679.434 1.719.627 2.497.886 2.478.823 4.172 2.826 4.721 5.375a7.738 7.738 0 0 1-1.089 5.898c-1.043 1.603-2.65 2.82-4.543 3.197-.959.192-2.239-.079-3.102.325l.048.19c.577.249 1.143.388 1.753.528 2.582.08 4.667-.474 6.58-2.285 1.713-1.622 2.588-3.859 2.646-6.195.058-2.353-.822-4.56-2.429-6.27-1.831-1.949-4.157-2.561-6.729-2.746z" fill="#000"/><path d="M117.798 135.258c.064-.231.132-.461.194-.693.248-.937.552-1.672 1.133-2.46 1.397-1.889 3.435-2.698 5.665-3.058.581-.028 1.139-.034 1.715.041 2.357.304 4.512 1.483 5.945 3.403.624.836 1.477 2.368 1.341 3.42l-.213.163c-.589-.327-1.499-2.789-3.822-4.032-1.701-.911-3.723-.995-5.552-.439-2.832.861-4.513 2.878-5.9 5.378-1.463-.811-2.952-1.624-4.668-1.674a6.347 6.347 0 0 0-4.587 1.765c-1.838 1.792-2.052 3.753-2.076 6.179-2.841.258-5.347 1.076-7.312 3.234-1.784 1.959-2.607 4.634-2.478 7.259.144 2.92 1.508 5.226 3.652 7.139 2.807 1.884 5.254 1.881 8.508 1.649-.812.405-1.585.776-2.47 1.001a9.35 9.35 0 0 1-7.332-1.125 10.991 10.991 0 0 1-4.929-6.987c-.65-2.885-.202-6.127 1.4-8.633 1.597-2.497 4.319-4.398 7.262-4.879.86-.141 1.774-.043 2.617-.242.201-.047.331-.033.417-.265.066-.175.029-.689.03-.895.013-1.559.187-2.963 1.066-4.307.954-1.46 2.475-2.337 4.159-2.691 2.488-.524 4.235.428 6.235 1.749zM133.943 139.014c-.08-.453-.272-1.086-.054-1.515.414-.814 1.511-1.057 2.309-1.349 1.555-.135 3.081-.09 4.503.641 1.533.788 2.596 2.193 3.086 3.834.252.847.331 2.563-.099 3.315l-.225.024c-.11-.97-.137-1.775-.399-2.723a6.662 6.662 0 0 0-.634-1.168c-.897-1.303-2.449-2.19-4.001-2.416-1.778-.26-3.107.319-4.486 1.357z" fill="#FEFEFE"/><path d="M253.226 144.429c-1.614.186-20.03.336-21.071-.013-.29-.097-.608-.411-.709-.699-.178-.507.042-.933.299-1.348 2.663-.175 20.232-.281 21.61.176.267.269.436.383.427.797-.009.46-.28.76-.556 1.087z" fill="#000"/><path d="M144.491 162.243c-.61-.14-1.176-.279-1.753-.528l-.048-.19c.863-.404 2.143-.133 3.102-.325 1.893-.377 3.5-1.594 4.543-3.197a7.738 7.738 0 0 0 1.089-5.898c-.549-2.549-2.243-4.552-4.721-5.375-.778-.259-1.818-.452-2.497-.886-.073-.419.164-.74.353-1.097 2.572.185 4.898.797 6.729 2.746 1.607 1.71 2.487 3.917 2.429 6.27-.058 2.336-.933 4.573-2.646 6.195-1.913 1.811-3.998 2.365-6.58 2.285z" fill="#FEFEFE"/><path d="M225.094 168.948a1778.998 1778.998 0 0 0-34.806-.086c-.008 2.849.073 5.729-.084 8.574-.154-3.857-.017-7.768-.009-11.631 10.626.013 21.253-.03 31.879-.129l3.02 3.272z" fill="#4075D7"/><path d="M109.051 177.422a4.328 4.328 0 1 1-1.577-8.51 4.328 4.328 0 0 1 1.577 8.51z" fill="#000"/><path d="M227.304 169.275c.435-.025 1.002-.111 1.373.16 1.016.743 1.921 2.025 2.809 2.952 1.21 1.261 2.492 2.461 3.754 3.669l9.585 9.144c3.108 2.909 6.297 5.776 9.26 8.834.292 1.053.28 2.238.348 3.329l-27.129-28.088z" fill="#FEFEFE"/><path d="M102.052 182.685a2.854 2.854 0 1 1-1.06-5.608 2.854 2.854 0 0 1 1.06 5.608zM92.157 199.432c-.14-2.37-.03-4.803-.03-7.18 0-1.675-.148-3.508.052-5.166.03-.249.114-.41.262-.607 1.31.149 7.8-.117 8.341.304l.01.271c-1.191.706-6.243.34-7.768.34-.03 1.692 0 3.389.007 5.081 1.45.012 6.135-.29 7.185.343l-.062.322c-.528.408-5.737.18-6.772.177l-.153.037c-.445.642-.187 4.333-.177 5.296 2.256.031 5.532-.412 7.631.113l.127.238-.159.248c-.668.496-7.3.223-8.494.183zM156.119 198.85l.261-.011c1.278-.069 2.94-.403 3.636-1.622.23-.403.397-.919.715-1.254.187-.197.235-.136.492-.141l.217.236c-.038.263-.08.494-.184.74-.514 1.206-1.625 2.019-2.827 2.463-1.704.63-3.744.605-5.397-.171-1.468-.689-2.459-1.933-2.958-3.46-.653-1.997-.524-4.399.503-6.249.925-1.665 2.233-2.413 4.007-2.889 1.092-.086 2.179-.112 3.25.166 1.512.392 2.618 1.344 3.335 2.715.18.344.21.518.092.879l-.341.115c-.55-.315-.747-1.01-1.132-1.517-.719-.949-1.782-1.531-2.956-1.686-1.521-.201-3.152.165-4.338 1.165-1.233 1.04-1.847 2.59-1.93 4.176-.088 1.665.29 3.595 1.457 4.844 1.12 1.199 2.544 1.435 4.098 1.501zM66.108 193.634c-.019 1.234.277 5.074-.244 5.905-.341.002-.312.06-.595-.176-.27-1.402-.16-11.136.016-12.757 2.296-.012 4.628-.105 6.92-.001.547.025 1.395.008 1.79.436l-.1.198c-2.19.761-5.252.144-7.587.328l-.164.015v5.071c2.202-.012 4.405-.007 6.608.015.265.116.42.241.643.42l-.116.226c-1.372.61-5.447.258-7.17.32zM78.602 199.387c-.113-4.261-.043-8.538-.053-12.802 1.455.003 7.453-.314 8.428.279l-.087.202c-1.363.67-5.787.363-7.526.405-.047 1.699-.016 3.385.033 5.084 1.2.007 5.8-.228 6.7.092.198.07.193.169.28.342l-.098.13c-1.42.616-4.88.284-6.577.272l-.136.046c-.426.711-.157 4.207-.147 5.208 2.274.032 4.682-.182 6.94-.003.393.031.657.168.925.457l-.072.212c-.925.353-7.21.09-8.61.076zM105.981 199.432c-.06-4.214-.222-8.648.076-12.848 2.646-.042 6.027-.52 8.27 1.178 1.411 1.067 2.164 2.679 2.385 4.406.274 2.139-.309 3.93-1.601 5.611l-.134.132c-2.29 2.197-6.078 1.581-8.996 1.521zm1.693-12.002c-.39.023-.481-.065-.757.233-.24 3.554-.102 7.386.018 10.952 2.174.042 5.195.464 7.017-.938 1.302-1.419 1.963-3.016 1.842-4.975-.097-1.558-.711-3.162-1.924-4.188-1.647-1.391-4.173-1.237-6.196-1.084zM121.581 199.466c-.008-2.217-.337-11.432.161-12.852 2.386.087 5.741-.5 7.913.515.827.386 1.387.981 1.667 1.854.754 2.344-1.074 2.308-1.842 3.766.636.462 1.222.928 1.643 1.605.623 1.003.532 1.903.253 3.005a3.677 3.677 0 0 1-.668.971c-1.761 1.801-6.703 1.141-9.127 1.136zm.885-11.951c-.004 1.641-.022 3.283-.006 4.924 2.331.009 5.116.329 7.238-.785.64-.66.852-1.087.829-2.02-.012-.507-.172-.942-.55-1.287-1.507-1.375-5.586-.863-7.511-.832zm.012 5.661-.008 5.553c2.315.039 5.297.445 7.388-.717.665-.825.902-1.474.767-2.546-.078-.617-.334-1.142-.831-1.528-1.627-1.264-5.284-.759-7.316-.762zM137.506 195.242c-.466 1.078-1.263 3.832-2.198 4.433-.347-.062-.351-.055-.579-.32l3.428-7.944c.705-1.635 1.344-3.371 2.235-4.914l.393.127c.575.544 5.785 11.666 5.864 12.278.043.331-.009.533-.226.784l-.174-.031c-.911-.723-1.628-3.267-2.248-4.408l-2.896-.018-3.599.013zm3.1-7.203c-.99 2.119-1.867 4.305-2.739 6.475 1.03.01 2.06.028 3.089.026l2.744-.02c-.951-2.167-1.906-4.436-3.094-6.481zM166.913 194.314c-.026 1.659.359 3.921-.471 5.404l-.129-.04a7.47 7.47 0 0 1-.308-1.729c-.081-1.18-.191-10.59.074-11.056.079-.14.21-.242.316-.363.078.043.165.074.236.129.437.338.284 5.619.289 6.494 1.437-1.076 7.884-6.573 8.837-6.484l.044.257c-.851 1.541-4.492 3.773-5.986 5.069a288.294 288.294 0 0 0 4.064 4.356c.704.699 2.287 1.96 2.453 2.916-.177.146-.116.151-.352.13-1.015-.092-5.929-5.791-6.822-6.91l-2.245 1.827z" fill="#000"/><path d="M106.935 198.615c-.12-3.566-.258-7.399-.018-10.952.276-.298.367-.21.756-.233 2.024-.153 4.55-.307 6.197 1.084 1.213 1.026 1.827 2.63 1.924 4.188.121 1.959-.54 3.556-1.842 4.975-1.822 1.402-4.843.98-7.017.938zM122.46 192.439c-.016-1.641.002-3.283.006-4.924 1.925-.031 6.004-.543 7.511.832.378.345.538.78.55 1.287.023.933-.189 1.36-.829 2.02-2.122 1.114-4.907.793-7.238.785zM137.867 194.514c.872-2.17 1.749-4.356 2.739-6.475 1.188 2.045 2.143 4.314 3.094 6.481l-2.744.02c-1.029.002-2.059-.016-3.089-.026zM122.47 198.729l.008-5.553c2.032.003 5.689-.502 7.316.762.497.386.753.911.831 1.528.135 1.072-.102 1.721-.768 2.546-2.09 1.162-5.072.756-7.387.717z" fill="#FEFEFE"/></svg>