<svg width="233" height="228" viewBox="0 0 233 228" fill="none" xmlns="http://www.w3.org/2000/svg">
<path d="M28.9204 88.6617C31.9129 88.5967 34.9207 88.6542 37.9144 88.6566L58.5864 88.699L131.275 88.7094L174.049 88.7245L187.746 88.7504C190.395 88.7582 193.102 88.6777 195.744 88.8491C196.803 88.9181 197.537 89.1585 198.31 89.9203C198.879 90.4797 199.292 91.198 199.398 91.9851C199.622 93.6567 199.463 95.5292 199.458 97.2174L199.426 107.652L199.478 140.53C201.006 140.534 202.533 140.53 204.06 140.518C206.342 140.511 208.748 140.248 210.532 141.959C211.304 142.7 211.929 143.732 212.078 144.791C212.319 146.492 212.15 148.407 212.148 150.126L212.149 160.309L212.167 196.92C217.466 196.956 222.77 196.847 228.066 196.953C228.092 197.528 228.111 198.102 228.123 198.678C228.152 200.812 227.668 202.777 226.089 204.328C225.977 204.437 225.86 204.543 225.741 204.644C225.621 204.746 225.498 204.843 225.371 204.936C225.244 205.029 225.115 205.118 224.982 205.202C224.849 205.287 224.713 205.366 224.575 205.441C224.436 205.517 224.295 205.587 224.151 205.652C224.008 205.718 223.862 205.778 223.714 205.834C223.566 205.889 223.417 205.94 223.265 205.985C223.114 206.03 222.961 206.071 222.807 206.105C220.701 206.594 217.957 206.332 215.765 206.328L204.394 206.305L73.9722 206.232L30.9353 206.253L17.1755 206.267C14.767 206.27 12.3039 206.382 9.90095 206.253C8.7714 206.192 7.76101 205.956 6.86778 205.229C5.94508 204.478 5.29991 203.377 5.24124 202.19C5.23791 202.117 5.23649 202.044 5.23697 201.971C5.23744 201.897 5.23981 201.824 5.24409 201.751C5.24836 201.678 5.25452 201.605 5.26258 201.532C5.27063 201.459 5.28057 201.387 5.29238 201.315C5.30421 201.242 5.31791 201.17 5.33346 201.099C5.34902 201.027 5.36642 200.956 5.38567 200.885C5.40491 200.814 5.42599 200.744 5.44888 200.674C5.47178 200.605 5.49646 200.536 5.52295 200.467C5.54941 200.398 5.57765 200.331 5.60766 200.264C5.63766 200.197 5.66937 200.13 5.7028 200.065C5.73623 199.999 5.77134 199.935 5.80813 199.871C5.84491 199.807 5.88332 199.744 5.92337 199.683C5.96342 199.621 6.00504 199.56 6.04824 199.5C6.09142 199.441 6.13613 199.382 6.18238 199.325C6.22862 199.267 6.27632 199.211 6.32547 199.156C6.37463 199.1 6.42519 199.046 6.47715 198.994C7.02451 198.447 7.64345 198.132 8.4029 197.975C10.2349 197.596 12.3694 197.818 14.2431 197.823L24.8241 197.86L24.8191 129.388L24.8399 104.648L24.8707 97.1147C24.8705 95.6982 24.7827 94.2459 24.8829 92.8343C24.9509 91.8718 25.2191 90.9219 25.8293 90.1501C26.619 89.151 27.6923 88.8028 28.9204 88.6617Z" fill="black"/>
<path d="M29.0757 99.8733C40.4771 99.7247 51.8902 99.8522 63.2932 99.842L134.55 99.8165L174.956 99.8216L188.004 99.828C190.702 99.8303 193.427 99.76 196.12 99.9148C196.229 104.758 196.124 109.626 196.125 114.472L196.157 140.538L166.646 140.551L158.271 140.525C156.807 140.519 155.224 140.393 153.776 140.583C152.827 140.708 152.089 141.218 151.372 141.799L111.425 141.745C111.323 144.671 111.399 147.62 111.401 150.549L111.43 178.445C116.084 178.621 120.8 178.495 125.459 178.499L150.246 178.561L150.199 194.783C138.358 194.721 126.517 194.733 114.676 194.818L28.6466 194.812L28.548 128.338L28.5186 107.63C28.518 105.377 28.4137 103.114 28.4544 100.863C28.4603 100.541 28.4235 100.205 28.6027 99.9318L29.0757 99.8733Z" fill="#FEFEFE"/>
<path d="M111.414 107.51C116.711 107.428 122.02 107.495 127.318 107.492L157.515 107.476L176.817 107.486C180.366 107.49 183.962 107.382 187.505 107.547C187.579 117.119 187.595 126.691 187.551 136.264C184.701 136.438 181.767 136.305 178.909 136.304L162.298 136.299L111.396 136.344L111.406 119.327C111.398 115.393 111.316 111.442 111.414 107.51Z" fill="black"/>
<path d="M174.023 108.025L186.963 108.039C187.12 112.509 186.992 117.014 186.998 121.488L186.998 132.132C186.995 133.014 187.07 133.903 187.053 134.781C187.047 135.097 187.05 135.407 186.868 135.679L186.495 135.732L174.113 135.731L174.117 116.902C174.495 116.46 174.886 116.041 174.956 115.442C175.05 114.647 174.539 114.072 174.044 113.509L174.023 108.025Z" fill="#FEFEFE"/>
<path d="M112.021 108.064C115.694 107.947 119.39 108.036 123.066 108.044C123.154 111.1 123.093 114.174 123.089 117.233C123.085 123.401 123.041 129.57 122.958 135.738L111.952 135.76L111.974 118.727C111.977 115.176 111.916 111.612 112.021 108.064Z" fill="#FEFEFE"/>
<path d="M123.213 108.033L135.067 108.044C135.204 112.135 135.142 116.243 135.057 120.334C134.638 120.606 134.255 120.939 134.022 121.384C133.652 122.091 133.88 122.8 134.108 123.506C132.736 125.681 130.742 127.654 129.012 129.569C127.07 131.737 125.193 133.974 123.192 136.089C123.074 133.825 123.143 131.53 123.138 129.263C123.119 125.436 123.123 121.609 123.149 117.783C123.174 114.672 122.925 111.077 123.213 108.033Z" fill="#FEFEFE"/>
<path d="M159.996 108.023L173.773 108.027L173.808 113.472C173.116 113.321 172.412 113.334 171.804 113.737C171.389 114.012 171.127 114.422 171.065 114.911C170.97 115.667 171.244 116.212 171.695 116.798C170.587 118.921 169.448 121.015 168.385 123.162C167.481 125.001 166.551 126.827 165.596 128.64C164.816 128.502 164.277 128.518 163.574 128.891C162.453 127.076 161.268 125.303 160.018 123.57C159.925 118.398 159.965 113.198 159.996 108.023Z" fill="#FEFEFE"/>
<path d="M153.788 119.875C155.32 121.116 155.047 120.378 156.494 120.512C157.25 120.582 159.106 123.561 159.587 124.227C159.7 128.058 159.597 131.918 159.582 135.752L153.719 135.76L147.553 135.751L147.549 124.402C148.204 124.33 148.889 124.213 149.34 123.691C149.744 123.223 149.795 122.658 149.768 122.071C151.125 121.37 152.465 120.638 153.788 119.875Z" fill="#FEFEFE"/>
<path d="M135.226 108.038L147.377 108.033C147.411 112.258 147.411 116.483 147.377 120.708C147.059 120.821 146.746 120.945 146.432 121.067C146.254 121.253 146.313 121.176 146.18 121.368C146.079 121.515 145.977 121.704 145.854 121.832C145.482 122.219 138.704 121.905 137.823 121.873C137.676 121.543 137.538 121.175 137.278 120.913C136.729 120.358 135.976 120.364 135.245 120.327L135.226 108.038Z" fill="#FEFEFE"/>
<path d="M137.765 122.587C140.332 122.549 142.927 122.673 145.497 122.71C146.04 123.654 146.322 124.042 147.405 124.372L147.39 135.74L144.585 135.734L135.208 135.728L135.224 124.144C135.723 124.175 136.219 124.196 136.69 124.003C137.311 123.75 137.545 123.163 137.765 122.587Z" fill="#FEFEFE"/>
<path d="M173.803 117.072L173.843 117.084C174.124 117.465 174.037 133.787 174.033 135.723C169.29 135.803 164.533 135.741 159.789 135.748C159.75 132.893 159.771 130.034 159.763 127.178L159.77 124.365C160.929 126 162.071 127.648 163.196 129.306C163.037 129.984 162.838 130.506 163.125 131.19C163.353 131.731 163.74 132.181 164.32 132.371C164.804 132.53 165.298 132.472 165.739 132.226C166.471 131.817 166.667 131.156 166.899 130.419C166.685 129.904 166.4 129.462 166.095 128.997C168.412 125.18 170.215 121.057 172.258 117.092C172.778 117.133 173.284 117.103 173.803 117.072Z" fill="#FEFEFE"/>
<path d="M147.565 108.021L159.81 108.027L159.934 123.478C159.149 122.441 158.349 121.415 157.535 120.4C156.844 119.641 157.842 118.525 157.138 117.628C156.79 117.186 156.255 116.878 155.684 116.842C155.087 116.804 154.509 117.052 154.089 117.461C153.548 117.987 153.465 118.585 153.455 119.3C152.154 120.1 150.807 120.811 149.458 121.528C148.871 120.933 148.389 120.789 147.558 120.701L147.565 108.021Z" fill="#FEFEFE"/>
<path d="M134.793 124.053L134.908 124.089C135.241 124.53 135.056 134.543 135.058 135.708L124.846 135.713C124.738 135.707 124.807 135.72 124.653 135.629C124.78 135.198 133.71 125.156 134.793 124.053Z" fill="#FEFEFE"/>
<path d="M172.64 114.055C172.66 114.049 172.68 114.044 172.7 114.039C172.72 114.034 172.74 114.03 172.76 114.026C172.781 114.022 172.801 114.018 172.821 114.015C172.842 114.012 172.862 114.01 172.883 114.008C172.904 114.006 172.924 114.005 172.945 114.004C172.966 114.002 172.986 114.002 173.007 114.002C173.028 114.002 173.048 114.002 173.069 114.004C173.09 114.004 173.11 114.006 173.131 114.008C173.152 114.01 173.172 114.012 173.193 114.015C173.213 114.018 173.233 114.022 173.254 114.025C173.274 114.029 173.294 114.034 173.314 114.039C173.334 114.044 173.354 114.049 173.374 114.055C173.394 114.061 173.414 114.067 173.433 114.074C173.453 114.08 173.472 114.088 173.491 114.095C173.51 114.103 173.529 114.111 173.548 114.12C173.567 114.128 173.585 114.137 173.604 114.147C173.622 114.156 173.64 114.166 173.658 114.176C173.676 114.187 173.693 114.198 173.711 114.209C173.728 114.22 173.745 114.232 173.761 114.243C173.778 114.255 173.795 114.268 173.811 114.281C173.827 114.293 173.843 114.307 173.858 114.32C173.874 114.333 173.889 114.347 173.903 114.362C173.918 114.376 173.932 114.39 173.947 114.405C173.961 114.42 173.974 114.436 173.988 114.451C174.001 114.467 174.014 114.482 174.026 114.499C174.039 114.515 174.051 114.531 174.062 114.548C174.074 114.565 174.085 114.582 174.096 114.599C174.107 114.617 174.117 114.634 174.127 114.652C174.137 114.67 174.147 114.688 174.156 114.706C174.165 114.724 174.174 114.743 174.182 114.761C174.19 114.78 174.198 114.799 174.205 114.818C174.212 114.837 174.219 114.856 174.225 114.875C174.231 114.895 174.237 114.914 174.243 114.934C174.248 114.953 174.253 114.973 174.257 114.993C174.261 115.013 174.265 115.033 174.269 115.053C174.272 115.073 174.275 115.093 174.277 115.113C174.279 115.133 174.281 115.154 174.283 115.174C174.284 115.194 174.285 115.214 174.285 115.235C174.286 115.255 174.285 115.275 174.285 115.296C174.284 115.316 174.283 115.336 174.281 115.356C174.28 115.377 174.277 115.397 174.275 115.417C174.272 115.437 174.269 115.457 174.265 115.477C174.262 115.497 174.257 115.517 174.253 115.537C174.248 115.556 174.243 115.576 174.237 115.596C174.232 115.615 174.226 115.635 174.219 115.654C174.213 115.673 174.206 115.692 174.198 115.711C174.19 115.73 174.182 115.749 174.174 115.767C174.166 115.786 174.157 115.804 174.147 115.822C174.138 115.84 174.128 115.858 174.118 115.876C174.108 115.894 174.097 115.911 174.086 115.928C174.075 115.945 174.063 115.962 174.051 115.979C174.039 115.995 174.027 116.012 174.014 116.027C174.002 116.043 173.988 116.059 173.975 116.074C173.961 116.09 173.948 116.105 173.933 116.12C173.919 116.134 173.904 116.149 173.889 116.163C173.874 116.177 173.859 116.19 173.844 116.204C173.828 116.217 173.812 116.23 173.796 116.242C173.779 116.255 173.763 116.267 173.746 116.279C173.729 116.29 173.712 116.302 173.694 116.313C173.677 116.324 173.659 116.334 173.641 116.344C173.623 116.354 173.605 116.364 173.586 116.373C173.568 116.382 173.549 116.391 173.53 116.399C173.512 116.408 173.492 116.416 173.473 116.423C173.454 116.43 173.434 116.437 173.415 116.444C173.361 116.461 173.307 116.475 173.252 116.486C173.196 116.497 173.14 116.504 173.084 116.507C173.028 116.51 172.971 116.51 172.915 116.506C172.859 116.502 172.803 116.494 172.748 116.483C172.693 116.472 172.638 116.457 172.585 116.439C172.532 116.42 172.48 116.399 172.43 116.374C172.379 116.349 172.331 116.321 172.285 116.289C172.238 116.258 172.194 116.224 172.152 116.187C172.11 116.15 172.071 116.11 172.034 116.068C171.998 116.026 171.964 115.981 171.934 115.935C171.903 115.888 171.876 115.84 171.851 115.79C171.828 115.74 171.807 115.689 171.79 115.636C171.773 115.583 171.759 115.529 171.749 115.475C171.739 115.42 171.733 115.366 171.731 115.31C171.728 115.255 171.73 115.2 171.735 115.145C171.74 115.089 171.748 115.035 171.761 114.981C171.773 114.927 171.789 114.874 171.808 114.822C171.828 114.77 171.851 114.72 171.877 114.671C171.903 114.622 171.933 114.575 171.966 114.53C171.998 114.484 172.034 114.442 172.072 114.401C172.111 114.361 172.152 114.323 172.195 114.288C172.239 114.252 172.285 114.22 172.333 114.191C172.381 114.162 172.43 114.136 172.482 114.113C172.533 114.09 172.586 114.071 172.64 114.055Z" fill="#FEFEFE"/>
<path d="M135.423 121.039C135.443 121.032 135.463 121.026 135.483 121.02C135.504 121.015 135.524 121.009 135.544 121.005C135.565 121 135.585 120.996 135.606 120.992C135.627 120.989 135.648 120.986 135.668 120.983C135.689 120.98 135.71 120.978 135.731 120.976C135.752 120.975 135.773 120.974 135.794 120.973C135.815 120.973 135.836 120.972 135.857 120.973C135.878 120.973 135.899 120.974 135.92 120.976C135.941 120.977 135.962 120.979 135.982 120.981C136.003 120.984 136.024 120.987 136.045 120.99C136.065 120.994 136.086 120.998 136.107 121.002C136.127 121.006 136.147 121.011 136.168 121.017C136.188 121.022 136.208 121.028 136.228 121.035C136.248 121.041 136.268 121.048 136.287 121.055C136.307 121.062 136.326 121.07 136.345 121.079C136.365 121.087 136.384 121.096 136.402 121.105C136.421 121.114 136.44 121.124 136.458 121.134C136.476 121.144 136.495 121.154 136.512 121.165C136.53 121.176 136.547 121.188 136.565 121.2C136.582 121.212 136.599 121.224 136.615 121.236C136.632 121.249 136.648 121.262 136.664 121.276C136.68 121.289 136.695 121.303 136.711 121.317C136.726 121.331 136.741 121.346 136.755 121.361C136.77 121.376 136.784 121.391 136.798 121.407C136.811 121.422 136.825 121.438 136.837 121.454C136.85 121.47 136.863 121.487 136.875 121.504C136.887 121.521 136.899 121.538 136.91 121.555C136.921 121.573 136.932 121.59 136.942 121.608C136.953 121.626 136.962 121.644 136.972 121.663C136.981 121.681 136.99 121.7 136.999 121.719C137.007 121.737 137.015 121.756 137.023 121.776C137.03 121.795 137.037 121.814 137.044 121.834C137.05 121.853 137.056 121.873 137.062 121.893C137.068 121.913 137.073 121.933 137.077 121.953C137.082 121.973 137.086 121.993 137.089 122.014C137.093 122.034 137.096 122.054 137.098 122.075C137.101 122.095 137.103 122.116 137.104 122.136C137.106 122.157 137.107 122.177 137.107 122.198C137.108 122.219 137.108 122.239 137.107 122.26C137.106 122.28 137.105 122.301 137.104 122.321C137.102 122.342 137.1 122.362 137.097 122.383C137.094 122.403 137.091 122.424 137.088 122.444C137.084 122.464 137.08 122.484 137.075 122.504C137.07 122.524 137.065 122.544 137.059 122.564C137.054 122.584 137.047 122.604 137.041 122.623C137.034 122.643 137.027 122.662 137.019 122.681C137.012 122.701 137.003 122.72 136.995 122.738C136.986 122.757 136.977 122.776 136.967 122.794C136.958 122.812 136.948 122.83 136.937 122.848C136.927 122.866 136.916 122.884 136.905 122.901C136.893 122.918 136.881 122.935 136.869 122.952C136.857 122.969 136.844 122.985 136.831 123.001C136.818 123.017 136.805 123.033 136.791 123.049C136.777 123.064 136.763 123.079 136.748 123.094C136.734 123.109 136.719 123.123 136.703 123.138C136.688 123.152 136.672 123.165 136.656 123.179C136.64 123.192 136.624 123.205 136.607 123.217C136.591 123.23 136.574 123.242 136.556 123.254C136.539 123.265 136.522 123.277 136.504 123.287C136.486 123.298 136.468 123.309 136.449 123.319C136.431 123.329 136.412 123.338 136.394 123.347C136.375 123.356 136.356 123.365 136.336 123.373C136.317 123.381 136.298 123.389 136.278 123.396C136.258 123.403 136.238 123.41 136.218 123.416C136.199 123.423 136.179 123.428 136.159 123.433C136.139 123.439 136.118 123.443 136.098 123.448C136.078 123.452 136.057 123.456 136.037 123.459C136.016 123.462 135.996 123.465 135.975 123.467C135.955 123.469 135.934 123.471 135.913 123.473C135.893 123.474 135.872 123.475 135.851 123.475C135.83 123.475 135.81 123.475 135.789 123.474C135.768 123.474 135.747 123.472 135.727 123.471C135.706 123.469 135.685 123.467 135.665 123.464C135.644 123.462 135.624 123.458 135.603 123.455C135.583 123.451 135.563 123.447 135.542 123.442C135.522 123.438 135.502 123.433 135.482 123.427C135.462 123.422 135.442 123.415 135.423 123.409C135.403 123.402 135.384 123.395 135.364 123.388C135.345 123.381 135.326 123.373 135.307 123.364C135.288 123.356 135.269 123.347 135.251 123.338C135.232 123.328 135.214 123.319 135.196 123.309C135.178 123.298 135.16 123.288 135.143 123.277C135.125 123.266 135.108 123.254 135.091 123.243C135.075 123.231 135.058 123.219 135.042 123.206C135.025 123.193 135.009 123.18 134.994 123.167C134.978 123.154 134.963 123.14 134.948 123.126C134.933 123.112 134.918 123.097 134.904 123.083C134.89 123.068 134.876 123.052 134.863 123.037C134.849 123.022 134.836 123.006 134.823 122.99C134.811 122.973 134.798 122.957 134.786 122.94C134.774 122.924 134.763 122.907 134.752 122.89C134.741 122.872 134.73 122.855 134.72 122.837C134.71 122.819 134.7 122.801 134.691 122.783C134.682 122.765 134.673 122.747 134.665 122.728C134.656 122.709 134.648 122.69 134.641 122.671C134.633 122.652 134.626 122.633 134.62 122.614C134.614 122.595 134.608 122.575 134.602 122.555C134.597 122.536 134.592 122.516 134.587 122.496C134.582 122.476 134.578 122.456 134.575 122.436C134.571 122.416 134.568 122.396 134.566 122.376C134.563 122.356 134.561 122.335 134.56 122.315C134.558 122.295 134.557 122.275 134.557 122.254C134.556 122.234 134.556 122.213 134.557 122.193C134.557 122.173 134.558 122.152 134.56 122.132C134.561 122.112 134.563 122.092 134.566 122.071C134.569 122.051 134.572 122.031 134.575 122.011C134.579 121.991 134.583 121.971 134.587 121.951C134.592 121.931 134.597 121.911 134.602 121.892C134.608 121.872 134.614 121.853 134.62 121.833C134.627 121.814 134.634 121.795 134.641 121.776C134.648 121.757 134.656 121.738 134.665 121.719C134.673 121.701 134.682 121.682 134.691 121.664C134.701 121.646 134.71 121.628 134.72 121.61C134.731 121.592 134.741 121.575 134.752 121.558C134.763 121.54 134.775 121.523 134.787 121.507C134.799 121.49 134.811 121.474 134.823 121.458C134.836 121.442 134.849 121.426 134.863 121.41C134.876 121.395 134.89 121.38 134.904 121.365C134.919 121.35 134.933 121.336 134.948 121.322C134.963 121.308 134.978 121.294 134.994 121.28C135.01 121.267 135.026 121.254 135.042 121.242C135.058 121.229 135.075 121.217 135.092 121.205C135.109 121.193 135.126 121.182 135.143 121.171C135.161 121.16 135.179 121.149 135.197 121.139C135.215 121.129 135.233 121.119 135.251 121.11C135.27 121.1 135.289 121.092 135.308 121.083C135.326 121.075 135.345 121.067 135.365 121.06C135.384 121.052 135.404 121.045 135.423 121.039Z" fill="#FEFEFE"/>
<path d="M147.342 121.354C147.362 121.347 147.383 121.342 147.403 121.336C147.423 121.331 147.443 121.326 147.464 121.322C147.484 121.318 147.505 121.314 147.526 121.311C147.546 121.307 147.567 121.305 147.588 121.302C147.609 121.3 147.63 121.299 147.651 121.297C147.672 121.296 147.692 121.295 147.713 121.295C147.734 121.295 147.755 121.295 147.776 121.296C147.797 121.297 147.818 121.298 147.839 121.3C147.86 121.302 147.881 121.304 147.902 121.307C147.922 121.309 147.943 121.313 147.963 121.316C147.984 121.32 148.005 121.325 148.025 121.329C148.045 121.334 148.066 121.339 148.086 121.345C148.106 121.351 148.126 121.357 148.145 121.364C148.165 121.371 148.185 121.378 148.204 121.385C148.224 121.393 148.243 121.401 148.262 121.41C148.281 121.419 148.3 121.428 148.319 121.437C148.337 121.447 148.356 121.457 148.374 121.467C148.392 121.477 148.409 121.488 148.427 121.499C148.444 121.511 148.462 121.523 148.479 121.534C148.496 121.547 148.512 121.559 148.528 121.572C148.545 121.585 148.561 121.598 148.576 121.612C148.592 121.626 148.607 121.64 148.622 121.654C148.637 121.669 148.652 121.683 148.666 121.698C148.68 121.713 148.694 121.729 148.708 121.745C148.721 121.761 148.734 121.777 148.747 121.793C148.759 121.809 148.772 121.826 148.783 121.843C148.795 121.86 148.806 121.877 148.817 121.895C148.828 121.912 148.839 121.93 148.849 121.948C148.859 121.966 148.868 121.985 148.877 122.003C148.886 122.022 148.895 122.041 148.903 122.059C148.911 122.078 148.919 122.098 148.926 122.117C148.933 122.136 148.94 122.156 148.946 122.175C148.952 122.195 148.958 122.215 148.963 122.234C148.969 122.254 148.973 122.274 148.978 122.295C148.982 122.315 148.986 122.335 148.989 122.355C148.992 122.376 148.995 122.396 148.997 122.416C148.999 122.437 149.001 122.457 149.002 122.478C149.003 122.498 149.004 122.519 149.004 122.539C149.004 122.56 149.003 122.58 149.003 122.601C149.002 122.622 149 122.642 148.998 122.663C148.996 122.683 148.994 122.703 148.991 122.724C148.988 122.744 148.984 122.764 148.98 122.785C148.977 122.805 148.972 122.825 148.967 122.845C148.962 122.865 148.956 122.885 148.951 122.904C148.945 122.924 148.938 122.944 148.931 122.963C148.924 122.982 148.917 123.001 148.909 123.02C148.901 123.039 148.892 123.058 148.883 123.077C148.875 123.096 148.865 123.114 148.855 123.132C148.846 123.15 148.835 123.168 148.825 123.186C148.814 123.204 148.803 123.221 148.791 123.238C148.78 123.255 148.768 123.272 148.755 123.289C148.743 123.305 148.73 123.321 148.717 123.337C148.704 123.353 148.69 123.369 148.676 123.384C148.662 123.399 148.647 123.414 148.633 123.429C148.618 123.443 148.603 123.458 148.587 123.472C148.572 123.485 148.556 123.499 148.54 123.512C148.524 123.525 148.507 123.538 148.49 123.55C148.474 123.562 148.456 123.574 148.439 123.586C148.422 123.597 148.404 123.608 148.386 123.619C148.368 123.629 148.35 123.639 148.331 123.649C148.313 123.659 148.294 123.668 148.275 123.677C148.256 123.686 148.237 123.694 148.218 123.702C148.199 123.71 148.179 123.717 148.159 123.724C148.14 123.731 148.12 123.738 148.1 123.744C148.08 123.75 148.06 123.755 148.039 123.76C148.019 123.765 147.999 123.77 147.979 123.774C147.958 123.778 147.938 123.781 147.917 123.784C147.897 123.787 147.876 123.79 147.855 123.792C147.835 123.794 147.814 123.795 147.793 123.796C147.772 123.797 147.751 123.798 147.731 123.798C147.71 123.798 147.689 123.797 147.668 123.796C147.648 123.796 147.627 123.794 147.606 123.792C147.585 123.79 147.565 123.788 147.544 123.785C147.524 123.782 147.503 123.778 147.483 123.774C147.462 123.771 147.442 123.766 147.422 123.761C147.402 123.756 147.382 123.751 147.362 123.745C147.342 123.739 147.322 123.733 147.302 123.726C147.283 123.719 147.263 123.712 147.244 123.704C147.225 123.697 147.206 123.688 147.187 123.68C147.168 123.671 147.149 123.662 147.131 123.652C147.113 123.643 147.095 123.633 147.077 123.623C147.059 123.612 147.041 123.601 147.024 123.59C147.007 123.579 146.989 123.567 146.973 123.555C146.956 123.543 146.939 123.53 146.923 123.517C146.907 123.505 146.891 123.491 146.876 123.478C146.86 123.464 146.845 123.45 146.831 123.436C146.816 123.421 146.801 123.407 146.787 123.392C146.773 123.377 146.759 123.361 146.746 123.346C146.733 123.33 146.72 123.314 146.708 123.298C146.695 123.281 146.683 123.265 146.671 123.248C146.66 123.231 146.649 123.214 146.638 123.196C146.627 123.179 146.616 123.161 146.607 123.143C146.597 123.125 146.587 123.107 146.578 123.089C146.569 123.07 146.561 123.052 146.552 123.033C146.544 123.014 146.537 122.995 146.53 122.976C146.523 122.957 146.516 122.937 146.51 122.918C146.504 122.898 146.498 122.879 146.493 122.859C146.488 122.839 146.483 122.819 146.479 122.8C146.474 122.78 146.471 122.759 146.467 122.739C146.464 122.719 146.462 122.699 146.459 122.679C146.457 122.658 146.456 122.638 146.454 122.617C146.453 122.597 146.452 122.577 146.452 122.556C146.452 122.536 146.452 122.516 146.453 122.495C146.454 122.475 146.455 122.454 146.457 122.434C146.459 122.414 146.462 122.394 146.465 122.373C146.467 122.353 146.471 122.333 146.475 122.313C146.479 122.293 146.483 122.273 146.488 122.253C146.493 122.233 146.498 122.214 146.504 122.194C146.51 122.174 146.516 122.155 146.523 122.136C146.53 122.116 146.537 122.097 146.545 122.078C146.553 122.059 146.561 122.041 146.57 122.022C146.578 122.004 146.588 121.985 146.597 121.967C146.607 121.949 146.617 121.931 146.627 121.914C146.638 121.896 146.649 121.879 146.66 121.862C146.672 121.845 146.683 121.828 146.696 121.811C146.708 121.795 146.72 121.779 146.734 121.763C146.747 121.747 146.76 121.731 146.774 121.716C146.788 121.701 146.802 121.686 146.816 121.671C146.831 121.656 146.846 121.642 146.861 121.629C146.876 121.615 146.892 121.601 146.908 121.588C146.924 121.575 146.94 121.562 146.956 121.55C146.973 121.537 146.99 121.525 147.007 121.514C147.024 121.502 147.042 121.491 147.059 121.481C147.077 121.47 147.095 121.46 147.113 121.45C147.132 121.44 147.15 121.431 147.169 121.422C147.187 121.413 147.206 121.404 147.226 121.396C147.245 121.388 147.264 121.381 147.283 121.373C147.303 121.366 147.323 121.36 147.342 121.354Z" fill="#FEFEFE"/>
<path d="M155.002 117.585C155.053 117.565 155.106 117.548 155.16 117.535C155.213 117.522 155.268 117.512 155.323 117.506C155.378 117.5 155.433 117.497 155.488 117.498C155.543 117.499 155.598 117.504 155.653 117.512C155.708 117.52 155.762 117.532 155.815 117.547C155.868 117.562 155.92 117.581 155.971 117.603C156.021 117.625 156.07 117.65 156.118 117.678C156.165 117.707 156.21 117.738 156.253 117.772C156.296 117.806 156.336 117.843 156.375 117.883C156.413 117.922 156.448 117.964 156.48 118.008C156.512 118.052 156.542 118.098 156.568 118.146C156.594 118.194 156.617 118.243 156.636 118.294C156.656 118.345 156.672 118.397 156.684 118.45C156.697 118.503 156.705 118.556 156.711 118.61C156.716 118.664 156.717 118.719 156.715 118.773C156.713 118.827 156.707 118.881 156.698 118.935C156.689 118.988 156.676 119.041 156.659 119.093C156.642 119.144 156.622 119.195 156.599 119.244C156.576 119.293 156.549 119.341 156.519 119.387C156.489 119.433 156.457 119.476 156.421 119.518C156.385 119.559 156.347 119.598 156.306 119.635C156.265 119.671 156.222 119.705 156.176 119.736C156.131 119.767 156.083 119.795 156.034 119.819C155.984 119.844 155.934 119.865 155.881 119.884C155.862 119.89 155.843 119.896 155.824 119.902C155.804 119.908 155.785 119.913 155.765 119.918C155.746 119.922 155.726 119.927 155.706 119.931C155.686 119.934 155.666 119.938 155.646 119.941C155.626 119.944 155.606 119.946 155.586 119.948C155.566 119.95 155.546 119.951 155.526 119.952C155.505 119.953 155.485 119.954 155.465 119.954C155.445 119.954 155.424 119.953 155.404 119.952C155.384 119.951 155.364 119.95 155.344 119.948C155.324 119.946 155.304 119.944 155.283 119.941C155.263 119.938 155.244 119.935 155.224 119.931C155.204 119.927 155.184 119.923 155.165 119.918C155.145 119.913 155.125 119.908 155.106 119.902C155.087 119.897 155.067 119.89 155.048 119.884C155.029 119.877 155.01 119.87 154.992 119.863C154.973 119.855 154.954 119.847 154.936 119.839C154.918 119.83 154.899 119.822 154.882 119.812C154.864 119.803 154.846 119.793 154.829 119.783C154.811 119.773 154.794 119.763 154.777 119.752C154.76 119.741 154.744 119.73 154.727 119.718C154.711 119.706 154.695 119.694 154.679 119.682C154.663 119.669 154.648 119.656 154.633 119.643C154.618 119.63 154.603 119.617 154.588 119.603C154.574 119.589 154.56 119.575 154.546 119.56C154.532 119.545 154.519 119.531 154.506 119.515C154.493 119.5 154.48 119.485 154.468 119.469C154.456 119.453 154.444 119.437 154.433 119.421C154.421 119.404 154.41 119.388 154.399 119.371C154.389 119.354 154.379 119.337 154.369 119.32C154.359 119.302 154.35 119.284 154.341 119.267C154.332 119.249 154.324 119.231 154.315 119.213C154.307 119.194 154.3 119.176 154.293 119.157C154.286 119.139 154.279 119.12 154.273 119.101C154.267 119.082 154.261 119.063 154.256 119.044C154.25 119.025 154.246 119.006 154.241 118.986C154.237 118.967 154.233 118.947 154.23 118.928C154.227 118.908 154.224 118.889 154.221 118.869C154.219 118.849 154.217 118.829 154.216 118.81C154.215 118.79 154.214 118.77 154.213 118.75C154.213 118.73 154.213 118.711 154.213 118.691C154.214 118.671 154.215 118.651 154.217 118.631C154.218 118.612 154.22 118.592 154.223 118.572C154.225 118.552 154.228 118.533 154.232 118.513C154.235 118.494 154.239 118.474 154.244 118.455C154.248 118.435 154.253 118.416 154.259 118.397C154.264 118.378 154.27 118.359 154.276 118.34C154.283 118.321 154.289 118.303 154.297 118.284C154.304 118.266 154.312 118.247 154.32 118.229C154.328 118.211 154.337 118.193 154.346 118.175C154.355 118.158 154.364 118.14 154.374 118.123C154.384 118.106 154.395 118.088 154.405 118.072C154.416 118.055 154.427 118.038 154.439 118.022C154.45 118.006 154.462 117.99 154.475 117.974C154.487 117.959 154.5 117.943 154.513 117.928C154.526 117.913 154.54 117.898 154.554 117.884C154.568 117.869 154.582 117.855 154.596 117.841C154.611 117.828 154.626 117.814 154.641 117.801C154.656 117.788 154.672 117.775 154.688 117.763C154.704 117.751 154.72 117.739 154.736 117.727C154.753 117.716 154.769 117.705 154.786 117.694C154.803 117.683 154.821 117.673 154.838 117.663C154.856 117.653 154.873 117.643 154.891 117.634C154.909 117.625 154.928 117.617 154.946 117.608C154.964 117.6 154.983 117.592 155.002 117.585Z" fill="#FEFEFE"/>
<path d="M164.476 129.388C164.495 129.381 164.514 129.375 164.533 129.369C164.552 129.364 164.571 129.359 164.59 129.354C164.609 129.349 164.629 129.345 164.649 129.341C164.668 129.338 164.688 129.334 164.708 129.331C164.727 129.328 164.747 129.326 164.767 129.324C164.787 129.322 164.806 129.321 164.826 129.32C164.846 129.319 164.866 129.318 164.886 129.318C164.906 129.318 164.926 129.319 164.946 129.32C164.966 129.321 164.986 129.322 165.005 129.324C165.025 129.326 165.045 129.328 165.065 129.331C165.084 129.333 165.104 129.337 165.124 129.34C165.143 129.344 165.163 129.348 165.182 129.353C165.201 129.358 165.221 129.363 165.24 129.368C165.259 129.374 165.278 129.38 165.296 129.386C165.315 129.393 165.334 129.399 165.352 129.407C165.371 129.414 165.389 129.422 165.407 129.43C165.425 129.438 165.443 129.447 165.461 129.456C165.478 129.465 165.496 129.474 165.513 129.484C165.53 129.494 165.547 129.504 165.564 129.515C165.581 129.526 165.597 129.537 165.613 129.548C165.63 129.56 165.645 129.571 165.661 129.583C165.676 129.596 165.692 129.608 165.707 129.621C165.722 129.634 165.736 129.647 165.751 129.661C165.765 129.674 165.779 129.688 165.793 129.702C165.806 129.717 165.819 129.731 165.832 129.746C165.845 129.761 165.858 129.776 165.87 129.792C165.882 129.807 165.894 129.823 165.905 129.839C165.917 129.855 165.928 129.871 165.938 129.888C165.949 129.904 165.959 129.921 165.969 129.938C165.979 129.955 165.988 129.973 165.997 129.99C166.006 130.008 166.014 130.025 166.022 130.043C166.03 130.061 166.038 130.079 166.045 130.097C166.052 130.115 166.059 130.134 166.065 130.152C166.072 130.171 166.077 130.19 166.083 130.209C166.088 130.227 166.093 130.246 166.097 130.265C166.102 130.284 166.106 130.304 166.109 130.323C166.113 130.342 166.116 130.361 166.118 130.381C166.12 130.4 166.123 130.42 166.124 130.439C166.126 130.459 166.127 130.478 166.127 130.498C166.128 130.517 166.128 130.537 166.128 130.556C166.128 130.576 166.127 130.595 166.125 130.615C166.124 130.634 166.122 130.654 166.12 130.673C166.118 130.692 166.115 130.712 166.112 130.731C166.108 130.75 166.105 130.769 166.101 130.789C166.096 130.808 166.092 130.827 166.087 130.846C166.082 130.864 166.076 130.883 166.07 130.902C166.064 130.921 166.058 130.939 166.051 130.957C166.044 130.976 166.036 130.994 166.029 131.012C166.021 131.03 166.012 131.048 166.004 131.065C165.995 131.083 165.986 131.1 165.977 131.117C165.967 131.134 165.957 131.151 165.946 131.168C165.936 131.185 165.925 131.201 165.914 131.217C165.903 131.233 165.891 131.249 165.88 131.265C165.868 131.281 165.855 131.296 165.842 131.311C165.83 131.326 165.817 131.341 165.803 131.355C165.79 131.37 165.776 131.384 165.762 131.397C165.748 131.411 165.733 131.425 165.719 131.438C165.704 131.451 165.689 131.463 165.673 131.476C165.658 131.488 165.642 131.5 165.626 131.512C165.61 131.523 165.594 131.535 165.577 131.546C165.561 131.557 165.544 131.567 165.527 131.577C165.51 131.587 165.492 131.597 165.475 131.606C165.457 131.615 165.44 131.624 165.422 131.632C165.404 131.641 165.385 131.649 165.367 131.656C165.316 131.677 165.264 131.695 165.211 131.709C165.157 131.723 165.103 131.733 165.049 131.74C164.994 131.748 164.939 131.751 164.884 131.751C164.829 131.75 164.774 131.747 164.719 131.739C164.665 131.732 164.611 131.721 164.557 131.707C164.504 131.692 164.452 131.674 164.402 131.653C164.351 131.632 164.302 131.608 164.254 131.58C164.207 131.552 164.162 131.521 164.118 131.488C164.075 131.454 164.034 131.418 163.996 131.379C163.958 131.34 163.922 131.299 163.89 131.255C163.857 131.212 163.827 131.166 163.801 131.119C163.774 131.071 163.751 131.022 163.731 130.972C163.711 130.921 163.695 130.87 163.682 130.817C163.669 130.764 163.66 130.711 163.655 130.657C163.649 130.603 163.647 130.549 163.649 130.495C163.651 130.441 163.656 130.387 163.665 130.334C163.674 130.281 163.687 130.228 163.703 130.176C163.72 130.125 163.739 130.074 163.762 130.025C163.785 129.976 163.812 129.929 163.841 129.883C163.871 129.837 163.903 129.794 163.939 129.752C163.974 129.711 164.012 129.672 164.053 129.636C164.094 129.599 164.137 129.565 164.182 129.535C164.228 129.504 164.275 129.476 164.324 129.451C164.373 129.427 164.424 129.406 164.476 129.388Z" fill="#FEFEFE"/>
<path d="M57.7181 181.351L57.7194 153.899C57.7181 151.773 57.4486 142.867 57.9037 141.502C58.2471 141.294 64.8649 141.308 65.555 141.475C65.7428 141.52 65.869 141.587 66.0105 141.719C66.2653 142.995 66.124 144.445 66.1125 145.744L66.0695 152.053L66.034 181.392L69.5836 181.378C72.293 181.369 75.016 181.412 77.7234 181.331C78.753 181.307 79.7869 181.321 80.817 181.317C80.878 173.891 80.8983 166.465 80.8778 159.04C83.4871 159.078 86.2236 158.863 88.8085 159.16C88.9901 161.151 88.877 163.214 88.9279 165.217C89.0866 170.627 89.1646 176.039 89.1619 181.452C91.2482 181.477 94.6176 181.203 96.5421 181.546C96.7867 181.589 96.9361 181.58 97.082 181.78C96.8036 182.003 96.5133 181.971 96.1758 181.979C89.69 182.122 83.185 181.847 76.6968 181.846L38.62 181.891C38.5483 179.036 38.6119 176.164 38.6101 173.308L38.5956 156.165C38.5936 154.561 38.358 146.048 38.6532 145.127C38.7274 144.896 38.6704 144.971 38.8784 144.865C39.041 145.051 39.0649 145.24 39.0846 145.481C39.1825 146.684 39.1022 147.956 39.1041 149.164L39.1188 156.592L39.1084 181.367C42.6536 181.582 46.3027 181.416 49.8584 181.416C52.166 181.417 55.5029 181.601 57.7181 181.351Z" fill="black"/>
<path d="M69.5899 148.282C70.7147 148.278 76.9067 148.083 77.5631 148.494C77.9694 151.152 77.715 155.759 77.713 158.594C77.708 166.162 77.568 173.769 77.7236 181.332C75.0162 181.413 72.2932 181.37 69.5838 181.379L69.5826 159.463C69.5811 155.75 69.4529 151.991 69.5899 148.282Z" fill="#2B466E"/>
<path d="M46.267 181.33L46.2955 165.155C46.2962 163.415 46.0703 157.943 46.4492 156.754C46.9839 156.34 52.9924 156.444 54.0743 156.561C54.2404 156.746 54.3268 156.892 54.3521 157.143C54.4204 157.817 54.3291 158.556 54.3298 159.239L54.3422 164.447L54.3255 181.33C55.4502 181.329 56.5974 181.28 57.719 181.351C55.5038 181.602 52.167 181.417 49.8593 181.417C46.3036 181.417 42.6546 181.582 39.1093 181.368C41.4878 181.265 43.8861 181.328 46.267 181.33Z" fill="#FDBE50"/>
<path d="M38.5549 108.824C41.8591 108.745 45.1799 108.809 48.486 108.811L67.247 108.813L90.1906 108.808C93.1537 108.81 96.1398 108.73 99.0991 108.78C99.4414 108.786 99.8748 108.773 100.184 108.918C100.359 108.999 100.346 109.181 100.393 109.35C97.571 109.451 94.7229 109.375 91.8984 109.373L76.7732 109.372L39.9503 109.392C39.5259 109.388 39.0136 109.419 38.6279 109.244L38.5549 108.824Z" fill="black"/>
<path d="M38.4846 119.593C40.0636 119.266 42.6914 119.496 44.4029 119.503L56.604 119.53L84.2452 119.559C89.2354 119.554 94.2496 119.432 99.2364 119.536C99.5972 119.544 100.028 119.478 100.336 119.667L100.318 120.024C84.7797 120.305 69.2002 120.086 53.6585 120.062L43.0667 120.037C41.8124 120.037 40.1036 120.291 38.9069 120.002C38.62 119.933 38.6205 119.833 38.4846 119.593Z" fill="black"/>
<path d="M38.4924 114.21C44.2454 114.35 50.0231 114.252 55.779 114.248L86.4051 114.227C90.7326 114.227 95.1008 114.082 99.423 114.196C99.7564 114.205 100.078 114.193 100.363 114.382L100.412 114.723C95.1847 114.863 89.9205 114.748 84.6884 114.751L54.6371 114.772L42.684 114.781C41.7611 114.782 39.5084 114.947 38.7637 114.765C38.6827 114.745 38.6242 114.676 38.5543 114.631L38.4924 114.21Z" fill="black"/>
<path d="M38.5902 124.882C41.3128 124.788 44.0618 124.867 46.7881 124.868L62.5385 124.878L78.2851 124.893C80.5778 124.897 82.909 124.806 85.1957 124.884C85.5825 124.897 85.9212 124.914 86.2768 125.073L86.4046 125.415C79.5632 125.641 72.6494 125.442 65.7983 125.45C56.8343 125.459 47.8306 125.621 38.8712 125.424C38.6083 125.235 38.6601 125.18 38.5902 124.882Z" fill="black"/>
<path d="M173.476 156.096C184.17 156.002 194.917 155.896 205.609 156.106L205.627 196.915L189.66 196.919L157.349 196.905L157.308 156.106C162.693 156.037 168.089 156.112 173.476 156.096Z" fill="#FEFEFE"/>
<path d="M162.359 161.922C165.421 161.956 168.483 161.964 171.545 161.947L171.543 171.028C168.475 170.987 165.407 170.991 162.339 171.042L162.359 161.922Z" fill="black"/>
<path d="M163.403 162.91L170.502 162.932L170.499 170.004C168.148 170.086 165.758 170.006 163.404 170.003L163.403 162.91Z" fill="#FEFEFE"/>
<path d="M162.365 173.422C165.4 173.493 168.445 173.443 171.481 173.441C171.562 176.48 171.523 179.528 171.522 182.569L162.4 182.553L162.365 173.422Z" fill="black"/>
<path d="M163.409 174.465L170.517 174.47L170.527 181.536L163.412 181.536L163.409 174.465Z" fill="#FEFEFE"/>
<path d="M162.463 185.033C165.48 185.073 168.5 185.055 171.518 185.062C171.554 187.923 171.563 190.784 171.548 193.645C168.545 193.769 165.497 193.653 162.489 193.633C162.443 190.768 162.466 187.899 162.463 185.033Z" fill="black"/>
<path d="M163.455 186.098C165.819 186.067 168.183 186.064 170.546 186.09C170.7 188.261 170.594 190.49 170.579 192.667C168.229 192.668 165.833 192.766 163.49 192.608C163.266 190.516 163.372 188.203 163.455 186.098Z" fill="#FEFEFE"/>
<path d="M176.941 177.031C179.227 177.075 196.231 176.841 196.748 177.111L196.82 177.643C192.535 177.72 188.238 177.67 183.952 177.669C181.739 177.668 179.381 177.834 177.185 177.661C176.931 177.445 176.977 177.35 176.941 177.031Z" fill="black"/>
<path d="M176.643 165.403C178.659 165.427 195.935 165.177 196.654 165.454L196.804 165.801C196.689 165.888 196.617 165.953 196.467 165.994C195.612 166.226 190.173 166.021 188.844 166.018C185.15 166.009 181.432 166.139 177.742 166.047C177.429 166.039 177.027 166.069 176.762 165.909L176.643 165.403Z" fill="black"/>
<path d="M176.882 188.754C178.819 188.636 196.259 188.593 196.657 188.807C196.788 188.878 196.817 189.174 196.854 189.314C194.972 189.35 177.513 189.488 177.113 189.315C176.971 189.253 176.925 188.901 176.882 188.754Z" fill="black"/>
<path d="M111.881 142.318C117.205 142.252 122.537 142.337 127.862 142.337L150.9 142.331C150.668 142.865 150.368 143.435 150.311 144.017C150.187 145.3 150.264 146.643 150.269 147.932L150.29 155.155L150.257 177.668L150.179 177.909C149.366 178.218 141.29 178.005 139.683 178.004L111.879 177.959L111.881 142.318Z" fill="#FDBE50"/>
<path d="M9.05221 198.428C16.4961 198.251 23.9772 198.409 31.4266 198.399L77.5699 198.384L120.556 198.389C130.451 198.377 140.37 198.262 150.264 198.472C150.287 199.811 150.047 201.227 150.369 202.544C150.724 203.989 151.622 204.942 152.886 205.692L149.219 205.688L53.5606 205.65L24.5956 205.683C19.8108 205.69 14.9534 205.867 10.1759 205.676C9.3133 205.642 8.51281 205.538 7.76252 205.085C6.86766 204.545 6.17091 203.629 5.96363 202.612C5.77878 201.705 5.96944 200.802 6.49168 200.034C7.13865 199.083 7.93177 198.656 9.05221 198.428Z" fill="#FEFEFE"/>
<path d="M153.847 141.194C153.991 141.187 154.136 141.18 154.281 141.176C157.916 141.051 161.602 141.171 165.241 141.167L187.423 141.143L200.694 141.136C203.001 141.135 205.461 140.972 207.753 141.217C208.647 141.313 209.479 141.77 210.119 142.379C210.753 142.982 211.286 143.83 211.421 144.696C211.699 146.476 211.537 148.451 211.537 150.252L211.53 160.155L211.571 196.935L206.166 196.936L206.219 148.361L206.214 146.482C189.696 146.253 173.151 146.472 156.629 146.491L156.748 196.889L150.747 196.918L150.823 164.632L150.815 151.476C150.812 149.302 150.71 147.087 150.806 144.918C150.831 144.361 150.892 143.805 151.147 143.298C151.68 142.234 152.735 141.562 153.847 141.194Z" fill="#FEFEFE"/>
<path d="M150.768 197.504C160.794 197.315 170.848 197.498 180.879 197.485C196.41 197.465 211.959 197.339 227.488 197.516C227.547 200.08 227.506 201.883 225.622 203.894C224.712 204.765 223.581 205.475 222.302 205.657C220.141 205.966 217.704 205.749 215.514 205.745L202.415 205.745L156.031 205.736C154.41 205.73 153.232 205.532 152.048 204.311C150.313 202.521 150.741 199.78 150.768 197.504Z" fill="#FEFEFE"/>
<path d="M157.305 147.072L205.628 147.066C205.645 149.87 205.618 152.676 205.592 155.48C200.226 155.6 194.834 155.497 189.465 155.502L157.305 155.503L157.305 147.072Z" fill="#FEFEFE"/>
<path d="M194.74 151.188C195.416 151.146 196.139 151.032 196.794 151.23C197.064 151.491 197.008 151.563 197.021 151.923C196.33 151.958 195.521 152.1 194.871 151.84C194.684 151.569 194.719 151.52 194.74 151.188Z" fill="black"/>
<path d="M114.698 35.3598C114.997 35.3459 115.295 35.3393 115.594 35.3399C115.893 35.3405 116.192 35.3483 116.491 35.3634C116.789 35.3783 117.088 35.4005 117.385 35.4299C117.683 35.4593 117.979 35.4959 118.275 35.5395C118.571 35.5832 118.865 35.6341 119.158 35.6921C119.451 35.7499 119.743 35.8148 120.033 35.8868C120.323 35.9588 120.61 36.0377 120.896 36.1234C121.182 36.2093 121.466 36.302 121.747 36.4015C122.029 36.5012 122.307 36.6075 122.583 36.7205C122.859 36.8334 123.132 36.953 123.402 37.0791C123.672 37.2054 123.939 37.338 124.202 37.477C124.465 37.6159 124.725 37.7612 124.981 37.9128C125.237 38.0643 125.489 38.2219 125.737 38.3856C125.985 38.5494 126.229 38.719 126.469 38.8944C126.709 39.0699 126.944 39.2511 127.174 39.4379C127.405 39.6247 127.631 39.8169 127.851 40.0146C128.072 40.2124 128.288 40.4153 128.499 40.6234C128.71 40.8315 128.915 41.0447 129.115 41.2628C129.315 41.4807 129.509 41.7034 129.698 41.9308C129.887 42.1582 130.07 42.39 130.248 42.6263C130.425 42.8625 130.596 43.1029 130.761 43.3475C130.926 43.592 131.085 43.8404 131.238 44.0925C131.391 44.3447 131.537 44.6004 131.677 44.8596C131.817 45.1188 131.95 45.3812 132.077 45.6469C132.204 45.9126 132.324 46.1812 132.437 46.4526C132.551 46.7241 132.657 46.9982 132.757 47.2748C132.856 47.5514 132.949 47.8303 133.034 48.1113C133.12 48.3924 133.198 48.6753 133.27 48.9601C133.341 49.245 133.405 49.5314 133.462 49.8193C133.519 50.1073 133.569 50.3965 133.612 50.6869C133.654 50.9771 133.69 51.2683 133.718 51.5605C133.745 51.8525 133.766 52.145 133.779 52.4381C133.793 52.7311 133.798 53.0243 133.797 53.3176C133.796 53.611 133.787 53.9041 133.771 54.197C133.755 54.4899 133.731 54.7822 133.7 55.0739C133.67 55.3658 133.631 55.6567 133.586 55.9466C133.541 56.2366 133.488 56.5252 133.428 56.8125C133.368 57.0999 133.301 57.3857 133.227 57.6699C133.153 57.954 133.072 58.2363 132.984 58.5166C132.895 58.7968 132.8 59.0747 132.698 59.3503C132.595 59.626 132.486 59.8991 132.37 60.1693C132.254 60.4398 132.132 60.7072 132.002 60.9717C131.873 61.2362 131.737 61.4974 131.595 61.7553C131.452 62.0131 131.303 62.2675 131.148 62.5182C130.993 62.769 130.832 63.0158 130.664 63.2587C130.496 63.5017 130.323 63.7404 130.143 63.9751C129.964 64.2096 129.778 64.4397 129.587 64.6653C129.396 64.8909 129.2 65.1118 128.998 65.328C128.795 65.5441 128.588 65.7553 128.375 65.9614C128.162 66.1675 127.945 66.3683 127.722 66.5639C127.499 66.7596 127.271 66.9497 127.039 67.1344C126.807 67.319 126.57 67.498 126.329 67.6713C126.087 67.8444 125.842 68.0117 125.592 68.1732C125.342 68.3345 125.089 68.4897 124.831 68.6389C124.574 68.788 124.313 68.9308 124.048 69.0674C123.783 69.2039 123.515 69.334 123.244 69.4577C122.973 69.5813 122.699 69.6983 122.422 69.8086C122.145 69.919 121.865 70.0227 121.583 70.1195C121.301 70.2164 121.016 70.3064 120.729 70.3897C120.443 70.4729 120.154 70.5491 119.863 70.6183C119.573 70.6875 119.281 70.7497 118.987 70.8048C118.693 70.86 118.398 70.908 118.102 70.949C117.806 70.9899 117.509 71.0237 117.211 71.0503C116.914 71.0768 116.615 71.0962 116.317 71.1084C116.019 71.1206 115.721 71.1256 115.423 71.1235C115.125 71.1213 114.827 71.112 114.53 71.0956C114.232 71.079 113.935 71.0554 113.639 71.0246C113.343 70.9939 113.047 70.956 112.753 70.9111C112.459 70.8661 112.165 70.8141 111.873 70.7552C111.582 70.6962 111.292 70.6301 111.003 70.5571C110.715 70.4841 110.428 70.4042 110.143 70.3174C109.859 70.2307 109.577 70.1372 109.297 70.0368C109.017 69.9364 108.74 69.8294 108.465 69.7159C108.191 69.6022 107.919 69.482 107.651 69.3553C107.382 69.2286 107.117 69.0954 106.855 68.9558C106.593 68.8164 106.335 68.6708 106.08 68.5189C105.826 68.3671 105.575 68.2092 105.328 68.0452C105.082 67.8812 104.839 67.7115 104.601 67.536C104.363 67.3604 104.129 67.1792 103.9 66.9924C103.671 66.8055 103.446 66.6133 103.227 66.4158C103.007 66.2181 102.793 66.0153 102.583 65.8075C102.374 65.5996 102.17 65.3867 101.971 65.1689C101.772 64.9512 101.579 64.7288 101.391 64.5018C101.204 64.2747 101.022 64.0433 100.846 63.8076C100.67 63.5718 100.499 63.3319 100.335 63.088C100.171 62.844 100.013 62.5963 99.8615 62.3448C99.7097 62.0933 99.5642 61.8382 99.4251 61.5796C99.2861 61.3212 99.1537 61.0595 99.0276 60.7945C98.9018 60.5296 98.7826 60.2618 98.67 59.9912C98.5574 59.7205 98.4516 59.4474 98.3528 59.1718C98.2537 58.896 98.1617 58.6181 98.0767 58.3379C97.9917 58.0577 97.9137 57.7757 97.8427 57.4918C97.7719 57.2079 97.7081 56.9225 97.6515 56.6355C97.5948 56.3485 97.5453 56.0604 97.5029 55.7712C97.4606 55.4819 97.4255 55.1916 97.3978 54.9005C97.37 54.6095 97.3495 54.318 97.3363 54.026C97.323 53.734 97.3171 53.4418 97.3184 53.1495C97.3198 52.8572 97.3284 52.5651 97.3444 52.2733C97.3604 51.9814 97.3837 51.6901 97.4143 51.3992C97.4447 51.1086 97.4825 50.8188 97.5276 50.5299C97.5725 50.2408 97.6246 49.9531 97.684 49.6667C97.7434 49.3803 97.8099 49.0955 97.8836 48.8122C97.9572 48.5289 98.0378 48.2476 98.1256 47.9683C98.2131 47.6889 98.3077 47.4118 98.4093 47.1371C98.5107 46.8622 98.619 46.59 98.7342 46.3205C98.8493 46.0508 98.9711 45.7841 99.0995 45.5203C99.228 45.2565 99.3629 44.996 99.5042 44.7387C99.6458 44.4815 99.7936 44.2277 99.9476 43.9776C100.102 43.7274 100.262 43.4811 100.428 43.2386C100.595 42.9963 100.767 42.758 100.946 42.5238C101.124 42.2896 101.308 42.0598 101.498 41.8345C101.688 41.6092 101.883 41.3886 102.084 41.1727C102.285 40.9567 102.491 40.7457 102.702 40.5398C102.913 40.3336 103.13 40.1328 103.351 39.9372C103.573 39.7416 103.799 39.5514 104.03 39.3668C104.261 39.1819 104.496 39.0028 104.736 38.8294C104.976 38.6559 105.22 38.4884 105.468 38.3268C105.716 38.1651 105.968 38.0095 106.224 37.86C106.48 37.7103 106.74 37.567 107.003 37.4299C107.266 37.2929 107.533 37.1622 107.803 37.0378C108.072 36.9135 108.345 36.7958 108.621 36.6848C108.896 36.5736 109.174 36.469 109.455 36.3712C109.736 36.2734 110.019 36.1824 110.304 36.0981C110.59 36.014 110.877 35.9368 111.166 35.8664C111.455 35.796 111.746 35.7326 112.039 35.6761C112.331 35.6198 112.624 35.5705 112.919 35.5282C113.214 35.4859 113.51 35.4507 113.806 35.4226C114.103 35.3945 114.4 35.3736 114.698 35.3598Z" fill="black"/>
<path d="M119.663 41.8684C120.252 41.8378 121.16 41.7109 121.657 42.0771C121.853 42.2219 121.956 42.4656 121.994 42.6976C122.158 43.691 122.15 45.3033 121.524 46.1408C120.795 47.1155 119.382 47.2246 118.263 47.3901L118.256 49.3464C118.904 49.357 119.554 49.3014 120.201 49.2745C120.612 49.2574 121.184 49.1752 121.511 49.4688C121.741 49.992 121.777 50.5205 121.792 51.0836C121.814 51.8436 121.968 53.7325 121.406 54.3134C120.488 54.5647 119.261 54.4181 118.306 54.4216C118.294 56.1748 118.606 63.417 118.065 64.4723C117.382 64.9986 116.552 64.8473 115.73 64.8262C114.881 64.84 113.814 64.9719 113.034 64.5962C112.501 63.8466 112.746 55.9969 112.681 54.4365C111.934 54.3761 110.256 54.6545 109.735 54.1796C109.325 52.9807 109.314 50.8068 109.759 49.6103C110.306 49.1306 111.941 49.3497 112.681 49.365C112.639 47.2381 112.711 45.2082 114.328 43.5708C115.835 42.0454 117.652 41.9367 119.663 41.8684Z" fill="#FEFEFE"/>
<path d="M118.259 43.303C119.017 43.2438 119.792 43.2695 120.553 43.2676C120.575 43.7765 120.675 44.504 120.478 44.9759C119.823 46.5417 118.048 45.494 117.246 45.9358C116.999 46.2423 116.918 46.4865 116.866 46.8744C116.753 47.7032 116.525 49.8414 117.134 50.4444C117.686 50.9904 119.57 50.7043 120.339 50.7074L120.335 53.0428C119.791 53.0672 117.487 52.8795 117.154 53.2297C116.523 53.8924 116.81 61.9493 116.814 63.399C115.975 63.515 115.06 63.4445 114.211 63.4398C114.198 61.3442 114.196 59.2486 114.205 57.153C114.207 56.0592 114.312 54.8687 114.154 53.7879C113.942 52.3397 111.861 53.503 110.987 52.872C110.786 52.2643 110.909 51.3965 110.926 50.7495L114.112 50.7238C114.096 48.7229 113.771 46.2986 115.19 44.6632C116.009 43.7204 117.054 43.4193 118.259 43.303Z" fill="black"/>
<path d="M185.153 53.0324C186.538 55.5917 187.507 58.1444 187.622 61.0673C187.809 65.8382 186.319 70.2658 182.981 73.8006C179.715 77.2581 175.256 79.1353 170.469 79.2854C165.644 79.4369 161.097 77.6556 157.604 74.4129C153.977 71.0465 151.984 66.8096 151.893 61.8914C151.806 57.165 153.654 52.2608 157.023 48.854C157.222 48.6516 157.425 48.4542 157.633 48.2617C157.841 48.0691 158.054 47.8818 158.272 47.6997C158.489 47.5174 158.711 47.3405 158.938 47.1689C159.164 46.9974 159.395 46.8315 159.63 46.6713C159.865 46.5108 160.103 46.3563 160.346 46.2075C160.589 46.0588 160.835 45.916 161.085 45.779C161.334 45.6421 161.587 45.5114 161.844 45.3867C162.1 45.2619 162.359 45.1435 162.622 45.0314C162.884 44.9192 163.149 44.8135 163.416 44.7143C163.684 44.6149 163.954 44.5221 164.226 44.4357C164.498 44.3495 164.773 44.2699 165.049 44.1969C165.325 44.1238 165.603 44.0575 165.883 43.9979C166.162 43.9383 166.443 43.8856 166.725 43.8396C167.008 43.7936 167.291 43.7544 167.575 43.722C167.859 43.6898 168.144 43.6644 168.43 43.6457C168.715 43.6273 169.001 43.6156 169.287 43.6109C174.093 43.5479 178.16 45.4206 181.539 48.6739L182.076 49.186C182.561 49.5116 182.904 49.996 183.271 50.4404C183.764 51.0639 184.249 51.6842 184.693 52.3422L185.153 53.0324Z" fill="#FDBE50"/>
<path d="M179.676 55.9921C179.856 56.3838 180.133 56.752 180.343 57.1323C181.593 59.4038 181.792 62.0891 181.051 64.552C180.995 64.7364 180.935 64.9193 180.869 65.1007C180.804 65.2821 180.735 65.4619 180.66 65.6401C180.586 65.8182 180.508 65.9945 180.425 66.169C180.342 66.3433 180.255 66.5156 180.164 66.686C180.073 66.8561 179.977 67.0241 179.877 67.1899C179.778 67.3556 179.674 67.5188 179.566 67.6795C179.459 67.8404 179.347 67.9985 179.231 68.1539C179.116 68.3095 178.997 68.4621 178.873 68.6119C178.75 68.7617 178.624 68.9084 178.493 69.0521C178.363 69.1959 178.229 69.3364 178.092 69.4738C177.954 69.6111 177.814 69.7451 177.67 69.8758C177.526 70.0065 177.379 70.1337 177.228 70.2573C177.078 70.3811 176.925 70.5011 176.769 70.6175C176.613 70.7338 176.454 70.8464 176.292 70.9552C176.13 71.0641 175.966 71.169 175.799 71.27C175.632 71.3709 175.463 71.4679 175.291 71.5607C175.128 71.646 174.963 71.7273 174.796 71.8047C174.629 71.882 174.461 71.9553 174.29 72.0245C174.12 72.0936 173.947 72.1587 173.774 72.2196C173.6 72.2807 173.425 72.3375 173.248 72.3899C173.071 72.4424 172.894 72.4907 172.715 72.5348C172.535 72.5788 172.355 72.6185 172.174 72.6539C171.993 72.6892 171.812 72.7202 171.629 72.7468C171.447 72.7734 171.263 72.7957 171.08 72.8136C170.896 72.8313 170.712 72.8447 170.528 72.8537C170.343 72.8627 170.159 72.8673 169.974 72.8674C169.79 72.8676 169.605 72.8633 169.421 72.8546C169.237 72.8459 169.053 72.8327 168.869 72.8151C168.685 72.7975 168.502 72.7756 168.32 72.7492C168.137 72.7228 167.955 72.692 167.774 72.657C167.593 72.6218 167.413 72.5824 167.234 72.5388C167.055 72.495 166.877 72.4469 166.7 72.3946C163.73 71.5208 161.254 69.3764 159.799 66.7124C158.373 64.1027 158.102 60.8361 158.995 58.013C159.894 55.1733 162.185 52.7005 164.849 51.3332C166.075 50.704 168.03 49.9147 169.409 50.331C169.34 53.1188 169.523 55.9003 169.549 58.687C169.555 59.3401 169.373 60.736 169.516 61.2756C169.539 61.3639 169.604 61.4366 169.647 61.5171C169.888 61.5815 169.904 61.5954 170.131 61.4721C171.025 60.9875 171.85 60.3 172.737 59.7815C174.074 59.0008 175.545 58.3437 176.832 57.4969C177.627 57.1627 178.521 56.671 179.231 56.1862L179.676 55.9921Z" fill="#FEFEFE"/>
<path d="M181.536 48.6738L182.073 49.1859C182.558 49.5115 182.901 49.9959 183.268 50.4403C183.761 51.0637 184.246 51.6841 184.69 52.3421C183.116 53.2647 181.524 54.1733 180.022 55.2079C179.712 55.4415 179.34 55.6617 179.181 56.0228L179.232 56.1884C178.521 56.6732 177.627 57.1649 176.832 57.4991C175.545 58.3459 174.074 59.003 172.738 59.7837C171.85 60.3022 171.026 60.9898 170.132 61.4743C169.904 61.5977 169.888 61.5837 169.648 61.5194C169.604 61.4389 169.54 61.3661 169.516 61.2778C169.374 60.7383 169.555 59.3424 169.549 58.6892C169.524 55.9025 169.341 53.121 169.41 50.3332C169.585 50.407 169.735 50.4938 169.899 50.59C170.096 51.4173 169.97 52.5011 169.991 53.3581C170.04 55.1771 170.109 56.9953 170.2 58.8128C174.045 55.5113 177.67 51.9566 181.536 48.6738Z" fill="black"/>
<path d="M178.543 52.2207C179.255 52.4893 179.699 52.8168 180.206 53.3704L179.416 54.1187C178.61 54.8408 177.651 55.4505 176.881 56.1928C174.689 57.5485 172.636 59.3882 170.261 60.4386L170.148 60.3616L170.14 60.1137C170.699 58.8701 177.007 53.5248 178.543 52.2207Z" fill="#FEFEFE"/>
<path d="M183.269 50.4395C183.762 51.0629 184.247 51.6832 184.691 52.3412C183.117 53.2638 181.525 54.1725 180.023 55.2071C179.899 54.8163 179.637 54.4646 179.417 54.1186L180.206 53.3703C181.283 52.475 182.302 51.4483 183.269 50.4395Z" fill="#4075D7"/>
<path d="M182.075 49.1855C182.56 49.5111 182.903 49.9955 183.27 50.4399C182.303 51.4488 181.284 52.4754 180.207 53.3708C179.7 52.8172 179.256 52.4896 178.544 52.2211L182.075 49.1855Z" fill="#4075D7"/>
<path d="M179.415 54.1191C179.636 54.4651 179.898 54.8169 180.022 55.2076C179.712 55.4412 179.34 55.6614 179.181 56.0225L179.232 56.1881C178.521 56.6729 177.627 57.1646 176.832 57.4989C177.129 57.0045 177.723 56.7869 178.223 56.5219L178.213 56.4671C178.002 56.3871 177.951 56.3751 177.804 56.1968C177.827 56.1393 177.94 55.8537 177.954 55.8007C177.966 55.7495 177.96 55.6951 177.969 55.643C177.971 55.6326 177.98 55.6253 177.986 55.6162C177.708 55.8129 177.347 56.1285 177.011 56.1872C176.968 56.195 176.924 56.1912 176.88 56.1932C177.65 55.4509 178.609 54.8413 179.415 54.1191Z" fill="#212021"/>
<path d="M180.022 55.2096C181.524 54.175 183.115 53.2664 184.69 52.3438L185.15 53.0339C183.205 53.7148 181.467 55.0036 179.676 55.996L179.231 56.1901L179.181 56.0244C179.339 55.6634 179.711 55.4431 180.022 55.2096Z" fill="black"/>
<path d="M59.5624 47.9912C59.8519 47.9672 60.1418 47.9503 60.4321 47.9404C60.7224 47.9303 61.0128 47.9274 61.3032 47.9315C61.5938 47.9355 61.8841 47.9465 62.1739 47.9645C62.4639 47.9826 62.7532 48.0076 63.0419 48.0395C63.3306 48.0714 63.6184 48.1103 63.9051 48.1562C64.1917 48.202 64.4771 48.2547 64.7612 48.3143C65.0454 48.3739 65.3278 48.4403 65.6086 48.5135C65.8894 48.5865 66.1682 48.6663 66.4449 48.753C66.7217 48.8396 66.9961 48.9328 67.2683 49.0326C67.5404 49.1326 67.8098 49.239 68.0766 49.3518C68.3434 49.4646 68.6071 49.5838 68.8679 49.7093C69.1288 49.8348 69.3863 49.9666 69.6404 50.1045C69.8947 50.2425 70.1454 50.3864 70.3924 50.5363C70.6395 50.6864 70.8826 50.8423 71.1218 51.004C71.361 51.1658 71.596 51.3332 71.8267 51.5062C72.0575 51.6793 72.2839 51.8578 72.5059 52.0418C72.7277 52.2257 72.9449 52.4149 73.1572 52.6093C73.3696 52.8037 73.577 53.0032 73.7794 53.2077C73.9819 53.412 74.1791 53.6211 74.3711 53.8351C74.563 54.049 74.7494 54.2674 74.9304 54.4902C75.1115 54.7132 75.2868 54.9404 75.4563 55.1718C75.626 55.403 75.7898 55.6383 75.9476 55.8777C76.1056 56.1169 76.2573 56.3598 76.4029 56.6062C76.5487 56.8528 76.6881 57.1028 76.8212 57.3561C76.9545 57.6093 77.0812 57.8657 77.2015 58.125C77.3219 58.3843 77.4357 58.6465 77.5429 58.9114C77.6502 59.1762 77.7507 59.4435 77.8445 59.7132C77.9384 59.983 78.0254 60.2548 78.1056 60.5286C78.1858 60.8026 78.2591 61.0783 78.3256 61.3557C78.3919 61.633 78.4514 61.9119 78.504 62.1922C78.5564 62.4726 78.6018 62.754 78.6401 63.0365C78.6785 63.3189 78.7098 63.6022 78.7339 63.8862C78.758 64.1702 78.7751 64.4546 78.785 64.7394C78.795 65.0241 78.7978 65.3091 78.7936 65.5941C78.7892 65.879 78.7778 66.1637 78.7592 66.4482C78.7405 66.7325 78.7149 67.0163 78.6821 67.2994C78.6493 67.5825 78.6094 67.8647 78.5625 68.1459C78.5157 68.4273 78.4617 68.7073 78.4007 68.9858C78.3398 69.2645 78.2719 69.5415 78.1972 69.8168C78.1223 70.0923 78.0406 70.3657 77.9521 70.6372C77.8636 70.9086 77.7684 71.1777 77.6663 71.4445C77.5644 71.7113 77.4558 71.9756 77.3405 72.2373C77.2254 72.4989 77.1037 72.7576 76.9756 73.0134C76.8474 73.2691 76.7128 73.5216 76.5721 73.7707C76.4313 74.02 76.2843 74.2657 76.1312 74.5079C75.9781 74.7503 75.819 74.9887 75.6539 75.2232C75.4889 75.4577 75.3181 75.688 75.1416 75.9142C74.965 76.1406 74.7828 76.3625 74.5952 76.58C74.4073 76.7975 74.2143 77.0104 74.0159 77.2188C73.8176 77.4269 73.6142 77.6302 73.4057 77.8286C73.1971 78.0271 72.9837 78.2203 72.7654 78.4084C72.5473 78.5966 72.3246 78.7794 72.0971 78.9569C71.8698 79.1341 71.6382 79.3059 71.4021 79.4723C71.1662 79.6385 70.9263 79.7989 70.6823 79.9535C70.4382 80.1082 70.1904 80.2569 69.9389 80.3998C69.6875 80.5424 69.4327 80.679 69.1745 80.8094C68.9161 80.9399 68.6547 81.0641 68.3902 81.182C68.1257 81.2998 67.8584 81.4112 67.5883 81.5162C67.3182 81.6212 67.0456 81.7196 66.7707 81.8114C66.4956 81.9032 66.2185 81.9884 65.9392 82.0669C65.6599 82.1454 65.3788 82.2171 65.0959 82.282C64.8131 82.3471 64.5288 82.4052 64.2431 82.4563C63.9571 82.5076 63.6702 82.552 63.3823 82.5894C63.0943 82.6268 62.8055 82.6573 62.516 82.6808C62.2267 82.7043 61.937 82.7208 61.6469 82.7302C61.3569 82.7398 61.0668 82.7424 60.7765 82.738C60.4863 82.7336 60.1964 82.7222 59.9067 82.7038C59.6172 82.6854 59.3281 82.66 59.0397 82.6278C58.7513 82.5955 58.464 82.5564 58.1776 82.5102C57.8912 82.4641 57.6061 82.4111 57.3223 82.3512C57.0386 82.2913 56.7565 82.2246 56.476 82.1512C56.1957 82.0778 55.9173 81.9977 55.6409 81.9107C55.3645 81.824 55.0904 81.7306 54.8186 81.6306C54.5468 81.5305 54.2777 81.424 54.0112 81.3111C53.7449 81.1981 53.4815 81.0788 53.2211 80.9531C52.9606 80.8274 52.7035 80.6955 52.4497 80.5574C52.1958 80.4195 51.9456 80.2754 51.6988 80.1252C51.4522 79.9751 51.2095 79.8192 50.9706 79.6575C50.7318 79.4957 50.4972 79.3283 50.2668 79.1553C50.0363 78.9822 49.8103 78.8037 49.5887 78.6197C49.3672 78.4358 49.1504 78.2466 48.9383 78.0522C48.7262 77.8578 48.5191 77.6584 48.317 77.4541C48.1149 77.2497 47.918 77.0407 47.7265 76.8269C47.5349 76.6131 47.3487 76.3948 47.168 76.1719C46.9873 75.9491 46.8122 75.7221 46.6428 75.4909C46.4734 75.2596 46.3099 75.0245 46.1524 74.7854C45.9948 74.5463 45.8432 74.3036 45.6978 74.0573C45.5523 73.8108 45.4131 73.561 45.2802 73.3079C45.1473 73.0549 45.0207 72.7988 44.9006 72.5396C44.7805 72.2804 44.6669 72.0185 44.5599 71.7539C44.4529 71.4892 44.3525 71.2221 44.2587 70.9526C44.165 70.6832 44.0781 70.4116 43.998 70.138C43.918 69.8643 43.8448 69.5888 43.7785 69.3116C43.7122 69.0345 43.6528 68.756 43.6004 68.4759C43.5481 68.1959 43.5027 67.9148 43.4643 67.6325C43.426 67.3502 43.3948 67.0673 43.3707 66.7835C43.3465 66.4998 43.3295 66.2157 43.3196 65.9312C43.3096 65.6466 43.3067 65.362 43.311 65.0774C43.3153 64.7926 43.3268 64.5081 43.3453 64.224C43.3639 63.9399 43.3895 63.6564 43.4222 63.3734C43.4549 63.0906 43.4946 62.8086 43.5414 62.5276C43.5882 62.2466 43.642 61.967 43.7028 61.6886C43.7637 61.4101 43.8314 61.1334 43.906 60.8582C43.9806 60.5831 44.0621 60.3099 44.1504 60.0387C44.2388 59.7676 44.3338 59.4986 44.4355 59.2319C44.5373 58.9653 44.6456 58.7013 44.7606 58.4399C44.8756 58.1785 44.9971 57.92 45.1251 57.6643C45.2529 57.4089 45.3871 57.1565 45.5278 56.9074C45.6682 56.6583 45.8149 56.4127 45.9677 56.1707C46.1206 55.9286 46.2793 55.6904 46.4441 55.4559C46.6088 55.2215 46.7793 54.9912 46.9555 54.765C47.1318 54.5388 47.3137 54.3169 47.501 54.0994C47.6884 53.8821 47.881 53.6693 48.0789 53.4612C48.277 53.253 48.4801 53.0497 48.6882 52.8513C48.8964 52.6528 49.1094 52.4596 49.3274 52.2715C49.5452 52.0833 49.7676 51.9005 49.9946 51.7231C50.2216 51.5456 50.4528 51.3738 50.6884 51.2074C50.924 51.0411 51.1636 50.8806 51.4072 50.7259C51.6509 50.5711 51.8982 50.4223 52.1492 50.2795C52.4003 50.1365 52.6548 49.9998 52.9127 49.8692C53.1706 49.7386 53.4316 49.6143 53.6956 49.4962C53.9598 49.3782 54.2268 49.2665 54.4964 49.1613C54.7661 49.0561 55.0383 48.9575 55.3131 48.8654C55.5877 48.7733 55.8644 48.6878 56.1432 48.609C56.4222 48.5304 56.703 48.4584 56.9854 48.393C57.2679 48.3278 57.5518 48.2694 57.8373 48.2178C58.1228 48.1662 58.4094 48.1215 58.6971 48.0836C58.9847 48.0459 59.2731 48.0151 59.5624 47.9912Z" fill="#2B466E"/>
<path d="M60.2744 55.0597C60.4497 55.0458 60.6252 55.0361 60.8009 55.0306C60.9767 55.0252 61.1524 55.024 61.3282 55.0271C61.5039 55.03 61.6795 55.0373 61.855 55.0488C62.0304 55.0603 62.2055 55.0761 62.3802 55.096C62.5549 55.116 62.7289 55.1401 62.9022 55.1684C63.0757 55.1967 63.2483 55.2293 63.4202 55.2659C63.592 55.3026 63.7628 55.3434 63.9325 55.3884C64.1024 55.4333 64.2709 55.4822 64.438 55.5352C64.6055 55.5883 64.7714 55.6453 64.9359 55.7064C65.1003 55.7675 65.2631 55.8324 65.4242 55.9013C65.5853 55.9702 65.7447 56.043 65.9024 56.1196C66.0599 56.1962 66.2154 56.2765 66.3688 56.3606C66.5224 56.4448 66.6737 56.5325 66.8228 56.6239C66.9719 56.7153 67.1186 56.8102 67.263 56.9087C67.4074 57.0071 67.5492 57.1091 67.6885 57.2145C67.8276 57.3198 67.9641 57.4284 68.0979 57.5403C68.2318 57.6522 68.3627 57.7672 68.4906 57.8854C68.6188 58.0037 68.7438 58.1249 68.8657 58.2491C68.9877 58.3735 69.1064 58.5006 69.2218 58.6306C69.3374 58.7605 69.4497 58.8932 69.5587 59.0287C69.6675 59.1641 69.7729 59.302 69.875 59.4425C69.977 59.583 70.0754 59.7258 70.1702 59.871C70.2651 60.0163 70.3562 60.1638 70.4438 60.3134C70.5312 60.4631 70.6148 60.6147 70.6945 60.7683C70.7744 60.9219 70.8504 61.0774 70.9224 61.2347C70.9945 61.3922 71.0625 61.5512 71.1266 61.7118C71.1907 61.8723 71.2507 62.0344 71.3068 62.1979C71.3627 62.3614 71.4145 62.5262 71.4621 62.6923C71.5099 62.8583 71.5534 63.0254 71.5926 63.1935C71.6319 63.3616 71.667 63.5305 71.6979 63.7003C71.7287 63.8701 71.7552 64.0406 71.7775 64.2117C71.7998 64.3827 71.8178 64.5543 71.8315 64.7262C71.8453 64.8982 71.8546 65.0703 71.8596 65.2427C71.8647 65.4151 71.8654 65.5875 71.8618 65.7599C71.8582 65.9325 71.8503 66.1047 71.8381 66.2767C71.8259 66.4488 71.8094 66.6205 71.7886 66.7919C71.7678 66.9631 71.7427 67.1337 71.7133 67.3037C71.6839 67.4738 71.6502 67.643 71.6122 67.8114C71.5744 67.9798 71.5324 68.1473 71.4861 68.3137C71.4398 68.4801 71.3894 68.6452 71.3348 68.8092C71.2803 68.9732 71.2216 69.1357 71.1589 69.2969C71.0962 69.4581 71.0295 69.6176 70.9588 69.7755C70.8882 69.9334 70.8135 70.0895 70.735 70.2439C70.6565 70.3983 70.5741 70.5505 70.4879 70.7008C70.4018 70.8511 70.312 70.9994 70.2184 71.1454C70.1248 71.2914 70.0276 71.435 69.9268 71.5764C69.8259 71.7177 69.7216 71.8565 69.6138 71.9929C69.5061 72.1292 69.395 72.2628 69.2806 72.3936C69.166 72.5246 69.0483 72.6527 68.9274 72.778C68.8066 72.9032 68.6827 73.0255 68.5558 73.1448C68.4287 73.264 68.2988 73.3801 68.166 73.4932C68.033 73.6062 67.8975 73.7159 67.7592 73.8223C67.6209 73.9288 67.48 74.0318 67.3365 74.1315C67.193 74.2311 67.0471 74.3272 66.8988 74.4198C66.7503 74.5125 66.5997 74.6015 66.447 74.6868C66.2942 74.7721 66.1393 74.8538 65.9824 74.9317C65.8255 75.0096 65.6668 75.0837 65.5063 75.1539C65.3456 75.2241 65.1834 75.2904 65.0195 75.3528C64.8555 75.4152 64.6901 75.4736 64.5233 75.528C64.3564 75.5825 64.1883 75.6328 64.0191 75.6791C63.8497 75.7254 63.6792 75.7676 63.5077 75.8057C63.3361 75.8439 63.1638 75.8778 62.9906 75.9075C62.8174 75.9372 62.6436 75.9628 62.4692 75.9842C62.2947 76.0057 62.1198 76.0228 61.9445 76.0357C61.7698 76.0486 61.5949 76.0573 61.4198 76.0619C61.2446 76.0663 61.0695 76.0665 60.8943 76.0625C60.7192 76.0587 60.5443 76.0506 60.3696 76.0381C60.1947 76.0259 60.0203 76.0094 59.8464 75.9887C59.6726 75.9678 59.4994 75.9429 59.3266 75.9139C59.1539 75.8848 58.9821 75.8516 58.8112 75.8144C58.6401 75.7771 58.4701 75.7357 58.3011 75.6902C58.1321 75.6446 57.9645 75.5951 57.7981 75.5416C57.6315 75.488 57.4665 75.4305 57.3029 75.369C57.1392 75.3075 56.9773 75.2422 56.8171 75.173C56.6567 75.1036 56.4981 75.0305 56.3414 74.9536C56.1848 74.8767 56.0301 74.7962 55.8774 74.7119C55.7248 74.6275 55.5743 74.5395 55.4262 74.448C55.2779 74.3564 55.132 74.2614 54.9885 74.1628C54.845 74.0643 54.704 73.9623 54.5655 73.8569C54.4271 73.7515 54.2914 73.6429 54.1585 73.5311C54.0254 73.4192 53.8953 73.3042 53.768 73.186C53.6408 73.0679 53.5166 72.9468 53.3955 72.8228C53.2743 72.6987 53.1562 72.5718 53.0414 72.442C52.9265 72.3121 52.815 72.1797 52.7068 72.0445C52.5986 71.9094 52.4937 71.7717 52.3923 71.6316C52.291 71.4914 52.1933 71.3489 52.0991 71.204C52.0047 71.0591 51.9141 70.912 51.8273 70.7629C51.7403 70.6135 51.6572 70.4623 51.5779 70.3091C51.4987 70.1559 51.4232 70.0009 51.3516 69.844C51.28 69.6872 51.2123 69.5287 51.1486 69.3685C51.085 69.2084 51.0254 69.0469 50.9698 68.8839C50.9141 68.721 50.8627 68.5568 50.8153 68.3914C50.7679 68.2259 50.7246 68.0594 50.6856 67.8919C50.6465 67.7244 50.6116 67.556 50.5809 67.3867C50.5503 67.2175 50.5239 67.0477 50.5018 66.8773C50.4796 66.7068 50.4617 66.5359 50.4479 66.3645C50.4342 66.1931 50.4249 66.0216 50.4199 65.8498C50.4148 65.6779 50.414 65.5061 50.4177 65.3343C50.4211 65.1625 50.4289 64.9909 50.4409 64.8196C50.453 64.6481 50.4694 64.477 50.49 64.3064C50.5107 64.1358 50.5355 63.9657 50.5646 63.7961C50.5938 63.6266 50.6272 63.458 50.6648 63.2902C50.7023 63.1224 50.744 62.9555 50.7898 62.7896C50.8358 62.6237 50.8858 62.4591 50.9399 62.2957C50.994 62.1322 51.0522 61.9701 51.1145 61.8096C51.1767 61.6489 51.2429 61.4898 51.313 61.3323C51.3832 61.1748 51.4573 61.0191 51.5352 60.8652C51.6131 60.7113 51.6948 60.5593 51.7803 60.4092C51.8659 60.2593 51.9551 60.1115 52.048 59.9659C52.141 59.8201 52.2375 59.6767 52.3376 59.5357C52.4377 59.3946 52.5412 59.2561 52.6482 59.12C52.7552 58.984 52.8656 58.8506 52.9792 58.7197C53.0929 58.589 53.2098 58.4611 53.3299 58.3358C53.4499 58.2107 53.5729 58.0885 53.6991 57.9692C53.8252 57.8501 53.9543 57.7339 54.0864 57.6208C54.2183 57.5078 54.3529 57.3981 54.4904 57.2915C54.6279 57.1849 54.768 57.0817 54.9107 56.9819C55.0533 56.8821 55.1983 56.7857 55.3457 56.6929C55.4931 56.6 55.6428 56.5108 55.7947 56.4252C55.9465 56.3396 56.1004 56.2576 56.2564 56.1792C56.4124 56.101 56.5702 56.0266 56.7298 55.9559C56.8896 55.8852 57.051 55.8185 57.2141 55.7556C57.377 55.6926 57.5415 55.6336 57.7076 55.5786C57.8736 55.5236 58.0408 55.4727 58.2093 55.4258C58.3778 55.3788 58.5474 55.3359 58.718 55.297C58.8888 55.2582 59.0603 55.2236 59.2326 55.193C59.405 55.1625 59.5781 55.1361 59.7519 55.1138C59.9255 55.0916 60.0997 55.0736 60.2744 55.0597Z" fill="#FEFEFE"/>
<path d="M59.9489 56.5403C60.1001 56.5215 60.2516 56.5065 60.4035 56.4953C60.5556 56.4839 60.7078 56.4761 60.86 56.472C61.0124 56.468 61.1648 56.4677 61.3172 56.4711C61.4695 56.4743 61.6218 56.4814 61.7739 56.4922C61.9258 56.5028 62.0774 56.5172 62.2287 56.5352C62.3801 56.5532 62.5308 56.5749 62.6809 56.6002C62.8312 56.6255 62.9807 56.6544 63.1295 56.6869C63.2782 56.7194 63.4261 56.7556 63.5731 56.7953C63.7199 56.835 63.8657 56.8781 64.0105 56.9249C64.1552 56.9716 64.2987 57.0218 64.441 57.0755C64.5833 57.1291 64.7242 57.1862 64.8636 57.2467C65.0028 57.3071 65.1406 57.3709 65.2769 57.4381C65.413 57.5052 65.5473 57.5756 65.68 57.6492C65.8126 57.7228 65.9434 57.7996 66.0722 57.8796C66.201 57.9595 66.3276 58.0424 66.4523 58.1285C66.5769 58.2147 66.6993 58.3037 66.8195 58.3957C66.9396 58.4877 67.0574 58.5824 67.1728 58.68C67.2881 58.7778 67.401 58.8782 67.5113 58.9814C67.6216 59.0845 67.7293 59.1902 67.8344 59.2986C67.9394 59.4068 68.0417 59.5176 68.1412 59.631C68.2406 59.7443 68.3372 59.8598 68.4308 59.9777C68.5245 60.0957 68.6152 60.2158 68.7028 60.3381C68.7903 60.4605 68.8748 60.5849 68.9562 60.7113C69.0376 60.8376 69.1157 60.9659 69.1907 61.0961C69.2657 61.2262 69.3374 61.3581 69.4057 61.4918C69.474 61.6254 69.5388 61.7606 69.6003 61.8974C69.6618 62.0342 69.7199 62.1724 69.7746 62.3121C69.8292 62.4517 69.8802 62.5925 69.9277 62.7344C69.9752 62.8765 70.0191 63.0196 70.0595 63.1638C70.0998 63.3079 70.1364 63.4531 70.1694 63.5991C70.2024 63.7451 70.2318 63.8917 70.2576 64.0389C70.2832 64.1863 70.3051 64.3343 70.3234 64.4827C70.3416 64.6311 70.3561 64.78 70.3668 64.9291C70.3776 65.0782 70.3846 65.2274 70.3878 65.3769C70.3911 65.5264 70.3907 65.6759 70.3864 65.8254C70.3822 65.9747 70.3742 66.124 70.3625 66.2731C70.3507 66.4222 70.3353 66.5708 70.3161 66.7191C70.2968 66.8674 70.2739 67.0152 70.2474 67.1625C70.2207 67.3096 70.1904 67.456 70.1565 67.6018C70.1224 67.7476 70.0848 67.8924 70.0435 68.0363C70.0023 68.1802 69.9575 68.323 69.9089 68.4648C69.8606 68.6066 69.8086 68.7471 69.7532 68.8864C69.6977 69.0255 69.6388 69.1633 69.5764 69.2998C69.514 69.4361 69.4482 69.5709 69.379 69.7041C69.3098 69.8373 69.2373 69.9688 69.1615 70.0986C69.0857 70.2283 69.0067 70.356 68.9246 70.4819C68.8424 70.6078 68.7571 70.7317 68.6686 70.8534C68.5801 70.9752 68.4887 71.0948 68.3944 71.2122C68.2999 71.3294 68.2026 71.4444 68.1025 71.5571C68.0023 71.6697 67.8992 71.7799 67.7934 71.8875C67.6878 71.9953 67.5794 72.1004 67.4683 72.2027C67.3574 72.3051 67.2439 72.4049 67.1278 72.5019C67.0118 72.5988 66.8934 72.6929 66.7727 72.7842C66.6519 72.8754 66.529 72.9637 66.4039 73.049C66.2787 73.1341 66.1514 73.2163 66.022 73.2956C65.8927 73.3747 65.7615 73.4506 65.6284 73.5234C65.4953 73.5963 65.3605 73.6658 65.224 73.7321C65.0872 73.7983 64.949 73.8612 64.8093 73.9208C64.6696 73.9804 64.5284 74.0366 64.3858 74.0894C64.2433 74.1421 64.0994 74.1914 63.9542 74.2373C63.8093 74.2831 63.6631 74.3254 63.5159 74.3641C63.3686 74.4029 63.2205 74.4381 63.0716 74.4697C62.9227 74.5013 62.773 74.5294 62.6226 74.5538C62.4723 74.578 62.3214 74.5987 62.17 74.6159C62.0195 74.6329 61.8688 74.6462 61.7178 74.656C61.5668 74.6656 61.4156 74.6717 61.2643 74.6742C61.1129 74.6767 60.9617 74.6755 60.8105 74.6706C60.6592 74.6659 60.5081 74.6576 60.3572 74.6456C60.2065 74.6335 60.056 74.6178 59.9059 74.5986C59.7558 74.5793 59.6063 74.5565 59.4574 74.53C59.3084 74.5036 59.1603 74.4736 59.0129 74.44C58.8655 74.4064 58.719 74.3694 58.5734 74.3289C58.4278 74.2882 58.2833 74.2442 58.14 74.1967C57.9965 74.1492 57.8543 74.0983 57.7136 74.0439C57.5726 73.9896 57.4332 73.932 57.2953 73.8709C57.1574 73.8098 57.021 73.7455 56.8863 73.6779C56.7514 73.6104 56.6184 73.5396 56.4873 73.4657C56.356 73.3918 56.2266 73.3147 56.0993 73.2346C55.9719 73.1543 55.8466 73.0712 55.7233 72.9851C55.6 72.8989 55.479 72.8098 55.3602 72.7179C55.2414 72.6259 55.125 72.5311 55.0109 72.4335C54.8968 72.336 54.7853 72.2357 54.6763 72.1328C54.5672 72.0299 54.4607 71.9244 54.3568 71.8163C54.253 71.7082 54.1519 71.5978 54.0536 71.485C53.9554 71.372 53.86 71.2568 53.7674 71.1395C53.6749 71.0219 53.5853 70.9023 53.4986 70.7806C53.4121 70.6588 53.3286 70.535 53.2481 70.4094C53.1678 70.2835 53.0905 70.1559 53.0164 70.0263C52.9424 69.8968 52.8716 69.7657 52.8041 69.6329C52.7365 69.5 52.6724 69.3656 52.6117 69.2297C52.5508 69.0937 52.4933 68.9563 52.4394 68.8176C52.3854 68.6789 52.335 68.539 52.2881 68.3978C52.2411 68.2567 52.1976 68.1146 52.1577 67.9713C52.1179 67.828 52.0816 67.684 52.0489 67.5391C52.0162 67.3942 51.9871 67.2485 51.9617 67.1022C51.9362 66.9558 51.9144 66.8089 51.8963 66.6615C51.8782 66.5141 51.8638 66.3663 51.8531 66.2181C51.8423 66.0701 51.8352 65.9219 51.8319 65.7735C51.8286 65.625 51.8289 65.4766 51.833 65.3281C51.8371 65.1798 51.8448 65.0316 51.8563 64.8835C51.8678 64.7355 51.8828 64.5878 51.9015 64.4406C51.9204 64.2932 51.9429 64.1463 51.9691 64.0001C51.9952 63.8539 52.025 63.7084 52.0584 63.5636C52.0917 63.4189 52.1287 63.275 52.1692 63.1318C52.2099 62.9889 52.2541 62.8469 52.3017 62.706C52.3493 62.5651 52.4004 62.4254 52.455 62.2868C52.5097 62.1485 52.5677 62.0114 52.6291 61.8757C52.6906 61.7401 52.7554 61.606 52.8235 61.4734C52.8916 61.3407 52.9631 61.2099 53.0378 61.0808C53.1124 60.9517 53.1903 60.8244 53.2714 60.6989C53.3523 60.5735 53.4364 60.4501 53.5235 60.3288C53.6107 60.2075 53.7009 60.0883 53.7941 59.9712C53.8871 59.8543 53.983 59.7396 54.0819 59.627C54.1808 59.5147 54.2824 59.4047 54.3867 59.297C54.491 59.1895 54.5979 59.0846 54.7075 58.9821C54.8171 58.8796 54.9291 58.7799 55.0437 58.6829C55.1582 58.5859 55.2751 58.4917 55.3943 58.4001C55.5136 58.3088 55.635 58.2203 55.7586 58.1347C55.8823 58.0491 56.0081 57.9665 56.1359 57.8869C56.2636 57.8073 56.3932 57.7307 56.5248 57.6574C56.6564 57.5841 56.7897 57.5139 56.9247 57.4469C57.0599 57.38 57.1966 57.3163 57.3349 57.256C57.4731 57.1957 57.6127 57.1386 57.7538 57.0848C57.895 57.0311 58.0374 56.9808 58.1809 56.934C58.3245 56.8872 58.4692 56.8439 58.615 56.804C58.7609 56.7641 58.9076 56.7276 59.0552 56.6947C59.2027 56.6618 59.351 56.6326 59.5001 56.6068C59.6492 56.5811 59.7988 56.5589 59.9489 56.5403Z" fill="#2B466E"/>
<path d="M60.6966 66.5939C61.0092 66.5724 61.3278 66.5906 61.6405 66.6041C63.0316 66.6644 64.5801 67.0246 65.5319 68.0943C66.5278 69.2138 66.3542 70.5724 66.275 71.943C64.7786 72.224 63.1374 72.1007 61.6181 72.0956C59.9783 72.0912 57.6742 72.3283 56.1719 71.6922C55.9711 71.4369 55.9232 71.2152 55.8816 70.9031C55.7545 69.9459 55.9471 69.0417 56.5822 68.2883C57.6035 67.0774 59.1773 66.711 60.6966 66.5939Z" fill="#FEFEFE"/>
<path d="M60.8078 59.6759C60.8547 59.6729 60.9015 59.6711 60.9484 59.6703C60.9954 59.6696 61.0424 59.6699 61.0893 59.6712C61.1363 59.6727 61.1832 59.6753 61.2299 59.679C61.2768 59.6827 61.3235 59.6874 61.3701 59.6932C61.4166 59.6991 61.4631 59.7061 61.5093 59.7142C61.5556 59.7222 61.6016 59.7313 61.6472 59.7415C61.6931 59.7517 61.7386 59.763 61.7838 59.7754C61.8292 59.7879 61.8741 59.8012 61.9186 59.8156C61.9632 59.8301 62.0074 59.8456 62.0513 59.8622C62.0951 59.8787 62.1385 59.8963 62.1815 59.9149C62.2244 59.9336 62.2669 59.9532 62.3088 59.9737C62.3508 59.9944 62.3924 60.016 62.4334 60.0385C62.4742 60.0611 62.5145 60.0847 62.5543 60.1092C62.5941 60.1336 62.6333 60.159 62.6719 60.1853C62.7105 60.2116 62.7484 60.2388 62.7856 60.2669C62.8228 60.295 62.8593 60.324 62.895 60.3538C62.9309 60.3836 62.9659 60.4142 63.0002 60.4457C63.0345 60.4772 63.0681 60.5095 63.1008 60.5426C63.1335 60.5755 63.1653 60.6093 63.1964 60.6439C63.2274 60.6784 63.2577 60.7136 63.2871 60.7497C63.3163 60.7857 63.3447 60.8222 63.3723 60.8595C63.3999 60.8969 63.4265 60.9349 63.4521 60.9735C63.4777 61.0119 63.5024 61.0511 63.5263 61.0908C63.5501 61.1306 63.5728 61.1709 63.5945 61.2117C63.6164 61.2525 63.6372 61.2938 63.6569 61.3357C63.6767 61.3774 63.6954 61.4196 63.7132 61.4623C63.7309 61.5049 63.7475 61.5479 63.7632 61.5914C63.7787 61.6348 63.7932 61.6787 63.8066 61.7229C63.8202 61.767 63.8325 61.8114 63.8437 61.8562C63.855 61.9008 63.8652 61.9458 63.8742 61.991C63.8834 62.0361 63.8914 62.0815 63.8982 62.1272C63.905 62.1727 63.9107 62.2184 63.9154 62.2643C63.92 62.3101 63.9235 62.356 63.9258 62.402C63.9282 62.448 63.9294 62.494 63.9296 62.5402C63.9296 62.5863 63.9285 62.6323 63.9264 62.6783C63.9243 62.7243 63.9211 62.7702 63.9167 62.8161C63.9123 62.862 63.9068 62.9078 63.9002 62.9533C63.8934 62.9989 63.8857 63.0443 63.8769 63.0895C63.868 63.1348 63.858 63.1798 63.8468 63.2246C63.8358 63.2694 63.8237 63.3139 63.8104 63.3581C63.7972 63.4023 63.7829 63.4461 63.7675 63.4896C63.7521 63.5332 63.7357 63.5764 63.7182 63.6191C63.7007 63.6619 63.6822 63.7041 63.6626 63.746C63.643 63.7878 63.6224 63.8292 63.6009 63.8702C63.5792 63.9111 63.5566 63.9515 63.533 63.9913C63.5094 64.0312 63.4848 64.0705 63.4593 64.109C63.4339 64.1478 63.4074 64.1858 63.38 64.2233C63.3527 64.2607 63.3244 64.2974 63.2952 64.3335C63.2661 64.3697 63.2361 64.4051 63.2052 64.4397C63.1743 64.4745 63.1426 64.5084 63.11 64.5415C63.0775 64.5748 63.0441 64.6072 63.0099 64.6389C62.9757 64.6705 62.9408 64.7013 62.9052 64.7311C62.8695 64.7611 62.8331 64.7903 62.796 64.8185C62.7589 64.8468 62.7212 64.8742 62.6827 64.9008C62.6443 64.9273 62.6053 64.9528 62.5656 64.9773C62.526 65.002 62.4857 65.0257 62.4449 65.0485C62.404 65.0713 62.3627 65.093 62.3208 65.1137C62.2789 65.1346 62.2364 65.1544 62.1935 65.1731C62.1507 65.1919 62.1073 65.2097 62.0635 65.2266C62.0198 65.2433 61.9757 65.259 61.9312 65.2736C61.8867 65.2882 61.8419 65.3019 61.7967 65.3144C61.7515 65.327 61.706 65.3385 61.6601 65.349C61.6145 65.3594 61.5685 65.3687 61.5222 65.377C61.4761 65.3852 61.4297 65.3924 61.3832 65.3985C61.3184 65.4069 61.2533 65.4132 61.1881 65.4173C61.1228 65.4216 61.0575 65.4237 60.992 65.4235C60.9268 65.4234 60.8615 65.4212 60.7963 65.4169C60.731 65.4124 60.666 65.4059 60.6011 65.3974C60.5363 65.3886 60.4719 65.3778 60.4078 65.365C60.3438 65.3521 60.2802 65.3372 60.2172 65.3202C60.1542 65.303 60.0919 65.2839 60.0303 65.2627C59.9685 65.2416 59.9075 65.2185 59.8474 65.1933C59.7872 65.1682 59.728 65.1411 59.6697 65.1122C59.6113 65.0832 59.5541 65.0523 59.4978 65.0194C59.4416 64.9866 59.3866 64.952 59.3328 64.9157C59.279 64.8793 59.2264 64.8412 59.1752 64.8014C59.124 64.7615 59.0741 64.72 59.0258 64.6768C58.9774 64.6338 58.9305 64.5892 58.8851 64.5431C58.8398 64.4968 58.796 64.4491 58.7538 64.4C58.7117 64.3511 58.6713 64.3007 58.6326 64.249C58.5939 64.1972 58.557 64.1443 58.522 64.0902C58.4869 64.0361 58.4537 63.9809 58.4223 63.9245C58.391 63.8683 58.3616 63.8111 58.3342 63.7529C58.3069 63.6946 58.2815 63.6355 58.258 63.5757C58.2346 63.5158 58.2134 63.4552 58.1942 63.3938C58.1749 63.3326 58.1577 63.2707 58.1427 63.2082C58.1276 63.1458 58.1147 63.0829 58.104 63.0196C58.0933 62.9564 58.0847 62.8929 58.0782 62.8291C58.0719 62.7653 58.0677 62.7013 58.0656 62.6373C58.0635 62.5731 58.0636 62.509 58.066 62.4448C58.0683 62.3808 58.0727 62.3168 58.0794 62.253C58.0861 62.1892 58.095 62.1257 58.106 62.0624C58.117 61.9993 58.1301 61.9365 58.1454 61.8741C58.1606 61.8118 58.178 61.75 58.1976 61.6887C58.217 61.6275 58.2386 61.5671 58.2623 61.5073C58.2859 61.4474 58.3115 61.3885 58.3391 61.3303C58.3667 61.2722 58.3963 61.2151 58.428 61.1589C58.4595 61.1027 58.4929 61.0476 58.5281 60.9937C58.5634 60.9397 58.6005 60.8869 58.6394 60.8353C58.6783 60.7837 58.7189 60.7335 58.7612 60.6847C58.8036 60.6358 58.8475 60.5883 58.893 60.5424C58.9386 60.4962 58.9857 60.4517 59.0343 60.4088C59.0829 60.366 59.1329 60.3247 59.1842 60.2851C59.2356 60.2455 59.2883 60.2075 59.3423 60.1713C59.3964 60.1351 59.4516 60.1007 59.5078 60.0682C59.5642 60.0357 59.6216 60.005 59.6801 59.9762C59.7384 59.9473 59.7977 59.9205 59.858 59.8956C59.9183 59.8707 59.9793 59.8477 60.0411 59.8269C60.1029 59.806 60.1654 59.7872 60.2285 59.7703C60.2915 59.7535 60.3552 59.7388 60.4194 59.7262C60.4834 59.7136 60.5479 59.7031 60.6127 59.6947C60.6775 59.6863 60.7425 59.68 60.8078 59.6759Z" fill="#FEFEFE"/>
</svg>
