<svg width="231" height="226" fill="none" xmlns="http://www.w3.org/2000/svg"><path d="M28.122 87.775c2.986-.065 5.987-.008 8.974-.006l20.626.043 72.527.01 42.679.015 13.667.026c2.643.008 5.344-.073 7.98.098 1.057.069 1.789.308 2.561 1.066.567.557.98 1.272 1.085 2.055.224 1.663.064 3.527.06 5.207l-.032 10.383.052 32.719c1.524.004 3.048 0 4.572-.012 2.277-.007 4.677-.269 6.457 1.434.771.737 1.394 1.764 1.543 2.818.24 1.693.072 3.599.069 5.309l.002 10.134.018 36.433c5.287.036 10.579-.073 15.864.033.025.571.044 1.144.056 1.716.029 2.124-.453 4.079-2.029 5.623a6.94 6.94 0 0 1-2.37 1.498 7.134 7.134 0 0 1-.905.271c-2.101.485-4.839.225-7.027.221l-11.345-.023-130.132-.072-42.942.02-13.73.014c-2.402.004-4.86.115-7.258-.014-1.127-.061-2.135-.295-3.026-1.018-.92-.747-1.564-1.844-1.623-3.024a4.21 4.21 0 0 1 .805-2.677 3.812 3.812 0 0 1 .277-.343c.049-.055.1-.109.151-.161.546-.544 1.164-.858 1.922-1.014 1.828-.377 3.957-.157 5.827-.151l10.558.036-.005-68.139.02-24.619.031-7.498c0-1.41-.088-2.854.012-4.26.068-.957.336-1.902.945-2.67.788-.995 1.858-1.341 3.084-1.481z" fill="#000"/><path d="M28.277 98.932c11.376-.148 22.764-.021 34.141-.031l71.099-.026 40.317.005 13.019.007c2.692.002 5.41-.068 8.097.086.109 4.82.005 9.664.005 14.486l.032 25.94-29.445.013-8.357-.026c-1.46-.006-3.04-.131-4.484.058-.947.124-1.684.632-2.399 1.21l-39.859-.054c-.101 2.911-.025 5.847-.024 8.761l.03 27.761c4.643.175 9.348.049 13.997.054l24.732.061-.047 16.143a2888.025 2888.025 0 0 0-35.444.035l-85.838-.006-.099-66.151-.03-20.608c0-2.241-.104-4.494-.063-6.734.006-.32-.031-.654.148-.926l.472-.058z" fill="#C3D1E2"/><path d="M110.431 106.53c5.285-.081 10.582-.014 15.869-.018l30.13-.016 19.259.011c3.541.003 7.129-.104 10.664.06.074 9.525.09 19.051.046 28.577-2.844.173-5.771.042-8.623.041l-16.574-.006-50.789.046.01-16.935c-.008-3.916-.09-7.846.008-11.76z" fill="#000"/><path d="m172.904 107.043 12.912.014c.155 4.448.028 8.932.034 13.384l.001 10.592c-.003.877.072 1.762.054 2.636-.006.314-.003.623-.185.893l-.372.053h-12.354l.004-18.738c.377-.44.767-.858.837-1.453.093-.791-.416-1.363-.91-1.924l-.021-5.457z" fill="#FEFEFE"/><path d="M111.039 107.081c3.665-.116 7.353-.027 11.02-.02.089 3.042.028 6.101.024 9.145-.004 6.139-.048 12.277-.131 18.415l-10.981.022.021-16.95c.003-3.533-.057-7.08.047-10.612z" fill="#fff"/><path d="m122.205 107.051 11.827.011c.137 4.071.075 8.158-.01 12.23-.418.271-.8.602-1.033 1.045-.369.704-.141 1.409.087 2.112-1.37 2.164-3.359 4.127-5.086 6.032-1.937 2.158-3.81 4.384-5.806 6.489-.118-2.253-.05-4.537-.054-6.793-.019-3.808-.016-7.616.011-11.424.024-3.095-.224-6.673.064-9.702z" fill="#fff"/><path d="m158.907 107.041 13.747.004.035 5.418c-.691-.15-1.393-.137-2 .264a1.62 1.62 0 0 0-.737 1.169c-.095.752.179 1.294.629 1.878-1.107 2.112-2.242 4.196-3.303 6.332-.902 1.83-1.83 3.647-2.783 5.452-.778-.138-1.316-.122-2.018.25a88.005 88.005 0 0 0-3.548-5.295c-.092-5.148-.052-10.322-.022-15.472zM152.712 118.836c1.529 1.235 1.256.501 2.7.635.755.069 2.607 3.034 3.086 3.696.113 3.813.01 7.654-.004 11.469l-5.85.008-6.153-.009-.004-11.294c.654-.071 1.338-.188 1.787-.707.404-.466.454-1.028.427-1.612a97.067 97.067 0 0 0 4.011-2.186zM134.19 107.054l12.124-.004c.035 4.204.035 8.409 0 12.613-.317.113-.629.236-.943.358-.177.185-.119.108-.25.299-.102.146-.203.335-.327.462-.371.384-7.133.073-8.013.041-.146-.329-.284-.695-.543-.956-.548-.552-1.299-.547-2.029-.583l-.019-12.23zM136.724 121.535c2.562-.038 5.151.086 7.715.123.542.939.823 1.325 1.904 1.654l-.015 11.312-2.799-.006-9.356-.005.015-11.529c.498.031.993.052 1.463-.14.62-.251.854-.836 1.073-1.409z" fill="#FEFEFE"/><path d="m172.681 116.047.04.012c.281.379.194 16.622.19 18.548-4.732.08-9.479.018-14.213.025-.039-2.841-.017-5.686-.025-8.528l.007-2.8a285.593 285.593 0 0 1 3.418 4.918c-.158.674-.357 1.194-.07 1.874.227.539.613.986 1.191 1.175.483.158.976.101 1.416-.144.731-.406.926-1.065 1.158-1.798-.214-.512-.499-.953-.803-1.415 2.313-3.799 4.112-7.902 6.15-11.847.519.04 1.024.01 1.541-.02zM146.501 107.041l12.218.005.124 15.376a135.486 135.486 0 0 0-2.394-3.063c-.689-.756.306-1.866-.396-2.758a2.045 2.045 0 0 0-1.451-.783c-.595-.038-1.172.209-1.592.616-.538.524-.621 1.119-.631 1.831-1.298.795-2.642 1.503-3.988 2.216-.587-.592-1.068-.735-1.897-.823l.007-12.617zM133.759 122.993l.115.036c.332.439.148 10.403.15 11.562l-10.189.006c-.108-.006-.039.006-.193-.084.127-.429 9.037-10.422 10.117-11.52zM171.521 113.044l.06-.016.06-.013.061-.01.062-.008.062-.004a1.243 1.243 0 0 1 .123 0l.062.004.062.008.061.01.06.013a1.33 1.33 0 0 1 .119.035l.058.021.056.025a1.422 1.422 0 0 1 .11.056l.053.032a.892.892 0 0 1 .099.072c.017.012.032.026.048.039l.045.041.043.044.041.045.038.048a.897.897 0 0 1 .037.049l.033.051.032.052.028.054a.927.927 0 0 1 .026.055l.023.056.02.058a.981.981 0 0 1 .017.058c.006.019.01.039.015.059l.011.059.009.06.005.061.003.06-.001.061-.003.06-.007.061a.6.6 0 0 1-.022.119.618.618 0 0 1-.015.058 1.778 1.778 0 0 1-.063.171.897.897 0 0 1-.088.16l-.034.051-.037.048-.04.047-.041.045a1.764 1.764 0 0 1-.044.043l-.046.041-.048.038a.93.93 0 0 1-.101.07l-.053.031-.054.029-.056.026-.057.024-.059.02a1.288 1.288 0 0 1-.498.062 1.177 1.177 0 0 1-.329-.067 1.174 1.174 0 0 1-.3-.148 1.201 1.201 0 0 1-.351-.353 1.267 1.267 0 0 1-.202-.622 1.279 1.279 0 0 1 .077-.486 1.179 1.179 0 0 1 .264-.418 1.349 1.349 0 0 1 .408-.287c.052-.023.104-.042.158-.058zM134.387 119.993l.06-.018a1.367 1.367 0 0 1 .247-.043l.063-.004h.063l.063.003.062.005.062.009.062.012c.02.004.041.009.061.015l.06.017c.02.007.04.013.059.021l.058.023a.752.752 0 0 1 .113.055l.054.032c.018.01.035.022.052.034l.051.036.048.039.047.041.044.044.043.045.039.048.038.049.035.051.032.053.03.054.026.056a.692.692 0 0 1 .045.115.576.576 0 0 1 .018.059 1.093 1.093 0 0 1 .028.12l.009.06.006.062a1.243 1.243 0 0 1 .002.123l-.003.061-.007.061a.64.64 0 0 1-.022.121l-.015.06-.019.058c-.006.02-.014.039-.021.058a1.41 1.41 0 0 1-.052.112l-.03.054a.766.766 0 0 1-.033.053l-.035.051a1.622 1.622 0 0 1-.121.141.892.892 0 0 1-.044.043l-.047.041-.049.039-.051.036c-.017.011-.035.023-.053.033a.984.984 0 0 1-.225.108l-.059.021-.06.016-.06.015-.061.011-.062.008-.062.006-.062.002-.062-.001c-.021 0-.041-.002-.062-.003a1.306 1.306 0 0 1-.062-.007l-.061-.009-.061-.012a1.33 1.33 0 0 1-.178-.055l-.057-.023-.056-.027-.054-.029a.919.919 0 0 1-.053-.031l-.052-.034a.897.897 0 0 1-.097-.076.897.897 0 0 1-.09-.084 1.671 1.671 0 0 1-.117-.141l-.034-.051a.711.711 0 0 1-.061-.106c-.01-.018-.018-.036-.027-.055a.936.936 0 0 1-.044-.113.644.644 0 0 1-.018-.058.638.638 0 0 1-.015-.059.637.637 0 0 1-.012-.06.62.62 0 0 1-.009-.06.61.61 0 0 1-.006-.06.623.623 0 0 1-.003-.061.62.62 0 0 1 0-.061l.003-.06a.6.6 0 0 1 .006-.061.62.62 0 0 1 .009-.06l.012-.06.015-.059.018-.058a.936.936 0 0 1 .1-.222l.032-.052.034-.051.037-.049.039-.047.042-.045a.872.872 0 0 1 .089-.084l.048-.039c.016-.012.033-.025.05-.036a1.505 1.505 0 0 1 .104-.066l.055-.029a.957.957 0 0 1 .056-.026l.057-.024.058-.021zM146.281 120.308a1.348 1.348 0 0 1 .121-.031l.062-.012.062-.008.062-.005.063-.002a1.324 1.324 0 0 1 .125.005l.063.006.062.01.061.013.061.016.059.018.059.022c.02.007.039.016.058.024l.056.027a2.732 2.732 0 0 1 .108.062l.052.035a.914.914 0 0 1 .049.038c.017.012.033.026.048.039l.046.042.044.044a1.695 1.695 0 0 1 .117.144c.011.017.023.034.033.052a.93.93 0 0 1 .032.053l.029.055a.95.95 0 0 1 .048.113l.02.058.017.059.015.06.011.06.008.061.005.061.002.061-.002.062c0 .02-.002.04-.004.061a1.429 1.429 0 0 1-.018.121l-.013.06-.016.059-.02.059a1.334 1.334 0 0 1-.022.057l-.025.056-.028.055a1.49 1.49 0 0 1-.064.105l-.036.051-.039.048-.04.047a.913.913 0 0 1-.044.044.614.614 0 0 1-.045.043l-.047.04a.938.938 0 0 1-.101.073.584.584 0 0 1-.053.033l-.054.031-.056.027a1.012 1.012 0 0 1-.116.047l-.06.02-.06.016-.06.013-.062.011-.061.007a1.407 1.407 0 0 1-.062.005l-.063.002-.062-.002-.062-.004a1.306 1.306 0 0 1-.123-.018l-.061-.013a1.33 1.33 0 0 1-.119-.035l-.058-.021a1.41 1.41 0 0 1-.057-.025l-.056-.027a102383402707.354 102383402707.354 0 0 0-.107-.062l-.051-.035a.914.914 0 0 1-.049-.038l-.048-.039-.045-.042a1.805 1.805 0 0 1-.122-.137 1.604 1.604 0 0 1-.07-.101.919.919 0 0 1-.059-.107.7.7 0 0 1-.049-.113.954.954 0 0 1-.02-.057l-.017-.059a1.018 1.018 0 0 1-.025-.119l-.008-.06-.005-.061a1.243 1.243 0 0 1-.002-.061l.001-.061.004-.061.007-.06.01-.06.013-.06.016-.058a1.346 1.346 0 0 1 .066-.172l.027-.054.03-.053.033-.052c.012-.017.023-.034.036-.05a.897.897 0 0 1 .12-.14c.014-.014.029-.029.045-.042l.046-.041.049-.038a.892.892 0 0 1 .103-.068l.053-.031.056-.028.056-.026.058-.022.059-.02z" fill="#FEFEFE"/><path d="M153.923 116.558a1.26 1.26 0 0 1 .812-.038 1.192 1.192 0 0 1 .302.131 1.244 1.244 0 0 1 .449.465 1.163 1.163 0 0 1 .116.302 1.24 1.24 0 0 1 .014.483 1.318 1.318 0 0 1-.178.45 1.26 1.26 0 0 1-.343.347 1.192 1.192 0 0 1-.294.147l-.057.019c-.02.005-.039.011-.059.015a1.021 1.021 0 0 1-.059.013l-.059.01-.061.007-.06.005-.061.001-.06-.001-.061-.005-.06-.007a1.21 1.21 0 0 1-.059-.01c-.02-.003-.04-.008-.059-.012a1.29 1.29 0 0 1-.059-.016l-.057-.018-.057-.021a3 3 0 0 1-.11-.051l-.052-.028-.052-.032-.049-.033a.897.897 0 0 1-.095-.075.835.835 0 0 1-.044-.04c-.014-.014-.029-.028-.042-.043l-.04-.044a1.54 1.54 0 0 1-.107-.144l-.03-.051-.028-.052-.026-.054-.022-.055-.02-.056a1.23 1.23 0 0 1-.017-.057l-.014-.058c-.005-.019-.008-.038-.012-.058a1.154 1.154 0 0 1-.008-.058l-.006-.059a1.203 1.203 0 0 1 .001-.178.621.621 0 0 1 .006-.059l.009-.058.012-.058a.547.547 0 0 1 .015-.058l.017-.057.021-.055.023-.055.026-.054.028-.052.031-.051.034-.049a.75.75 0 0 1 .074-.094l.04-.044.043-.042a.582.582 0 0 1 .045-.04l.046-.038.048-.035.05-.034.052-.031.053-.028.055-.026.055-.023zM163.377 128.302l.057-.018.057-.015.058-.013a1.21 1.21 0 0 1 .237-.023l.06.002.059.004.06.007.058.009a.986.986 0 0 1 .116.028l.057.018.056.02.054.023.054.026.052.028.051.031.049.033a.818.818 0 0 1 .093.073l.044.039.042.042.039.043.038.046a.818.818 0 0 1 .068.095l.031.05.028.052a.86.86 0 0 1 .048.107l.02.054.017.056.015.057.012.057.009.058.006.058.003.058v.058l-.002.058c-.002.02-.003.039-.006.058a1.014 1.014 0 0 1-.019.115l-.014.057a.915.915 0 0 1-.058.165 1.3 1.3 0 0 1-.082.156l-.032.049-.034.048-.037.045-.039.044a.832.832 0 0 1-.085.082l-.045.038a.736.736 0 0 1-.096.07 1.358 1.358 0 0 1-.102.06l-.053.026a1.24 1.24 0 0 1-.537.118 1.278 1.278 0 0 1-.481-.097 1.257 1.257 0 0 1-.511-.396 1.323 1.323 0 0 1-.158-.282 1.25 1.25 0 0 1-.076-.313 1.084 1.084 0 0 1 .01-.322 1.237 1.237 0 0 1 .176-.449 1.33 1.33 0 0 1 .211-.246 1.236 1.236 0 0 1 .422-.247z" fill="#FEFEFE"/><path d="M56.856 180.013v-27.318c0-2.116-.27-10.979.185-12.337.342-.207 6.946-.193 7.634-.027a.925.925 0 0 1 .455.243c.254 1.27.113 2.713.101 4.005l-.042 6.279-.036 29.196 3.542-.013c2.703-.009 5.42.034 8.122-.047 1.027-.024 2.059-.01 3.086-.015.061-7.389.081-14.779.06-22.168 2.604.038 5.335-.176 7.914.119.181 1.982.068 4.035.12 6.028.157 5.384.235 10.77.233 16.156 2.081.024 5.443-.247 7.363.093.245.044.394.035.54.234-.279.221-.568.19-.905.197-6.471.143-12.962-.131-19.436-.132l-37.992.045c-.072-2.841-.008-5.699-.01-8.541l-.014-17.06c-.003-1.597-.238-10.068.057-10.984.074-.23.017-.155.225-.262.162.186.186.374.205.614.098 1.197.018 2.463.02 3.665l.014 7.391-.01 24.655c3.538.214 7.178.049 10.726.05 2.303 0 5.632.184 7.843-.066z" fill="#000"/><path d="M68.701 147.105c1.122-.004 7.3-.198 7.956.211.405 2.645.151 7.229.15 10.051-.006 7.531-.145 15.101.01 22.627-2.702.081-5.419.038-8.122.047l-.001-21.809c-.002-3.696-.13-7.436.007-11.127z" fill="#4075D7"/><path d="m45.428 179.992.029-16.096c0-1.731-.225-7.177.153-8.36.534-.412 6.529-.308 7.608-.192.166.183.252.33.278.579.068.671-.023 1.406-.023 2.085l.013 5.183-.017 16.802c1.122-.002 2.267-.051 3.386.021-2.21.249-5.54.065-7.842.065-3.548-.001-7.189.164-10.726-.049 2.373-.102 4.766-.04 7.142-.038z" fill="#FDBE50"/><path d="M37.734 107.839c3.297-.079 6.61-.014 9.91-.013l18.718.003 22.893-.005c2.957.002 5.936-.078 8.889-.028.341.006.774-.007 1.082.136.175.082.162.263.209.431-2.816.1-5.657.025-8.476.023l-15.091-.002-36.742.021c-.423-.004-.934.027-1.32-.148l-.072-.418zM37.664 118.555c1.576-.325 4.198-.096 5.905-.089l12.174.026 27.58.029c4.98-.004 9.982-.126 14.958-.022.36.007.79-.059 1.097.13l-.018.355c-15.504.28-31.049.061-46.556.038l-10.568-.025c-1.252-.001-2.956.253-4.15-.035-.287-.069-.286-.168-.422-.407zM37.671 113.199c5.74.14 11.505.042 17.248.038l30.559-.021c4.317 0 8.676-.144 12.989-.031.332.009.653-.003.938.185l.049.34c-5.216.139-10.469.024-15.69.027l-29.984.021-11.927.01c-.92 0-3.168.164-3.911-.016-.08-.02-.14-.089-.21-.134l-.06-.419zM37.769 123.819c2.717-.092 5.46-.014 8.18-.013l15.715.01 15.712.015c2.287.004 4.614-.087 6.895-.01.386.014.724.031 1.079.189l.127.34c-6.826.225-13.724.027-20.56.035-8.944.009-17.928.17-26.868-.026-.262-.188-.21-.242-.28-.54z" fill="#000"/><path d="M172.357 154.88c10.67-.093 21.393-.199 32.062.01l.017 40.611-15.932.004-32.239-.014-.041-40.601c5.374-.068 10.757.005 16.133-.01z" fill="#C3D1E2"/><path d="M161.263 160.679c3.055.034 6.111.042 9.166.025l-.002 9.038a305.62 305.62 0 0 0-9.184.013l.02-9.076z" fill="#000"/><path d="m162.306 161.663 7.083.022-.003 7.037c-2.345.082-4.73.002-7.079-.001l-.001-7.058z" fill="#FEFEFE"/><path d="M161.271 172.122c3.028.071 6.067.021 9.096.018.081 3.025.041 6.058.041 9.084l-9.102-.016-.035-9.086z" fill="#000"/><path d="m162.313 173.159 7.093.005.01 7.032h-7.099l-.004-7.037z" fill="#FEFEFE"/><path d="M161.368 183.676c3.011.04 6.025.022 9.036.028.035 2.848.045 5.695.029 8.542-2.996.123-6.037.008-9.038-.012-.046-2.851-.023-5.706-.027-8.558z" fill="#000"/><path d="M162.357 184.736c2.358-.031 4.717-.034 7.075-.008.153 2.161.048 4.378.032 6.545-2.345.001-4.735.098-7.073-.058-.223-2.083-.118-4.384-.034-6.479z" fill="#FEFEFE"/><path d="M175.813 175.714c2.282.043 19.248-.19 19.764.078l.072.53c-4.275.076-8.563.027-12.84.026-2.207-.001-4.56.164-6.752-.008-.253-.215-.207-.309-.244-.626zM175.517 164.143c2.011.024 19.249-.225 19.966.05l.15.346c-.115.086-.187.151-.337.192-.853.231-6.28.027-7.605.024-3.687-.009-7.396.12-11.078.029-.312-.008-.713.021-.978-.138l-.118-.503zM175.754 187.379c1.933-.117 19.335-.16 19.731.053.131.07.16.365.198.504-1.879.037-19.299.174-19.698.001-.141-.061-.188-.411-.231-.558z" fill="#000"/><path d="M110.9 141.171c5.312-.066 10.632.018 15.945.019l22.987-.006c-.232.531-.531 1.099-.587 1.678-.124 1.276-.047 2.613-.043 3.895l.021 7.189-.033 22.403-.077.24c-.812.307-8.87.095-10.473.095l-27.743-.045.003-35.468z" fill="#FDBE50"/><path d="M8.299 197.006c7.427-.176 14.892-.019 22.325-.029l46.04-.015 42.891.005c9.873-.012 19.77-.126 29.642.083.023 1.332-.217 2.742.105 4.052.354 1.438 1.25 2.386 2.511 3.132l-3.658-.003-95.447-.038-28.9.033c-4.774.007-9.621.183-14.388-.007-.86-.034-1.66-.138-2.408-.588-.893-.538-1.588-1.449-1.795-2.461a3.313 3.313 0 0 1 .527-2.565c.645-.947 1.437-1.371 2.555-1.599zM152.77 140.05c.145-.008.289-.014.433-.019 3.628-.124 7.305-.005 10.937-.009l22.132-.023 13.242-.008c2.301 0 4.757-.162 7.043.081.892.095 1.722.551 2.36 1.156.633.601 1.165 1.444 1.3 2.306.277 1.772.116 3.737.115 5.529l-.006 9.855.041 36.601-5.393.002.052-48.34-.004-1.87c-16.482-.228-32.991-.009-49.476.01l.119 50.153-5.988.029.076-32.129-.008-13.093c-.002-2.163-.105-4.367-.008-6.526.024-.554.086-1.107.339-1.612.532-1.058 1.586-1.727 2.694-2.093z" fill="#FEFEFE"/><path d="M149.697 196.089c10.004-.188 20.036-.005 30.044-.018 15.497-.02 31.012-.146 46.507.031.058 2.551.018 4.345-1.862 6.346-.908.867-2.037 1.573-3.313 1.755-2.157.307-4.588.091-6.773.087h-13.07l-46.281-.009c-1.618-.006-2.793-.203-3.974-1.418-1.732-1.781-1.304-4.509-1.278-6.774zM156.222 145.9l48.216-.005c.017 2.79-.01 5.582-.037 8.372-5.354.12-10.733.018-16.091.022l-32.089.001.001-8.39z" fill="#FEFEFE"/><path d="M193.573 149.997c.675-.042 1.397-.155 2.05.041.269.26.214.332.226.691-.689.034-1.496.175-2.145-.083-.186-.27-.152-.318-.131-.649zM113.71 34.731a18.403 18.403 0 0 1 3.569.179 18.497 18.497 0 0 1 8.176 3.338 18.195 18.195 0 0 1 2.64 2.357 17.1 17.1 0 0 1 1.13 1.357 17.856 17.856 0 0 1 1.427 2.223 18.074 18.074 0 0 1 1.077 2.403c.099.275.191.553.277.833a17.88 17.88 0 0 1 .682 3.432 18.203 18.203 0 0 1 .079 1.749c-.002.292-.01.583-.026.875a18.19 18.19 0 0 1-.185 1.74 17.94 17.94 0 0 1-.358 1.716 17.68 17.68 0 0 1-.855 2.487 16.956 16.956 0 0 1-.774 1.578 17.438 17.438 0 0 1-1.448 2.21 18.345 18.345 0 0 1-1.143 1.346 18.457 18.457 0 0 1-1.273 1.23 17.826 17.826 0 0 1-2.125 1.601 18.297 18.297 0 0 1-4.852 2.206 18.281 18.281 0 0 1-2.621.556 18.634 18.634 0 0 1-5.338-.037 18.84 18.84 0 0 1-2.603-.591 18.232 18.232 0 0 1-3.281-1.355 17.91 17.91 0 0 1-2.249-1.413 18.364 18.364 0 0 1-2.014-1.72 18.415 18.415 0 0 1-1.189-1.3 18.148 18.148 0 0 1-1.054-1.407 17.625 17.625 0 0 1-2.992-9.017 17.379 17.379 0 0 1 .787-6.029 17.368 17.368 0 0 1 .972-2.436 17.837 17.837 0 0 1 1.842-2.982 18.113 18.113 0 0 1 1.753-1.974 17.922 17.922 0 0 1 2.029-1.702 18.454 18.454 0 0 1 3.06-1.783 18.15 18.15 0 0 1 2.496-.935 18.523 18.523 0 0 1 4.384-.735z" fill="#000"/><path d="M118.663 41.21c.588-.031 1.493-.157 1.989.207.196.144.299.387.337.618.163.988.156 2.593-.469 3.426-.727.97-2.138 1.079-3.254 1.243l-.007 1.947c.646.01 1.295-.045 1.941-.071.41-.017.981-.1 1.306.193.231.52.266 1.046.282 1.607.021.756.175 2.636-.386 3.214-.916.25-2.14.104-3.093.108-.012 1.744.3 8.951-.24 10.002-.682.523-1.51.373-2.33.352-.847.013-1.912.145-2.691-.23-.531-.745-.287-8.557-.352-10.11-.745-.06-2.419.217-2.939-.255-.409-1.193-.42-3.356.024-4.547.546-.478 2.178-.26 2.916-.244-.043-2.117.03-4.137 1.643-5.766 1.503-1.518 3.316-1.627 5.323-1.695z" fill="#FEFEFE"/><path d="M117.263 42.637c.756-.06 1.53-.034 2.289-.036.022.507.122 1.23-.075 1.7-.653 1.558-2.425.516-3.224.956-.247.305-.327.548-.38.934-.112.824-.34 2.952.268 3.552.551.544 2.43.259 3.198.262l-.004 2.324c-.543.024-2.842-.163-3.175.186-.629.66-.343 8.677-.339 10.12-.837.115-1.75.045-2.597.04-.013-2.085-.015-4.17-.005-6.256.002-1.088.106-2.273-.051-3.348-.212-1.442-2.288-.284-3.161-.912-.201-.605-.078-1.468-.06-2.112l3.179-.026c-.017-1.99-.341-4.403 1.075-6.03.817-.94 1.86-1.239 3.062-1.354z" fill="#000"/><path d="M184.006 52.317c1.382 2.547 2.349 5.088 2.463 7.996.187 4.748-1.3 9.154-4.63 12.672-3.259 3.44-7.708 5.308-12.484 5.458-4.815.15-9.351-1.622-12.837-4.849-3.618-3.35-5.607-7.566-5.698-12.46-.087-4.704 1.757-9.584 5.119-12.975a17.784 17.784 0 0 1 1.246-1.148 17.074 17.074 0 0 1 2.069-1.485 17.73 17.73 0 0 1 2.271-1.17 16.986 16.986 0 0 1 1.601-.593 17.783 17.783 0 0 1 5.05-.821c4.795-.063 8.853 1.8 12.224 5.038l.536.51c.484.324.826.806 1.192 1.248.492.62.976 1.238 1.42 1.893l.458.686z" fill="#FDBE50"/><path d="M178.545 55.265c.179.39.456.756.665 1.135 1.248 2.26 1.446 4.932.707 7.383a11.718 11.718 0 0 1-2.174 4.04 11.142 11.142 0 0 1-.78.858 11.619 11.619 0 0 1-.861.78 11.872 11.872 0 0 1-1.426 1.008c-.167.1-.336.197-.507.289a11.408 11.408 0 0 1-3.654 1.18 11.6 11.6 0 0 1-2.754.068 11.596 11.596 0 0 1-2.164-.418c-2.963-.87-5.434-3.004-6.886-5.655-1.422-2.597-1.693-5.848-.801-8.657.896-2.826 3.183-5.287 5.84-6.647 1.223-.626 3.174-1.412 4.55-.998-.068 2.775.114 5.543.139 8.316.006.65-.174 2.039-.032 2.576.023.088.087.16.131.24.24.064.256.078.483-.044.891-.483 1.714-1.167 2.6-1.683 1.333-.777 2.801-1.43 4.085-2.273a14.461 14.461 0 0 0 2.395-1.305l.444-.193z" fill="#FEFEFE"/><path d="m180.398 47.98.536.51c.484.324.826.806 1.192 1.248.492.62.976 1.238 1.42 1.893-1.571.918-3.16 1.822-4.658 2.852-.31.232-.681.451-.839.81l.05.165c-.709.483-1.601.972-2.394 1.305-1.284.842-2.752 1.496-4.086 2.273-.885.516-1.708 1.2-2.6 1.682-.227.123-.243.11-.483.045-.043-.08-.107-.152-.131-.24-.142-.537.039-1.926.033-2.576-.025-2.773-.208-5.541-.139-8.316a4 4 0 0 1 .488.256c.196.823.071 1.902.092 2.755.048 1.81.118 3.62.208 5.428 3.837-3.285 7.454-6.823 11.311-10.09z" fill="#000"/><path d="M177.412 51.51c.711.268 1.153.594 1.659 1.145l-.787.744c-.804.719-1.762 1.326-2.53 2.064-2.187 1.35-4.235 3.18-6.605 4.225l-.113-.076-.008-.247c.558-1.237 6.852-6.557 8.384-7.855z" fill="#FEFEFE"/><path d="M182.127 49.738c.492.62.975 1.238 1.419 1.893-1.571.918-3.159 1.822-4.658 2.852-.124-.39-.385-.74-.605-1.084l.787-.744c1.075-.891 2.092-1.913 3.057-2.917z" fill="#4075D7"/><path d="M180.935 48.49c.484.324.826.806 1.192 1.248-.964 1.004-1.981 2.026-3.056 2.917-.506-.551-.948-.877-1.659-1.144l3.523-3.021z" fill="#4075D7"/><path d="M178.283 53.4c.22.344.481.694.605 1.083-.31.232-.68.451-.839.81l.05.165c-.709.483-1.601.972-2.394 1.305.296-.492.889-.709 1.388-.972l-.01-.055c-.211-.08-.261-.092-.408-.269.023-.057.136-.341.149-.394.013-.051.007-.105.016-.157.002-.01.011-.018.017-.027-.278.196-.638.51-.973.569-.043.007-.087.003-.131.005.768-.738 1.725-1.345 2.53-2.064z" fill="#212021"/><path d="M178.888 54.483c1.498-1.03 3.087-1.934 4.657-2.852l.459.686c-1.94.678-3.674 1.96-5.461 2.948l-.444.193-.05-.165c.158-.359.529-.578.839-.81z" fill="#000"/><path d="M58.697 47.301a17.969 17.969 0 0 1 3.472.048 18.06 18.06 0 0 1 5.813 1.662 17.77 17.77 0 0 1 4.9 3.481 17.48 17.48 0 0 1 2.164 2.657 16.967 16.967 0 0 1 1.251 2.237 16.893 16.893 0 0 1 .902 2.392 17.17 17.17 0 0 1 .534 2.495 16.655 16.655 0 0 1 .153 2.546 17.101 17.101 0 0 1-.392 3.375 16.894 16.894 0 0 1-1.058 3.236 17.238 17.238 0 0 1-3.926 5.564 17.64 17.64 0 0 1-4.222 2.966 17.857 17.857 0 0 1-4.07 1.465 17.779 17.779 0 0 1-2.574.397 17.93 17.93 0 0 1-2.603.023 18.426 18.426 0 0 1-2.579-.35 18.081 18.081 0 0 1-4.092-1.392 17.742 17.742 0 0 1-5.482-4.106 17.345 17.345 0 0 1-3.16-5.049 17.237 17.237 0 0 1-.78-2.43 17.072 17.072 0 0 1-.457-3.364 16.955 16.955 0 0 1 1.801-8.227 16.882 16.882 0 0 1 .84-1.486 17.354 17.354 0 0 1 3.353-3.88 17.512 17.512 0 0 1 2.816-1.983 17.612 17.612 0 0 1 2.342-1.112 17.969 17.969 0 0 1 5.054-1.165z" fill="#4075D7"/><path d="M59.406 54.335a10.97 10.97 0 0 1 3.65.327 11.153 11.153 0 0 1 1.489.51 10.95 10.95 0 0 1 1.834 1.003 10.53 10.53 0 0 1 1.6 1.334 10.604 10.604 0 0 1 1.574 2.054 10.18 10.18 0 0 1 .681 1.391 10.437 10.437 0 0 1 .465 1.475 10.348 10.348 0 0 1 .267 2.04 10.152 10.152 0 0 1-.247 2.555 10.29 10.29 0 0 1-1.39 3.318 10.552 10.552 0 0 1-3.764 3.524 10.869 10.869 0 0 1-7.619 1.123 10.803 10.803 0 0 1-3.814-1.644 10.594 10.594 0 0 1-3.154-3.383 10.435 10.435 0 0 1-1.01-2.36 10.306 10.306 0 0 1-.397-3.043 10.184 10.184 0 0 1 .372-2.532 10.419 10.419 0 0 1 1.255-2.81 10.45 10.45 0 0 1 2.034-2.334 10.765 10.765 0 0 1 2.638-1.657 10.824 10.824 0 0 1 3.015-.837c.173-.023.347-.04.521-.054z" fill="#FEFEFE"/><path d="M59.08 55.808a9.08 9.08 0 0 1 .91-.068 9.376 9.376 0 0 1 1.816.127 9.32 9.32 0 0 1 2.178.644 9.49 9.49 0 0 1 1.585.877 9.419 9.419 0 0 1 1.38 1.165 8.944 8.944 0 0 1 1.118 1.406 8.798 8.798 0 0 1 .643 1.18 9.11 9.11 0 0 1 .458 1.26 8.912 8.912 0 0 1 .188 3.98 9.092 9.092 0 0 1-.338 1.295 8.98 8.98 0 0 1-2.435 3.72 9.074 9.074 0 0 1-1.443 1.088 9.316 9.316 0 0 1-2.5 1.063 9.478 9.478 0 0 1-4.05.165 9.405 9.405 0 0 1-4.088-1.803 9.269 9.269 0 0 1-1.59-1.571 9.16 9.16 0 0 1-.96-1.5 8.933 8.933 0 0 1-.947-4.726 9.032 9.032 0 0 1 .202-1.313 8.873 8.873 0 0 1 1.21-2.85 8.996 8.996 0 0 1 1.433-1.71 9.021 9.021 0 0 1 1.05-.843 9.256 9.256 0 0 1 1.99-1.044 9.65 9.65 0 0 1 1.298-.389 9.404 9.404 0 0 1 .892-.153z" fill="#4075D7"/><path d="M59.828 65.815c.312-.022.63-.004.942.01 1.388.06 2.933.418 3.883 1.483.993 1.114.82 2.466.741 3.83-1.493.28-3.13.157-4.646.151-1.636-.004-3.935.232-5.434-.4-.2-.255-.249-.476-.29-.786-.127-.953.065-1.852.699-2.602 1.019-1.205 2.59-1.57 4.105-1.686zM59.938 58.93a2.855 2.855 0 0 1 .561.018 2.944 2.944 0 0 1 .68.168 2.865 2.865 0 0 1 .62.321 3.035 3.035 0 0 1 .427.356 2.753 2.753 0 0 1 .425.546 2.59 2.59 0 0 1 .186.37 2.891 2.891 0 0 1 .185.66 2.838 2.838 0 0 1-.051 1.093 2.775 2.775 0 0 1-.387.88 2.685 2.685 0 0 1-.254.33 2.843 2.843 0 0 1-.638.534 3.015 3.015 0 0 1-.767.336 3.197 3.197 0 0 1-.412.083 2.954 2.954 0 0 1-.974-.033 3.015 3.015 0 0 1-.908-.344 2.972 2.972 0 0 1-.742-.616 2.817 2.817 0 0 1-.558-1.002 2.79 2.79 0 0 1 .067-1.877 2.865 2.865 0 0 1 1.593-1.604 2.823 2.823 0 0 1 .56-.168 3.05 3.05 0 0 1 .387-.05z" fill="#FEFEFE"/></svg>