<svg width="45" height="45" fill="none" xmlns="http://www.w3.org/2000/svg"><path fill-rule="evenodd" clip-rule="evenodd" d="M7.031 0H37.97A7.031 7.031 0 0 1 45 7.031V37.97A7.031 7.031 0 0 1 37.969 45H7.03A7.031 7.031 0 0 1 0 37.969V7.03A7.031 7.031 0 0 1 7.031 0zm16.442 16.885c-2.015.838-6.043 2.573-12.082 5.205-.981.39-1.495.771-1.542 1.144-.079.631.71.88 1.786 1.217.146.046.298.094.453.145 1.058.343 2.48.746 3.22.762.672.014 1.42-.263 2.247-.83 5.644-3.81 8.557-5.735 8.74-5.776.129-.03.307-.067.428.041.122.108.11.312.097.366-.078.334-3.178 3.215-4.782 4.706-.5.465-.854.795-.927.87-.162.17-.328.329-.487.482-.983.947-1.72 1.658.04 2.818.847.558 1.524 1.019 2.2 1.479.737.502 1.473 1.003 2.424 1.627.243.159.475.324.7.485.859.612 1.63 1.162 2.583 1.074.553-.051 1.125-.572 1.415-2.124.687-3.67 2.036-11.62 2.348-14.896a3.65 3.65 0 0 0-.035-.815c-.027-.162-.085-.391-.295-.561-.248-.202-.631-.244-.803-.241-.779.013-1.974.43-7.728 2.822z" fill="#fff"/></svg>