<svg width="168" height="168" fill="none" xmlns="http://www.w3.org/2000/svg"><path d="M42.15 98.053c-1.344-1.033-3.15-1.81-4.674-2.54a144.483 144.483 0 0 0-18.561-7.299 208.205 208.205 0 0 0-4.74-1.395c-.982-.272-2.167-.472-3.076-.916-.233-.113-.406-.202-.46-.48a.465.465 0 0 1 .06-.34c.329-.448 1.23-.784 1.733-1.02A10918.275 10918.275 0 0 1 136.05 26.393l15.422-7.24a651.92 651.92 0 0 1 7.171-3.406c.868-.41 2.754-1.509 3.619-1.619.202-.026.226.012.382.126.353.813-.805 3.353-1.132 4.262-.788 1.967-1.435 3.993-2.166 5.981a1248.644 1248.644 0 0 0-6.6 18.492L135.512 92.7l-15.523 43.752-4.524 12.6c-.555 1.575-1.206 3.151-1.679 4.748a17.038 17.038 0 0 1-1.538 3.688c-1.672-1.775-3.608-3.366-5.39-5.032l-11.473-10.675-11.068-10.3c-1.51-1.385-2.977-2.885-4.566-4.175-.843-.721-1.642-1.49-2.446-2.254-1.626 1.617-3.37 3.101-5.08 4.627a529.16 529.16 0 0 0-9.822 8.874c-.588.553-1.233 1.065-1.804 1.631-1.377 1.042-3.643 3.816-4.985 4.502-.274.14-.485.19-.785.086-.2-.212-.293-.457-.37-.735-1.067-3.876-1.916-7.821-2.907-11.717a1004.537 1004.537 0 0 0-6.947-26.442 93.938 93.938 0 0 0-2.454-7.825zm114.446-80.152c-1.421.514-2.727 1.313-4.103 1.936-4.611 2.092-9.154 4.324-13.758 6.43a3392.073 3392.073 0 0 0-46.487 21.567L34.228 74.99l-11.983 5.69c-3.222 1.493-6.52 2.911-9.649 4.59a124.12 124.12 0 0 1 6.766 1.923c.823.261 1.685.49 2.486.805 5.18 1.82 10.275 3.73 15.242 6.082 1.788.848 3.663 1.703 5.296 2.83 7.854-5.618 15.997-10.844 23.949-16.324l88.632-61.537c.258-.176 1.601-.947 1.65-1.139l-.021-.008zm.493 1.142a1460.917 1460.917 0 0 0-55.631 46.571l-22.89 19.802-21.994 19.441a448.922 448.922 0 0 1-5.734 4.983c-1.105.947-2.292 1.866-3.314 2.901 2.135 7.882 4.058 15.817 6.163 23.705.278 1.201.597 2.39.885 3.588.208.867.376 1.754.642 2.606 1.835-6.556 3.919-13.066 5.956-19.563.424-1.351 1.458-5.272 2.07-6.222.523-.81 1.383-1.527 2.06-2.209.882-.892 1.756-1.791 2.623-2.696l13.317-13.747 56.727-59.34c4.862-5.124 9.654-10.291 14.626-15.312.514-.52 4.381-4.12 4.487-4.415.01-.03.005-.062.007-.093zm.837.479c-1.189 1.14-2.315 2.34-3.474 3.51-4.949 5.002-9.698 10.173-14.566 15.249l-36.843 38.658-27.54 28.618-6.93 7.189c-1.324 1.361-2.706 2.676-3.968 4.093 3.84 1.37 7.606 3.109 10.954 5.458 2.016 1.414 3.818 3.166 5.626 4.83a702.25 702.25 0 0 1 6.831 6.319 1635.893 1635.893 0 0 1 20.279 18.861c1.194 1.122 2.372 2.364 3.648 3.387.284-.755.525-1.552.857-2.285l-.081-.093c-.891-1.019-1.991-1.918-2.979-2.845l-6.527-6.066-22.304-20.62c-1.042-.967-2.062-2.019-3.163-2.916-1.25-1.019-2.68-1.693-3.728-2.971-.9-1.097-1.417-2.687-1.331-4.109.078-1.285.604-2.467 1.431-3.444 1.693-1.998 3.769-3.925 5.58-5.848l12.356-12.94c1.259-1.3 2.56-2.561 3.813-3.867l26.953-28.525a936.777 936.777 0 0 0 16.716-17.953c1.1-1.207 2.252-2.366 3.34-3.584 2.884-3.232 5.673-6.57 8.445-9.898 2.114-2.537 4.147-5.166 6.318-7.651.12-.138.391-.384.287-.557zm-12.078 6.98a1066.837 1066.837 0 0 1-16.599 11.723L85.806 68.28a2109.589 2109.589 0 0 1-30.732 21.327c-3.947 2.659-7.813 5.492-11.886 7.956.68 1.977 1.352 3.946 1.93 5.955.465 1.613.844 3.26 1.327 4.864.245 1.03.443 2.114.83 3.1 1.156-.884 2.233-1.902 3.34-2.85 3.19-2.731 6.296-5.558 9.46-8.319l30.579-26.818A3080.295 3080.295 0 0 1 124.347 44.5l14.806-12.347c2.228-1.853 4.609-3.596 6.738-5.558-.012-.032-.015-.074-.043-.093z" fill="#080717"/><path d="M161.512 18.515c1.871-.368 3.625-1.228 5.39-1.918-1.693 4.497-3.182 9.062-4.778 13.593a2151.322 2151.322 0 0 0-12.888 37.467l-19.038 54.289-7.26 20.485a522.886 522.886 0 0 1-3.339 9.594c-.598 1.715-1.138 3.439-1.82 5.126-1.388-1.048-2.641-2.261-3.993-3.351.473-1.597 1.125-3.173 1.679-4.748l4.524-12.6L135.512 92.7l17.234-49.712a1248.644 1248.644 0 0 1 6.6-18.492c.731-1.988 1.378-4.014 2.166-5.98z" fill="#4075D7"/><path d="M12.596 85.27c3.13-1.68 6.427-3.098 9.649-4.59l11.983-5.691 58.02-27.155a3387.739 3387.739 0 0 1 46.487-21.567c4.604-2.106 9.147-4.338 13.758-6.43 1.376-.624 2.682-1.422 4.103-1.936l.021.008c-.049.192-1.392.963-1.65 1.14L66.335 80.584c-7.952 5.48-16.095 10.707-23.949 16.325-1.633-1.128-3.508-1.983-5.297-2.83-4.966-2.353-10.062-4.263-15.241-6.083-.801-.315-1.663-.544-2.486-.805-2.242-.711-4.488-1.34-6.766-1.922zM47.526 112.74c1.022-1.034 2.21-1.953 3.314-2.9a448.93 448.93 0 0 0 5.734-4.983l21.993-19.44 22.891-19.803a1460.917 1460.917 0 0 1 55.631-46.571c-.002.03.003.063-.007.093-.106.294-3.973 3.895-4.487 4.415-4.972 5.02-9.764 10.188-14.626 15.313L81.242 98.203 67.925 111.95c-.867.905-1.741 1.804-2.623 2.696-.677.682-1.537 1.399-2.06 2.209-.612.95-1.646 4.871-2.07 6.222-2.037 6.497-4.121 13.007-5.956 19.563-.266-.852-.434-1.739-.642-2.606-.288-1.198-.607-2.387-.885-3.588-2.105-7.888-4.028-15.823-6.163-23.706z" fill="#F8F7FE"/><path d="M64.605 116.839c1.262-1.417 2.644-2.732 3.967-4.093l6.932-7.189 27.539-28.618 36.843-38.658c4.868-5.076 9.617-10.247 14.566-15.248 1.159-1.172 2.285-2.37 3.474-3.511.104.173-.167.419-.287.557-2.171 2.485-4.204 5.114-6.318 7.651-2.772 3.329-5.561 6.666-8.445 9.898-1.088 1.218-2.24 2.377-3.34 3.584a936.181 936.181 0 0 1-16.716 17.953L95.867 87.69c-1.253 1.306-2.554 2.566-3.814 3.867l-12.355 12.939c-1.811 1.924-3.887 3.851-5.58 5.849-.827.977-1.353 2.159-1.431 3.444-.086 1.422.431 3.012 1.33 4.109 1.049 1.278 2.48 1.952 3.73 2.971 1.1.897 2.12 1.949 3.162 2.916l22.304 20.62 6.527 6.066c.988.927 2.088 1.826 2.979 2.845l.081.093c-.332.733-.573 1.53-.857 2.285-1.276-1.023-2.454-2.265-3.648-3.387a1635.893 1635.893 0 0 0-20.279-18.861 702.25 702.25 0 0 0-6.83-6.319c-1.809-1.664-3.61-3.416-5.627-4.83-3.348-2.349-7.114-4.088-10.954-5.458zM43.188 97.563c4.073-2.463 7.94-5.296 11.886-7.956A2108.796 2108.796 0 0 0 85.806 68.28l43.443-30.056c5.57-3.854 11.103-7.762 16.599-11.722.028.019.031.06.043.093-2.129 1.962-4.51 3.705-6.738 5.557L124.347 44.5a3080.295 3080.295 0 0 0-33.693 28.997l-30.579 26.818c-3.164 2.761-6.27 5.588-9.46 8.319-1.106.948-2.184 1.966-3.34 2.85-.387-.986-.585-2.07-.83-3.1-.483-1.604-.862-3.251-1.326-4.864-.579-2.009-1.251-3.978-1.93-5.956z" fill="#F8F7FE"/><path d="M79.75 127.306c-.953.795-1.819 1.702-2.705 2.572a352.929 352.929 0 0 1-3.532 3.409l-6.397 6.14c-1.85 1.769-3.74 3.526-5.521 5.362a197.5 197.5 0 0 1-.996-4.605c.57-.566 1.216-1.078 1.804-1.631a529.48 529.48 0 0 1 9.823-8.874c1.71-1.526 3.453-3.01 5.08-4.627.803.764 1.602 1.533 2.445 2.254z" fill="#4075D7"/></svg>