<svg width="45" height="45" fill="none" xmlns="http://www.w3.org/2000/svg"><path fill-rule="evenodd" clip-rule="evenodd" d="M17.719 30.516c1.406.843 3.093 1.265 4.781 1.265 5.203 0 9.281-4.218 9.281-9.14 0-2.532-.843-4.782-2.672-6.61-1.828-1.687-4.078-2.672-6.609-2.672-5.063 0-9.281 4.22-9.281 9.282 0 1.687.422 3.375 1.406 4.922l.281.421-.984 3.375 3.515-.984.282.14zm7.875-6.61c.281 0 1.687.703 1.968.844.044.022.088.04.131.059.235.099.454.191.573.785.14 0 .14.562-.141 1.265-.14.563-1.266 1.266-1.828 1.266-.095 0-.187.008-.284.017-.478.042-1.106.098-3.091-.72-2.465-.986-4.173-3.375-4.653-4.046a2.403 2.403 0 0 0-.128-.173 3.256 3.256 0 0 0-.137-.225c-.31-.491-.988-1.561-.988-2.728 0-1.406.703-2.11.984-2.39.281-.282.563-.282.703-.282h.563c.14 0 .422 0 .562.422.281.563.844 1.969.844 2.11 0 .046.015.093.031.14.031.094.063.188-.031.281a.736.736 0 0 0-.14.211c-.036.07-.071.14-.141.211l-.422.422c-.14.14-.282.281-.14.563.14.28.702 1.265 1.546 1.968.95.831 1.698 1.16 2.078 1.328.07.031.128.056.172.078.281 0 .422 0 .563-.14.07-.14.246-.352.421-.563.176-.21.352-.422.422-.562.14-.281.282-.281.563-.14z" fill="#fff"/><path fill-rule="evenodd" clip-rule="evenodd" d="M0 7.031A7.031 7.031 0 0 1 7.031 0H37.97A7.031 7.031 0 0 1 45 7.031V37.97A7.031 7.031 0 0 1 37.969 45H7.03A7.031 7.031 0 0 1 0 37.969V7.03zm22.5 4.219c2.953 0 5.766 1.125 7.875 3.234 2.11 2.11 3.375 4.922 3.375 7.875 0 6.188-5.063 11.25-11.25 11.25-1.828 0-3.656-.562-5.344-1.406L11.25 33.75l1.547-5.625c-.985-1.688-1.547-3.656-1.547-5.625 0-6.188 5.063-11.25 11.25-11.25z" fill="#fff"/></svg>