<svg width="239" height="239" fill="none" xmlns="http://www.w3.org/2000/svg"><path d="M198.491 123.853c-2.111 40.376-34.323 72.666-74.694 74.874-40.371 2.208-75.912-26.375-82.414-66.28-6.502-39.906 18.127-78.293 57.11-89.015a79.122 79.122 0 0 1 99.998 80.421zM94.405 45.784c-10.738 3.945-21.647 9.73-29.507 18.223 1.65 1.75 3.354 3.43 4.962 5.22 4.901-4.703 9.715-8.166 15.533-11.634 9.92-5.146 20.507-8.258 31.716-8.65 20.322-.71 37.452 6.512 52.197 20.271 1.535-1.813 3.338-3.346 4.903-5.122a71.021 71.021 0 0 0-18.32-13.54c-19.549-9.941-40.639-11.534-61.484-4.768zm75.587 24.197c9.059 9.99 15.617 20.881 18.541 34.18.606 2.755.918 5.551 1.305 8.341 1.695 19.888-3.723 37.832-16.633 53.149a79.227 79.227 0 0 1-3.428 3.784 268.155 268.155 0 0 1 5.16 5.126 76.298 76.298 0 0 0 22.469-53.451c.009-.263.016-.526.019-.789a78.639 78.639 0 0 0-22.347-55.42c-1.82 1.44-3.528 3.357-5.086 5.08zm-114.789 78.9c-1.445-3.296-2.757-6.645-3.74-10.111a70.81 70.81 0 0 1 2.371-45.001 70.245 70.245 0 0 1 10.014-17.725c1.68-2.127 3.522-4.114 5.331-6.13-1.725-1.654-3.319-3.607-5.13-5.142-3.224 3.06-6.024 6.52-8.564 10.16a76.78 76.78 0 0 0-13.88 42.851 79.81 79.81 0 0 0 5.6 31.362c.938 2.411 1.924 4.906 3.249 7.137 3.113 6.366 8.462 13.368 13.53 18.309 1.88-1.552 3.604-3.42 5.248-5.218-5.648-5.827-10.81-13.018-14.029-20.492zm62.406-98.882c-38.484 1.06-68.814 33.131-67.724 71.614 1.09 38.483 33.185 68.787 71.667 67.667 38.439-1.119 68.702-33.171 67.614-71.611-1.088-38.44-33.116-68.727-71.557-67.67zM69.985 170.245c-1.743 1.692-3.434 3.436-5.176 5.128a77.121 77.121 0 0 0 41.504 21.273c4.341.746 8.796 1.2 13.204 1.137 15.929-.23 31.072-4.614 44.213-13.728 2.255-1.564 4.377-3.322 6.501-5.057 1.348-1.132 2.626-2.286 3.816-3.588-1.411-1.877-3.296-3.6-5-5.219-3.055 2.741-6.065 5.443-9.456 7.771a72.515 72.515 0 0 1-44.441 12.354 69.873 69.873 0 0 1-36.718-13.036c-1.624-1.178-3.238-2.434-4.737-3.769-1.173-1.046-2.386-2.448-3.71-3.266z" fill="#000"/><path d="M94.405 45.784c20.845-6.766 41.935-5.173 61.484 4.767a71.024 71.024 0 0 1 18.32 13.541c-1.565 1.776-3.368 3.309-4.903 5.122-14.745-13.76-31.875-20.982-52.197-20.27-11.209.391-21.796 3.503-31.716 8.65.485-1.557 7.088-8.578 8.424-10.337.382-.503.682-.812.588-1.473z" fill="#ECEEF8"/><path d="M64.898 64.007c7.86-8.493 18.77-14.278 29.507-18.223.094.66-.206.97-.588 1.473-1.336 1.76-7.939 8.78-8.424 10.336-5.819 3.468-10.632 6.93-15.533 11.634-1.608-1.79-3.312-3.471-4.962-5.22z" fill="#FEFEFE"/><path d="M121.552 189.28c-38.482 1.12-70.578-29.184-71.667-67.667-1.09-38.483 29.24-70.555 67.724-71.614 38.441-1.058 70.469 29.23 71.557 67.67 1.088 38.44-29.175 70.492-67.614 71.611zm-4.114-128.16c-32.315 1.2-57.529 28.388-56.296 60.702 1.233 32.314 28.445 57.501 60.758 56.236 32.268-1.263 57.412-28.429 56.181-60.698-1.231-32.27-28.372-57.44-60.643-56.24z" fill="#FDBE50"/><path d="M121.9 178.058c-32.313 1.265-59.525-23.922-60.758-56.237-1.233-32.314 23.98-59.5 56.296-60.702 32.271-1.2 59.412 23.972 60.643 56.241 1.231 32.269-23.913 59.435-56.181 60.698zm-4.872-115.845c-31.707 1.432-56.246 28.301-54.804 60.008 1.442 31.706 28.319 56.237 60.025 54.784 31.691-1.451 56.208-28.314 54.767-60.005-1.442-31.692-28.296-56.218-59.988-54.787z" fill="#000"/><path d="M122.249 177.005c-31.706 1.453-58.583-23.078-60.025-54.784-1.442-31.707 23.097-58.576 54.804-60.008 31.692-1.431 58.546 23.095 59.988 54.787 1.441 31.691-23.076 58.554-54.767 60.005zm-5.21-112.143c-30.24 1.399-53.627 27.034-52.252 57.275 1.374 30.241 26.99 53.649 57.232 52.3 30.278-1.351 53.719-27.004 52.343-57.28-1.376-30.276-27.048-53.696-57.323-52.295z" fill="#FDBE50"/><path d="M122.019 174.437c-30.241 1.349-55.858-22.059-57.232-52.3-1.375-30.24 22.013-55.876 52.252-57.275 30.275-1.401 55.947 22.02 57.323 52.295 1.376 30.276-22.065 55.929-52.343 57.28zM101.058 95.53l-6.874.01c-1.815.003-3.812-.156-5.584.272-1.354.327-2.682 1.017-3.672 2.004a9.065 9.065 0 0 0-2.31 3.948c-.523 1.907-.287 4.717-.298 6.725-.02 3.5-.023 6.999-.007 10.499l.075 10.526c0 2.627-.32 5.682.278 8.244.295 1.266 1.194 2.584 2.11 3.486 1.239 1.222 2.685 1.985 4.398 2.27 1.88.312 3.899.184 5.802.184l9.508-.012 33.177.005 7.041.024c1.984.005 4.225.215 6.15-.286a7.26 7.26 0 0 0 3.224-1.831c1.024-1.01 1.85-2.474 2.129-3.889.412-2.092.179-5.484.183-7.721l.002-15.811c-.005-2.79.282-10.963-.34-13.316-.295-1.115-.94-2.275-1.741-3.101-1.089-1.123-2.392-1.77-3.92-2.027-1.785-.3-3.71-.185-5.521-.192l-8.959-.031-34.851.02z" fill="#000"/><path d="M69.18 69.914c-1.81 2.016-3.653 4.003-5.332 6.13A70.247 70.247 0 0 0 53.834 93.77a70.81 70.81 0 0 0-2.37 45.001c.982 3.466 2.294 6.815 3.739 10.111a8.003 8.003 0 0 1-.664 1.523c-.417.715-3.685 5.538-4.085 5.878-1.325-2.231-2.311-4.726-3.25-7.137a79.808 79.808 0 0 1-5.599-31.362 76.78 76.78 0 0 1 13.88-42.852c2.54-3.639 5.34-7.1 8.563-10.16 1.812 1.536 3.406 3.49 5.131 5.143z" fill="#FEFEFE"/><path d="M189.838 112.502c-.387-2.79-.699-5.586-1.305-8.341-2.924-13.299-9.482-24.19-18.541-34.18 1.558-1.723 3.266-3.64 5.086-5.08a78.638 78.638 0 0 1 22.347 55.42c-.003.263-.01.526-.019.789-1.268-.721-4.906-6.999-6.776-8.406-.306-.23-.416-.249-.792-.202z" fill="#ECEEF8"/><path d="m137.661 143.691-33.177-.005-9.508.012c-1.903 0-3.923.128-5.802-.184-1.713-.285-3.16-1.048-4.399-2.27-.915-.902-1.814-2.22-2.11-3.486-.597-2.562-.278-5.617-.277-8.244l-.075-10.527c-.016-3.499-.013-6.998.007-10.498.01-2.008-.225-4.818.297-6.725a9.065 9.065 0 0 1 2.31-3.948c.99-.987 2.319-1.677 3.673-2.004 1.772-.428 3.77-.27 5.584-.273l6.874-.01 34.851-.02 8.959.032c1.811.007 3.736-.109 5.521.192 1.528.258 2.831.903 3.92 2.027.801.826 1.446 1.986 1.741 3.101.622 2.353.335 10.526.34 13.316l-.002 15.811c-.004 2.237.229 5.629-.183 7.721-.279 1.415-1.105 2.879-2.129 3.889a7.26 7.26 0 0 1-3.224 1.831c-1.925.5-4.166.291-6.15.286l-7.041-.024zM91.885 99.144c-1.672.113-3.229.521-4.382 1.84-.704.805-1.036 1.727-1.167 2.777-.249 2.004-.083 4.177-.08 6.203l.023 11.764c.008 2.898-.003 5.796-.032 8.693-.014 1.598-.145 3.299.02 4.885.136 1.326.59 2.394 1.655 3.229.749.586 1.523.866 2.46.955 1.983.189 4.058.016 6.051 0l10.843-.018c13.263-.008 26.549-.137 39.81.079 1.5.001 2.706-.126 3.823-1.261.768-.778 1.226-1.753 1.395-2.827.203-1.288.086-2.697.076-4.001l-.026-6.335c-.01-6.836.186-13.721-.031-20.551-.05-1.57-.412-2.847-1.592-3.965-.796-.753-1.731-1.22-2.819-1.35-2.189-.26-4.569-.095-6.775-.104l-13.319-.03-19.405.012c-5.503-.023-11.027-.123-16.528.005z" fill="#4075D7"/><path d="M147.086 139.551c-13.261-.216-26.547-.087-39.81-.079l-10.843.018c-1.993.016-4.068.189-6.05 0-.938-.089-1.712-.369-2.46-.955-1.065-.835-1.52-1.903-1.657-3.229-.164-1.585-.033-3.287-.02-4.885.03-2.897.041-5.795.033-8.693l-.022-11.764c-.004-2.026-.17-4.199.08-6.203.13-1.05.462-1.972 1.166-2.777 1.153-1.319 2.71-1.727 4.382-1.84 5.5-.128 11.025-.028 16.528-.005l19.405-.012 13.319.03c2.206.009 4.586-.156 6.775.104 1.088.13 2.023.597 2.819 1.35 1.18 1.118 1.542 2.395 1.592 3.965.217 6.83.021 13.715.031 20.551l.026 6.335c.01 1.305.127 2.713-.076 4.001-.169 1.074-.627 2.049-1.395 2.828-1.117 1.134-2.323 1.261-3.823 1.26zM92.176 100.2c-1.41.017-2.636.206-3.67 1.277-.564.585-.92 1.253-1.03 2.056-.192 1.413-.092 2.926-.09 4.35l.002 7.12c-.015 6.491-.294 13.048-.051 19.528.043 1.152.203 2.32 1.114 3.12.517.454 1.102.751 1.788.833 1.983.238 4.16.065 6.16.059l11.898-.028 38.181.024c1.408.002 2.771.058 3.846-1.022.6-.603.894-1.388 1.007-2.218.17-1.245.052-2.61.042-3.865l-.014-6.2c-.002-6.7.158-13.435.019-20.132-.031-1.477-.266-2.728-1.405-3.771-.538-.494-1.22-.909-1.954-1.017-2.144-.313-4.529-.136-6.702-.144l-12.767-.017-27.004.004c-3.119.021-6.254-.055-9.37.043z" fill="#000"/><path d="m146.478 138.539-38.181-.024-11.898.028c-2 .006-4.177.179-6.16-.059-.686-.082-1.271-.379-1.788-.833-.911-.8-1.071-1.968-1.114-3.12-.243-6.48.036-13.037.05-19.528v-7.12c-.003-1.424-.103-2.937.09-4.35.11-.803.465-1.471 1.029-2.056 1.034-1.071 2.26-1.26 3.67-1.277 3.116-.098 6.251-.022 9.37-.043l27.004-.004 12.767.017c2.173.008 4.558-.169 6.702.144.734.108 1.416.523 1.954 1.017 1.139 1.043 1.374 2.294 1.405 3.771.139 6.697-.021 13.432-.019 20.132l.014 6.2c.01 1.255.128 2.62-.042 3.865-.113.83-.407 1.615-1.007 2.218-1.075 1.08-2.438 1.024-3.846 1.022zm-33.24-30.471c-.419.239-.804.417-.962.91-.178.554-.204 18.609-.081 20.501.028.438.075.847.322 1.222.216.328.536.5.916.565.2.034.324.019.516-.058 1.258-.507 2.566-1.509 3.73-2.225 2.32-1.424 4.636-2.823 7.013-4.152 1.819-1.065 5.408-2.972 6.931-4.255.366-.308.641-.614.815-1.061-.045-.429-.314-.678-.64-.945-.907-.742-2.03-1.295-3.043-1.883-2.209-1.28-4.445-2.509-6.668-3.766a390.64 390.64 0 0 1-5.514-3.163c-.848-.498-1.685-1.076-2.558-1.524-.246-.127-.503-.163-.777-.166z" fill="#FEFEFE"/><path d="M124.692 124.831c-2.377 1.329-4.693 2.728-7.013 4.152-1.164.716-2.472 1.718-3.73 2.225a.829.829 0 0 1-.516.058c-.38-.065-.7-.237-.916-.565-.247-.375-.294-.784-.322-1.222-.123-1.892-.097-19.947.081-20.501.158-.493.543-.671.962-.91.274.003.531.039.777.166.873.448 1.71 1.026 2.558 1.524a390.64 390.64 0 0 0 5.514 3.163c2.223 1.257 4.459 2.486 6.668 3.766 1.013.588 2.136 1.141 3.043 1.883.326.267.595.516.64.945-.174.447-.449.753-.815 1.061-1.523 1.283-5.112 3.19-6.931 4.255zm-11.487-15.801c-.198 3.839-.078 7.738-.085 11.585-.005 2.806-.17 5.694-.002 8.487.023.378.057.712.221 1.055.253.09.251.029.492-.085 1.32-.623 2.585-1.502 3.834-2.259l7.043-4.254c2.276-1.305 4.656-2.546 6.756-4.124-3.837-2.309-7.79-4.423-11.669-6.658-2.072-1.193-4.387-2.878-6.59-3.747z" fill="#000"/><path d="m124.708 123.559-7.043 4.254c-1.249.757-2.514 1.636-3.834 2.259-.241.114-.24.174-.492.085-.164-.344-.198-.677-.221-1.055-.168-2.793-.003-5.681.002-8.488.007-3.846-.113-7.745.085-11.584 2.203.868 4.518 2.554 6.59 3.747 3.879 2.235 7.832 4.349 11.669 6.658-2.1 1.578-4.48 2.819-6.756 4.124z" fill="#4075D7"/><path d="M189.838 112.502c.376-.047.486-.028.792.202 1.87 1.407 5.508 7.685 6.776 8.406a76.298 76.298 0 0 1-22.469 53.451 268.155 268.155 0 0 0-5.16-5.126 79.227 79.227 0 0 0 3.428-3.784c12.91-15.318 18.328-33.261 16.633-53.149z" fill="#FEFEFE"/><path d="M55.203 148.881c3.22 7.474 8.381 14.664 14.03 20.492-1.645 1.797-3.368 3.666-5.248 5.218-5.07-4.941-10.418-11.943-13.531-18.309.4-.34 3.668-5.163 4.085-5.879.285-.488.485-.987.664-1.522z" fill="#ECEEF8"/><path d="M64.809 175.373c1.742-1.692 3.433-3.436 5.176-5.128 1.324.818 2.537 2.22 3.71 3.266 1.499 1.335 3.113 2.591 4.737 3.769a69.882 69.882 0 0 0 36.718 13.036 72.515 72.515 0 0 0 44.441-12.354c3.391-2.328 6.401-5.03 9.456-7.771 1.705 1.619 3.589 3.342 5 5.218-1.19 1.302-2.468 2.457-3.816 3.589-2.124 1.735-4.246 3.493-6.501 5.057-13.141 9.114-28.284 13.498-44.213 13.728-4.408.063-8.863-.391-13.204-1.137a77.121 77.121 0 0 1-41.504-21.273z" fill="#FEFEFE"/></svg>