<svg width="45" height="45" fill="none" xmlns="http://www.w3.org/2000/svg"><path d="m26.156 22.5-5.906-3.375v6.75l5.906-3.375z" fill="#fff"/><path fill-rule="evenodd" clip-rule="evenodd" d="M0 7.031A7.031 7.031 0 0 1 7.031 0H37.97A7.031 7.031 0 0 1 45 7.031V37.97A7.031 7.031 0 0 1 37.969 45H7.03A7.031 7.031 0 0 1 0 37.969V7.03zm31.219 8.016a2.785 2.785 0 0 1 1.968 1.969c.563 1.828.563 5.484.563 5.484s0 3.656-.422 5.484a2.785 2.785 0 0 1-1.969 1.97c-1.828.421-8.859.421-8.859.421s-7.172 0-8.86-.422a2.785 2.785 0 0 1-1.968-1.969c-.422-1.828-.422-5.484-.422-5.484s0-3.656.281-5.484a2.785 2.785 0 0 1 1.969-1.97c1.828-.421 8.86-.421 8.86-.421s7.171 0 8.859.422z" fill="#fff"/></svg>